<?xml version="1.0" encoding="UTF-8" standalone="no"?>
<svg
   xmlns:dc="http://purl.org/dc/elements/1.1/"
   xmlns:cc="http://creativecommons.org/ns#"
   xmlns:rdf="http://www.w3.org/1999/02/22-rdf-syntax-ns#"
   xmlns:svg="http://www.w3.org/2000/svg"
   xmlns="http://www.w3.org/2000/svg"
   xmlns:sodipodi="http://sodipodi.sourceforge.net/DTD/sodipodi-0.dtd"
   xmlns:inkscape="http://www.inkscape.org/namespaces/inkscape"
   height="78.009224"
   width="236.93022"
   id="Layer_1"
   data-name="Layer 1"
   viewBox="0 0 236.93023 78.009226"
   version="1.1"
   sodipodi:docname="text.svg"
   inkscape:version="1.0 (4035a4fb49, 2020-05-01)">
  <metadata
     id="metadata2304">
    <rdf:RDF>
      <cc:Work
         rdf:about="">
        <dc:format>image/svg+xml</dc:format>
        <dc:type
           rdf:resource="http://purl.org/dc/dcmitype/StillImage" />
        <dc:title>Logo</dc:title>
      </cc:Work>
    </rdf:RDF>
  </metadata>
  <sodipodi:namedview
     fit-margin-bottom="0"
     fit-margin-right="0"
     fit-margin-left="0"
     fit-margin-top="0"
     inkscape:document-rotation="0"
     pagecolor="#ffffff"
     bordercolor="#666666"
     borderopacity="1"
     objecttolerance="10"
     gridtolerance="10"
     guidetolerance="10"
     inkscape:pageopacity="0"
     inkscape:pageshadow="2"
     inkscape:window-width="1900"
     inkscape:window-height="1020"
     id="namedview2302"
     showgrid="false"
     inkscape:zoom="4.895559"
     inkscape:cx="108.24166"
     inkscape:cy="23.762567"
     inkscape:window-x="10"
     inkscape:window-y="50"
     inkscape:window-maximized="0"
     inkscape:current-layer="Layer_1" />
  <defs
     id="defs2219">
    <style
       id="style2217">.cls-1{fill:#d12329;}.cls-2{fill:#fff;}.cls-3{fill:#404041;}</style>
  </defs>
  <title
     id="title2221">Logo</title>
  <path
     class="cls-1"
     d="m 236.91,54.29891 c 0,-1 -0.24,-1.29 -1.28,-1.28 q -117.18,0 -234.35,0 c -1.06,0 -1.28,0.29 -1.28,1.3 0,7.39 0,14.78 0,22.16 0,1.32 0.39,1.54 1.59,1.53 q 58.46,0 116.9,0 58.44,0 117,0 c 1.12,0 1.45,-0.22 1.44,-1.41 q -0.09,-11.14 -0.02,-22.3 z"
     id="path2223" />
  <path
     class="cls-2"
     d="m 8.78,70.19891 0.7,-8.08 h 2 l 1.12,2.92 c 0.2,0.49 0.36,0.94 0.5,1.35 0.14,0.41 0.22,0.69 0.26,0.86 l 0.06,0.24 a 22.57,22.57 0 0 1 0.84,-2.45 l 1.14,-2.92 h 2 l 0.84,8.08 h -1.79 l -0.3,-3.13 -0.16,-2.36 c -0.2,0.6 -0.49,1.39 -0.86,2.36 l -1.14,3 H 12.9 l -1.13,-3 c -0.18,-0.49 -0.34,-0.94 -0.47,-1.33 -0.13,-0.39 -0.21,-0.66 -0.25,-0.82 l -0.06,-0.21 c 0,0.57 0,1.35 -0.11,2.36 l -0.25,3.13 z"
     id="path2225" />
  <path
     class="cls-2"
     d="m 19.82,63.07891 a 1,1 0 1 1 0.72,0.3 1,1 0 0 1 -0.72,-0.3 z m -0.16,7.12 v -6.08 h 1.75 v 6.08 z"
     id="path2227" />
  <path
     class="cls-2"
     d="m 27,61.71891 h 1.75 v 8.48 H 27 v -0.94 a 2,2 0 0 1 -1.83,1 2.28,2.28 0 0 1 -1.9,-0.93 3.46,3.46 0 0 1 -0.75,-2.19 3.22,3.22 0 0 1 0.78,-2.26 2.4,2.4 0 0 1 1.88,-0.83 2,2 0 0 1 1.82,1 z m -1.35,7.09 a 1.15,1.15 0 0 0 1,-0.47 1.91,1.91 0 0 0 0.38,-1.24 1.63,1.63 0 0 0 -0.44,-1.22 1.25,1.25 0 0 0 -1,-0.42 1.18,1.18 0 0 0 -0.93,0.44 1.87,1.87 0 0 0 -0.38,1.24 1.73,1.73 0 0 0 0.39,1.18 1.16,1.16 0 0 0 0.98,0.49 z"
     id="path2229" />
  <path
     class="cls-2"
     d="m 31.52,70.19891 -2,-6.08 h 1.81 l 0.53,2 c 0.13,0.51 0.23,1 0.32,1.37 0.09,0.37 0.14,0.68 0.16,0.83 v 0.23 a 18.69,18.69 0 0 1 0.59,-2.43 l 0.59,-2 h 1.51 l 0.58,2 c 0.14,0.52 0.26,1 0.36,1.38 0.1,0.38 0.15,0.68 0.18,0.83 v 0.22 a 20.25,20.25 0 0 1 0.57,-2.43 l 0.56,-2 h 1.73 l -1.94,6.08 h -1.8 l -0.53,-2 c -0.11,-0.43 -0.21,-0.83 -0.3,-1.21 -0.09,-0.38 -0.13,-0.64 -0.16,-0.8 v -0.24 a 22.15,22.15 0 0 1 -0.51,2.25 l -0.53,2 z"
     id="path2231" />
  <path
     class="cls-2"
     d="M 44.79,67.75891 H 41.1 a 1.8,1.8 0 0 0 0.17,0.47 1.31,1.31 0 0 0 0.3,0.4 1.17,1.17 0 0 0 0.4,0.23 1.53,1.53 0 0 0 0.47,0.1 h 0.08 a 2.09,2.09 0 0 0 0.38,0 1.73,1.73 0 0 0 0.36,-0.11 1.52,1.52 0 0 0 0.33,-0.21 1.92,1.92 0 0 0 0.29,-0.27 l 0.78,0.9 a 2.29,2.29 0 0 1 -0.41,0.42 2.7,2.7 0 0 1 -0.49,0.32 3.2,3.2 0 0 1 -0.64,0.21 3,3 0 0 1 -0.66,0.09 H 42.3 a 3.23,3.23 0 0 1 -0.75,-0.1 2.85,2.85 0 0 1 -0.71,-0.27 2.37,2.37 0 0 1 -0.55,-0.45 2.74,2.74 0 0 1 -0.7,-1.28 2.69,2.69 0 0 1 -0.12,-0.73 v -0.2 a 0.25,0.25 0 0 1 0,-0.09 3.23,3.23 0 0 1 0.1,-0.75 4.16,4.16 0 0 1 0.24,-0.73 2.37,2.37 0 0 1 0.4,-0.59 2.42,2.42 0 0 1 0.53,-0.47 2.61,2.61 0 0 1 0.69,-0.28 2.57,2.57 0 0 1 0.72,-0.12 h 0.14 a 2.72,2.72 0 0 1 0.69,0.11 2.6,2.6 0 0 1 0.64,0.24 2.76,2.76 0 0 1 0.5,0.44 2.18,2.18 0 0 1 0.38,0.55 3,3 0 0 1 0.22,0.69 3.61,3.61 0 0 1 0.09,0.73 0.31,0.31 0 0 1 0,0.1 z m -1.59,-1.22 v 0 a 1.14,1.14 0 0 0 -0.07,-0.38 1.25,1.25 0 0 0 -0.19,-0.33 0.92,0.92 0 0 0 -0.32,-0.2 1,1 0 0 0 -0.38,-0.09 h -0.09 a 0.91,0.91 0 0 0 -0.37,0.09 0.9,0.9 0 0 0 -0.3,0.22 1.33,1.33 0 0 0 -0.23,0.41 1.51,1.51 0 0 0 -0.12,0.45 h 2.07 z"
     id="path2233" />
  <path
     class="cls-2"
     d="m 49.79,64.29891 v 1.5 a 2.89,2.89 0 0 0 -1.49,-0.37 0.81,0.81 0 0 0 -0.48,0.12 0.4,0.4 0 0 0 -0.17,0.32 0.42,0.42 0 0 0 0.06,0.21 0.72,0.72 0 0 0 0.2,0.18 l 0.26,0.15 0.35,0.16 a 3.15,3.15 0 0 1 0.36,0.17 3.07,3.07 0 0 1 0.88,0.66 1.38,1.38 0 0 1 0.34,1 1.65,1.65 0 0 1 -0.65,1.39 2.73,2.73 0 0 1 -1.71,0.49 4.06,4.06 0 0 1 -1.85,-0.4 v -1.56 a 3,3 0 0 0 1.75,0.58 q 0.66,0 0.66,-0.42 a 0.39,0.39 0 0 0 -0.06,-0.21 0.72,0.72 0 0 0 -0.2,-0.18 l -0.27,-0.14 -0.35,-0.15 -0.34,-0.15 a 1.86,1.86 0 0 1 -1.22,-1.77 1.62,1.62 0 0 1 0.66,-1.34 2.79,2.79 0 0 1 1.69,-0.49 4.18,4.18 0 0 1 1.58,0.25 z"
     id="path2235" />
  <path
     class="cls-2"
     d="m 53.24,65.39891 v 2.8 a 0.63,0.63 0 0 0 0.18,0.49 0.73,0.73 0 0 0 0.49,0.17 1.53,1.53 0 0 0 0.85,-0.24 v 1.45 a 3,3 0 0 1 -1.2,0.19 1.83,1.83 0 0 1 -2.04,-2.07 v -2.79 h -0.88 v -1.28 h 0.88 v -1.44 h 1.75 v 1.44 h 1.41 v 1.28 z"
     id="path2237" />
  <path
     class="cls-2"
     d="m 64.15,70.19891 -0.5,-1.65 h -2.83 l -0.49,1.65 H 58.4 l 2.7,-8.08 h 2.33 l 2.7,8.08 z m -2.88,-3.14 h 1.94 l -0.08,-0.29 c -0.24,-0.78 -0.43,-1.45 -0.57,-2 -0.14,-0.55 -0.24,-0.91 -0.27,-1.07 v -0.24 c -0.07,0.44 -0.36,1.54 -0.89,3.31 z"
     id="path2239" />
  <path
     class="cls-2"
     d="m 70.92,64.29891 v 1.5 a 2.85,2.85 0 0 0 -1.48,-0.37 0.81,0.81 0 0 0 -0.48,0.12 0.37,0.37 0 0 0 -0.17,0.32 0.42,0.42 0 0 0 0.06,0.21 0.6,0.6 0 0 0 0.2,0.18 l 0.26,0.15 0.35,0.16 a 2.9,2.9 0 0 1 0.35,0.17 3,3 0 0 1 0.89,0.66 1.43,1.43 0 0 1 0.34,1 1.65,1.65 0 0 1 -0.65,1.39 2.76,2.76 0 0 1 -1.72,0.49 4.12,4.12 0 0 1 -1.85,-0.4 v -1.56 a 3.08,3.08 0 0 0 1.76,0.58 q 0.66,0 0.66,-0.42 a 0.39,0.39 0 0 0 -0.06,-0.21 0.65,0.65 0 0 0 -0.21,-0.18 l -0.26,-0.14 -0.39,-0.15 -0.35,-0.15 a 1.85,1.85 0 0 1 -1.17,-1.77 1.62,1.62 0 0 1 0.68,-1.38 2.76,2.76 0 0 1 1.68,-0.49 4.11,4.11 0 0 1 1.56,0.29 z"
     id="path2241" />
  <path
     class="cls-2"
     d="m 72.52,63.07891 a 1,1 0 1 1 0.72,0.3 1,1 0 0 1 -0.72,-0.3 z m -0.16,7.12 v -6.08 h 1.76 v 6.08 z"
     id="path2243" />
  <path
     class="cls-2"
     d="m 75.72,65.98891 v -1.57 a 4.28,4.28 0 0 1 2.07,-0.41 2.85,2.85 0 0 1 1.93,0.56 2.16,2.16 0 0 1 0.64,1.73 v 3.9 h -1.72 v -0.74 a 1.51,1.51 0 0 1 -1.51,0.78 1.87,1.87 0 0 1 -1.38,-0.5 1.7,1.7 0 0 1 -0.5,-1.26 1.62,1.62 0 0 1 0.64,-1.37 3.15,3.15 0 0 1 1.9,-0.48 h 0.73 v -0.42 c 0,-0.51 -0.34,-0.77 -1,-0.77 a 3.22,3.22 0 0 0 -1.8,0.55 z m 2.8,1.72 h -0.56 a 1.07,1.07 0 0 0 -0.69,0.19 0.6,0.6 0 0 0 -0.24,0.49 c 0,0.41 0.24,0.61 0.71,0.61 a 0.75,0.75 0 0 0 0.58,-0.22 1,1 0 0 0 0.2,-0.63 z"
     id="path2245" />
  <path
     class="cls-2"
     d="m 83.52,64.11891 v 1 a 1.8,1.8 0 0 1 0.7,-0.8 2.16,2.16 0 0 1 1.13,-0.29 1.93,1.93 0 0 1 1.47,0.56 2.31,2.31 0 0 1 0.53,1.64 v 3.94 h -1.77 v -3.59 a 1.18,1.18 0 0 0 -0.25,-0.82 0.89,0.89 0 0 0 -0.71,-0.28 1,1 0 0 0 -0.79,0.37 1.7,1.7 0 0 0 -0.31,1.14 v 3.21 h -1.76 v -6.08 z"
     id="path2247" />
  <path
     class="cls-2"
     d="m 97.02,70.19891 -0.5,-1.65 h -2.83 l -0.5,1.65 h -1.93 l 2.7,-8.08 h 2.33 l 2.7,8.08 z m -2.88,-3.14 h 1.94 l -0.08,-0.29 c -0.23,-0.78 -0.42,-1.45 -0.57,-2 -0.15,-0.55 -0.24,-0.91 -0.27,-1.07 v -0.24 a 32.69,32.69 0 0 1 -0.89,3.31 z"
     id="path2249" />
  <path
     class="cls-2"
     d="m 101.7,64.11891 v 1 a 1.78,1.78 0 0 1 1.72,-1 1.64,1.64 0 0 1 1.7,1.15 1.68,1.68 0 0 1 0.69,-0.84 2,2 0 0 1 1.13,-0.31 1.83,1.83 0 0 1 1.42,0.57 2.39,2.39 0 0 1 0.52,1.67 v 3.9 h -1.75 v -3.67 a 1.39,1.39 0 0 0 -0.21,-0.81 0.65,0.65 0 0 0 -0.58,-0.3 1,1 0 0 0 -0.73,0.33 1.7,1.7 0 0 0 -0.32,1.18 v 3.21 h -1.77 v -3.61 a 1.47,1.47 0 0 0 -0.2,-0.81 0.68,0.68 0 0 0 -0.59,-0.3 1,1 0 0 0 -0.73,0.33 1.7,1.7 0 0 0 -0.32,1.18 v 3.21 h -1.75 v -6.08 z"
     id="path2251" />
  <path
     class="cls-2"
     d="m 115.33,67.75891 h -3.68 a 1.5,1.5 0 0 0 0.17,0.47 1.31,1.31 0 0 0 0.3,0.4 1.08,1.08 0 0 0 0.4,0.23 1.47,1.47 0 0 0 0.46,0.1 h 0.09 a 1.9,1.9 0 0 0 0.37,0 2.07,2.07 0 0 0 0.37,-0.11 2.21,2.21 0 0 0 0.33,-0.21 1.45,1.45 0 0 0 0.28,-0.27 l 0.78,0.9 a 1.78,1.78 0 0 1 -0.41,0.42 2.39,2.39 0 0 1 -0.49,0.32 3.31,3.31 0 0 1 -0.63,0.21 3,3 0 0 1 -0.66,0.09 h -0.16 a 3.24,3.24 0 0 1 -0.76,-0.1 2.93,2.93 0 0 1 -0.7,-0.27 2.62,2.62 0 0 1 -0.56,-0.45 2.87,2.87 0 0 1 -0.43,-0.58 3.42,3.42 0 0 1 -0.27,-0.7 3.08,3.08 0 0 1 -0.11,-0.73 v -0.2 a 0.25,0.25 0 0 1 0,-0.09 3.23,3.23 0 0 1 0.1,-0.75 4.22,4.22 0 0 1 0.23,-0.73 2.75,2.75 0 0 1 0.41,-0.59 2.21,2.21 0 0 1 0.53,-0.47 2.53,2.53 0 0 1 0.68,-0.28 2.57,2.57 0 0 1 0.72,-0.12 h 0.15 a 2.72,2.72 0 0 1 0.69,0.11 2.6,2.6 0 0 1 0.64,0.24 3.15,3.15 0 0 1 0.5,0.44 2.12,2.12 0 0 1 0.37,0.55 2.92,2.92 0 0 1 0.23,0.69 3.61,3.61 0 0 1 0.09,0.73 0.3,0.3 0 0 1 0,0.1 z m -1.58,-1.22 v 0 a 1.18,1.18 0 0 0 -0.08,-0.38 1,1 0 0 0 -0.18,-0.33 0.88,0.88 0 0 0 -0.33,-0.2 0.91,0.91 0 0 0 -0.37,-0.09 h -0.1 a 0.87,0.87 0 0 0 -0.36,0.09 1,1 0 0 0 -0.31,0.22 1.58,1.58 0 0 0 -0.23,0.41 2.54,2.54 0 0 0 -0.12,0.45 h 2.08 z"
     id="path2253" />
  <path
     class="cls-2"
     d="m 118.3,64.11891 v 1.13 a 1.82,1.82 0 0 1 0.56,-0.85 1.4,1.4 0 0 1 0.91,-0.32 1.75,1.75 0 0 1 0.45,0 v 1.66 a 1.53,1.53 0 0 0 -0.66,-0.13 1.12,1.12 0 0 0 -0.91,0.41 1.67,1.67 0 0 0 -0.35,1.1 v 3 h -1.78 v -6 z"
     id="path2255" />
  <path
     class="cls-2"
     d="m 121.22,63.07891 a 1,1 0 1 1 0.72,0.3 1,1 0 0 1 -0.72,-0.3 z m -0.16,7.12 v -6.08 h 1.76 v 6.08 z"
     id="path2257" />
  <path
     class="cls-2"
     d="m 125.71,67.17891 a 1.87,1.87 0 0 0 0.48,1.25 1.54,1.54 0 0 0 1.14,0.44 2.76,2.76 0 0 0 1.45,-0.42 v 1.43 a 3.59,3.59 0 0 1 -1.7,0.38 3.1,3.1 0 0 1 -2.26,-0.87 3,3 0 0 1 -0.89,-2.25 3.24,3.24 0 0 1 0.89,-2.26 3.14,3.14 0 0 1 2.37,-0.9 3.45,3.45 0 0 1 1.59,0.35 v 1.55 a 2.62,2.62 0 0 0 -1.41,-0.39 1.64,1.64 0 0 0 -1.19,0.43 1.72,1.72 0 0 0 -0.47,1.26 z"
     id="path2259" />
  <path
     class="cls-2"
     d="m 130.09,65.98891 v -1.57 a 4.28,4.28 0 0 1 2.07,-0.41 2.85,2.85 0 0 1 1.93,0.56 2.16,2.16 0 0 1 0.64,1.73 v 3.9 h -1.72 v -0.74 a 1.51,1.51 0 0 1 -1.51,0.78 1.87,1.87 0 0 1 -1.38,-0.5 1.7,1.7 0 0 1 -0.5,-1.26 1.62,1.62 0 0 1 0.64,-1.37 3.15,3.15 0 0 1 1.9,-0.48 h 0.77 v -0.42 c 0,-0.51 -0.34,-0.77 -1,-0.77 a 3.22,3.22 0 0 0 -1.84,0.55 z m 2.84,1.72 h -0.56 a 1.07,1.07 0 0 0 -0.69,0.19 0.6,0.6 0 0 0 -0.24,0.49 c 0,0.41 0.24,0.61 0.71,0.61 a 0.75,0.75 0 0 0 0.58,-0.22 1,1 0 0 0 0.2,-0.63 z"
     id="path2261" />
  <path
     class="cls-2"
     d="m 137.88,64.11891 v 1 a 1.8,1.8 0 0 1 0.7,-0.8 2.18,2.18 0 0 1 1.13,-0.29 1.93,1.93 0 0 1 1.47,0.56 2.31,2.31 0 0 1 0.53,1.64 v 3.94 h -1.76 v -3.59 a 1.18,1.18 0 0 0 -0.25,-0.82 0.89,0.89 0 0 0 -0.71,-0.28 1,1 0 0 0 -0.79,0.37 1.7,1.7 0 0 0 -0.32,1.14 v 3.21 h -1.75 v -6.08 z"
     id="path2263" />
  <path
     class="cls-2"
     d="m 150.82,62.47891 v 1.72 a 4.06,4.06 0 0 0 -2,-0.56 1.16,1.16 0 0 0 -0.72,0.19 0.6,0.6 0 0 0 -0.24,0.49 0.69,0.69 0 0 0 0.3,0.54 4.9,4.9 0 0 0 0.9,0.5 l 0.62,0.29 a 4.39,4.39 0 0 1 0.56,0.35 2.07,2.07 0 0 1 0.5,0.47 2.12,2.12 0 0 1 0.32,0.6 2.37,2.37 0 0 1 -0.67,2.55 3.23,3.23 0 0 1 -2.14,0.68 4.78,4.78 0 0 1 -2.32,-0.5 v -1.86 a 3.91,3.91 0 0 0 2.32,0.79 1.12,1.12 0 0 0 0.7,-0.22 0.74,0.74 0 0 0 0.28,-0.59 0.78,0.78 0 0 0 0,-0.22 0.52,0.52 0 0 0 -0.13,-0.21 2.31,2.31 0 0 0 -0.19,-0.16 l -0.26,-0.16 -0.29,-0.15 -0.36,-0.16 -0.38,-0.17 a 3.74,3.74 0 0 1 -1.25,-0.89 2,2 0 0 1 -0.48,-1.4 2.1,2.1 0 0 1 0.77,-1.69 3.21,3.21 0 0 1 2.13,-0.64 4.84,4.84 0 0 1 2.03,0.41 z"
     id="path2265" />
  <path
     class="cls-2"
     d="m 154.32,65.39891 v 2.8 a 0.63,0.63 0 0 0 0.18,0.49 0.73,0.73 0 0 0 0.49,0.17 1.53,1.53 0 0 0 0.85,-0.24 v 1.45 a 3.08,3.08 0 0 1 -1.2,0.19 1.84,1.84 0 0 1 -2.12,-2.07 v -2.79 h -0.87 v -1.28 h 0.87 v -1.44 h 1.76 v 1.44 h 1.41 v 1.28 z"
     id="path2267" />
  <path
     class="cls-2"
     d="m 160.69,64.11891 h 1.76 v 6.08 h -1.76 v -1 a 1.83,1.83 0 0 1 -1.84,1 2,2 0 0 1 -1.46,-0.52 2.08,2.08 0 0 1 -0.52,-1.54 v -4.02 h 1.75 v 3.67 c 0,0.71 0.31,1.07 0.93,1.07 0.62,0 1.14,-0.51 1.14,-1.52 z"
     id="path2269" />
  <path
     class="cls-2"
     d="m 168.04,61.71891 h 1.75 v 8.48 h -1.75 v -0.94 a 2,2 0 0 1 -1.83,1 2.28,2.28 0 0 1 -1.9,-0.93 3.52,3.52 0 0 1 -0.71,-2.21 3.27,3.27 0 0 1 0.74,-2.26 2.42,2.42 0 0 1 1.89,-0.83 2,2 0 0 1 1.81,1 z m -1.35,7.09 a 1.18,1.18 0 0 0 1,-0.47 2,2 0 0 0 0.37,-1.24 1.67,1.67 0 0 0 -0.4,-1.18 1.29,1.29 0 0 0 -1,-0.42 1.18,1.18 0 0 0 -0.93,0.44 1.87,1.87 0 0 0 -0.38,1.24 1.73,1.73 0 0 0 0.39,1.18 1.18,1.18 0 0 0 0.95,0.45 z"
     id="path2271" />
  <path
     class="cls-2"
     d="m 176.29,67.75891 h -3.68 a 1.5,1.5 0 0 0 0.17,0.47 1.05,1.05 0 0 0 0.3,0.4 1.08,1.08 0 0 0 0.4,0.23 1.42,1.42 0 0 0 0.46,0.1 h 0.08 a 2,2 0 0 0 0.38,0 2.07,2.07 0 0 0 0.37,-0.11 2.21,2.21 0 0 0 0.33,-0.21 1.82,1.82 0 0 0 0.28,-0.27 l 0.78,0.9 a 2,2 0 0 1 -0.41,0.42 2.39,2.39 0 0 1 -0.49,0.32 3.2,3.2 0 0 1 -0.64,0.21 2.87,2.87 0 0 1 -0.66,0.09 h -0.15 a 3.24,3.24 0 0 1 -0.76,-0.1 3,3 0 0 1 -0.71,-0.27 2.59,2.59 0 0 1 -0.55,-0.45 2.87,2.87 0 0 1 -0.43,-0.58 3.42,3.42 0 0 1 -0.27,-0.7 2.64,2.64 0 0 1 -0.11,-0.73 v -0.2 a 0.24,0.24 0 0 1 0,-0.09 3.31,3.31 0 0 1 0.11,-0.75 3.5,3.5 0 0 1 0.23,-0.73 2.43,2.43 0 0 1 0.41,-0.59 2.21,2.21 0 0 1 0.53,-0.47 2.53,2.53 0 0 1 0.68,-0.28 2.57,2.57 0 0 1 0.72,-0.12 h 0.14 a 2.72,2.72 0 0 1 0.69,0.11 2.69,2.69 0 0 1 0.65,0.24 2.73,2.73 0 0 1 0.49,0.44 2,2 0 0 1 0.38,0.55 3,3 0 0 1 0.22,0.69 3.61,3.61 0 0 1 0.09,0.73 0.31,0.31 0 0 1 0,0.1 z m -1.58,-1.22 v 0 a 1.18,1.18 0 0 0 -0.08,-0.38 0.87,0.87 0 0 0 -0.19,-0.33 0.84,0.84 0 0 0 -0.32,-0.2 1,1 0 0 0 -0.37,-0.09 h -0.1 a 0.87,0.87 0 0 0 -0.36,0.09 0.85,0.85 0 0 0 -0.31,0.22 1.58,1.58 0 0 0 -0.23,0.41 2.54,2.54 0 0 0 -0.12,0.45 h 2.08 z"
     id="path2273" />
  <path
     class="cls-2"
     d="m 179.27,64.11891 v 1 a 1.8,1.8 0 0 1 0.7,-0.8 2.16,2.16 0 0 1 1.13,-0.29 1.93,1.93 0 0 1 1.47,0.56 2.31,2.31 0 0 1 0.53,1.64 v 3.94 h -1.76 v -3.59 a 1.18,1.18 0 0 0 -0.25,-0.82 0.89,0.89 0 0 0 -0.71,-0.28 1,1 0 0 0 -0.79,0.37 1.7,1.7 0 0 0 -0.32,1.14 v 3.21 h -1.75 v -6.08 z"
     id="path2275" />
  <path
     class="cls-2"
     d="m 186.52,65.39891 v 2.8 a 0.6,0.6 0 0 0 0.19,0.49 0.69,0.69 0 0 0 0.48,0.17 1.51,1.51 0 0 0 0.85,-0.24 v 1.45 a 3,3 0 0 1 -1.2,0.19 1.83,1.83 0 0 1 -2.07,-2.07 v -2.79 h -0.88 v -1.28 h 0.88 v -1.44 h 1.75 v 1.44 h 1.42 v 1.28 z"
     id="path2277" />
  <path
     class="cls-2"
     d="m 192.95,64.29891 v 1.5 a 2.85,2.85 0 0 0 -1.48,-0.37 0.81,0.81 0 0 0 -0.48,0.12 0.37,0.37 0 0 0 -0.17,0.32 0.42,0.42 0 0 0 0.06,0.21 0.6,0.6 0 0 0 0.2,0.18 l 0.26,0.15 0.35,0.16 a 2.9,2.9 0 0 1 0.35,0.17 3,3 0 0 1 0.89,0.66 1.43,1.43 0 0 1 0.34,1 1.65,1.65 0 0 1 -0.65,1.39 2.76,2.76 0 0 1 -1.72,0.49 4.12,4.12 0 0 1 -1.85,-0.37 v -1.59 a 3.08,3.08 0 0 0 1.76,0.58 q 0.66,0 0.66,-0.42 a 0.39,0.39 0 0 0 -0.06,-0.21 0.65,0.65 0 0 0 -0.21,-0.18 l -0.26,-0.14 -0.35,-0.15 -0.35,-0.15 a 1.85,1.85 0 0 1 -1.21,-1.77 1.62,1.62 0 0 1 0.68,-1.38 2.76,2.76 0 0 1 1.68,-0.49 4.11,4.11 0 0 1 1.56,0.29 z"
     id="path2279" />
  <path
     class="cls-2"
     d="m 202.07,67.07891 v -5 h 1.85 v 5 a 3.13,3.13 0 0 1 -0.89,2.42 3.34,3.34 0 0 1 -2.4,0.83 3.38,3.38 0 0 1 -2.38,-0.82 3,3 0 0 1 -0.9,-2.34 v -5 h 1.84 v 5 q 0,1.5 1.44,1.5 1.44,0 1.44,-1.59 z"
     id="path2281" />
  <path
     class="cls-2"
     d="m 207.17,64.11891 v 1 a 1.87,1.87 0 0 1 0.7,-0.8 2.19,2.19 0 0 1 1.14,-0.29 1.92,1.92 0 0 1 1.46,0.56 2.31,2.31 0 0 1 0.53,1.64 v 3.94 h -1.75 v -3.59 a 1.24,1.24 0 0 0 -0.25,-0.82 0.91,0.91 0 0 0 -0.71,-0.28 1,1 0 0 0 -0.8,0.37 1.76,1.76 0 0 0 -0.32,1.14 v 3.21 h -1.75 v -6.08 z"
     id="path2283" />
  <path
     class="cls-2"
     d="m 212.52,63.07891 a 1,1 0 1 1 0.72,0.3 1,1 0 0 1 -0.72,-0.3 z m -0.15,7.12 v -6.08 h 1.75 v 6.08 z"
     id="path2285" />
  <path
     class="cls-2"
     d="m 218.29,70.29891 a 2.85,2.85 0 0 1 -2.21,-0.86 3.13,3.13 0 0 1 -0.78,-2.2 3.28,3.28 0 0 1 0.82,-2.31 3.11,3.11 0 0 1 4.4,-0.05 3.23,3.23 0 0 1 0.78,2.23 3.36,3.36 0 0 1 -0.79,2.28 2.77,2.77 0 0 1 -2.22,0.91 z m 0,-4.9 a 1,1 0 0 0 -0.87,0.5 3,3 0 0 0 0,2.55 1,1 0 0 0 0.88,0.49 0.93,0.93 0 0 0 0.86,-0.48 2.52,2.52 0 0 0 0.28,-1.27 c 0,-1.19 -0.39,-1.79 -1.16,-1.79 z"
     id="path2287" />
  <path
     class="cls-2"
     d="m 224.15,64.11891 v 1 a 1.8,1.8 0 0 1 0.7,-0.8 2.13,2.13 0 0 1 1.13,-0.29 1.91,1.91 0 0 1 1.46,0.56 2.26,2.26 0 0 1 0.53,1.64 v 3.94 h -1.75 v -3.59 a 1.18,1.18 0 0 0 -0.25,-0.82 0.89,0.89 0 0 0 -0.71,-0.28 1,1 0 0 0 -0.8,0.37 1.76,1.76 0 0 0 -0.31,1.14 v 3.21 h -1.76 v -6.08 z"
     id="path2289" />
  <path
     class="cls-3"
     d="m 14.34,15.53891 c 0,0 -0.08,3.94 -0.16,6 q -0.16,4.09 -0.48,7.93 l -1.48,18.41 H 1.35 L 5.45,0.29890952 H 17.37 L 24.01,17.52891 q 1.69,4.3 2.89,7.9 c 0.8,2.4 1.32,4.1 1.56,5.08 l 0.35,1.37 a 125.18,125.18 0 0 1 4.94,-14.4 L 40.46,0.24890952 H 52.39 L 57.33,47.87891 H 46.46 l -1.77,-18.43 -0.91,-13.91 c 0,0 -2.92,8.17 -5.09,13.91 l -6.7,17.93 h -6.47 l -6.59,-17.93 c -0.94,-2.49 -1.87,-5.1 -2.75,-7.84 -0.66,-2.07 -1.84,-6.07 -1.84,-6.07 z"
     id="path2291"
     style="fill:#404040;fill-opacity:1" />
  <path
     class="cls-3"
     d="m 95.46,47.87891 -2.89,-9.74 H 75.91 l -2.9,9.74 H 61.65 L 77.52,0.28890952 h 13.7 L 107.11,47.87891 Z m -16.94,-18.5 h 11.44 l -0.5,-1.7 q -2,-6.91 -3.35,-11.79 c -0.87,-3.24 -1.4,-5.34 -1.59,-6.2800005 l -0.28,-1.41 Q 83.67,12.07891 79.01,27.67891 Z"
     id="path2293"
     style="fill:#404040;fill-opacity:1" />
  <path
     class="cls-3"
     d="m 144.37,47.87891 -2.85,-9.75 h -16.7 l -2.89,9.75 H 110.52 L 126.4,0.29890952 h 13.7 L 156.02,47.87891 Z m -16.94,-18.5 h 11.44 l -0.5,-1.7 q -2,-6.91 -3.35,-11.79 c -0.87,-3.24 -1.4,-5.34 -1.59,-6.2800005 l -0.28,-1.41 Q 132.58,12.07891 127.93,27.67891 Z"
     id="path2295"
     style="fill:#404040;fill-opacity:1" />
  <path
     class="cls-3"
     d="M 188.78,2.4089095 V 12.56891 a 23.31,23.31 0 0 0 -11.86,-3.3100005 6.69,6.69 0 0 0 -4.2,1.1300005 3.51,3.51 0 0 0 -1.45,2.89 4,4 0 0 0 1.77,3.14 25.53,25.53 0 0 0 5.29,2.93 c 1.46,0.66 2.67,1.24 3.64,1.73 a 31,31 0 0 1 3.32,2 13.21,13.21 0 0 1 3,2.75 13.74,13.74 0 0 1 1.87,3.57 13.15,13.15 0 0 1 0.78,4.58 13,13 0 0 1 -4.73,10.42 q -4.72,4 -12.57,4 -8.4,0 -13.69,-3 v -10.87 a 23,23 0 0 0 13.69,4.66 6.34,6.34 0 0 0 4.1,-1.31 4.18,4.18 0 0 0 1.62,-3.42 4.23,4.23 0 0 0 -0.21,-1.34 3,3 0 0 0 -0.78,-1.2 9.15,9.15 0 0 0 -1.09,-1 13.08,13.08 0 0 0 -1.55,-0.91 l -1.73,-0.89 c -0.47,-0.23 -1.17,-0.56 -2.09,-1 -0.92,-0.44 -1.65,-0.76 -2.22,-1 a 22.31,22.31 0 0 1 -7.38,-5.23 11.88,11.88 0 0 1 -2.79,-8.19 12.28,12.28 0 0 1 4.51,-9.9100005 q 4.49,-3.77999998 12.49,-3.77999998 a 28.86,28.86 0 0 1 12.26,2.39999998 z"
     id="path2297"
     style="fill:#404040;fill-opacity:1" />
  <path
     class="cls-3"
     d="M 224.69,29.51891 V 0.28890952 h 10.83 V 29.44891 q 0,9.32 -5.22,14.22 -5.22,4.9 -14.08,4.91 -8.76,0 -14,-4.87 -5.24,-4.87 -5.29,-13.77 V 0.28890952 H 207.8 V 29.87891 q 0,8.82 8.47,8.82 8.47,0 8.42,-9.18 z"
     id="path2299"
     style="fill:#404040;fill-opacity:1" />
</svg>
