<?xml version="1.0" encoding="UTF-8" standalone="no"?>
<svg
   xmlns:dc="http://purl.org/dc/elements/1.1/"
   xmlns:cc="http://creativecommons.org/ns#"
   xmlns:rdf="http://www.w3.org/1999/02/22-rdf-syntax-ns#"
   xmlns:svg="http://www.w3.org/2000/svg"
   xmlns="http://www.w3.org/2000/svg"
   xmlns:sodipodi="http://sodipodi.sourceforge.net/DTD/sodipodi-0.dtd"
   xmlns:inkscape="http://www.inkscape.org/namespaces/inkscape"
   inkscape:export-ydpi="234.01888"
   inkscape:export-xdpi="234.01888"
   inkscape:export-filename="/home/sam/Downloads/maasu.png"
   inkscape:version="1.0 (4035a4fb49, 2020-05-01)"
   sodipodi:docname="maasu.svg"
   viewBox="0 0 369.20099 79.767776"
   height="79.767776"
   width="369.20099"
   xml:space="preserve"
   id="svg28"
   version="1.1"><metadata
     id="metadata34"><rdf:RDF><cc:Work
         rdf:about=""><dc:format>image/svg+xml</dc:format><dc:type
           rdf:resource="http://purl.org/dc/dcmitype/StillImage" /><dc:title></dc:title></cc:Work></rdf:RDF></metadata><defs
     id="defs32"><clipPath
       id="clipPath44"
       clipPathUnits="userSpaceOnUse"><path
         id="path42"
         d="M 0,288 H 288 V 0 H 0 Z" /></clipPath></defs><sodipodi:namedview
     inkscape:current-layer="g36"
     inkscape:window-maximized="0"
     inkscape:window-y="50"
     inkscape:window-x="10"
     inkscape:cy="38.835281"
     inkscape:cx="81.918451"
     inkscape:zoom="2.0416667"
     fit-margin-bottom="0"
     fit-margin-right="0"
     fit-margin-left="0"
     fit-margin-top="0"
     showgrid="false"
     id="namedview30"
     inkscape:window-height="1020"
     inkscape:window-width="1900"
     inkscape:pageshadow="2"
     inkscape:pageopacity="0"
     guidetolerance="10"
     gridtolerance="10"
     objecttolerance="10"
     borderopacity="1"
     bordercolor="#666666"
     pagecolor="#ffffff" /><g
     transform="matrix(1.3333333,0,0,-1.3333333,-5.0203246,230.83528)"
     inkscape:label="maasu"
     inkscape:groupmode="layer"
     id="g36"><g
       id="g38"><g
         clip-path="url(#clipPath44)"
         id="g40"><g
           transform="translate(51.6626,171.9517)"
           id="g46"><path
             id="path48"
             style="fill:#b23030;fill-opacity:1;fill-rule:nonzero;stroke:none"
             d="m 0,0 c -1.991,0.876 -5.163,1.736 -8.774,0.703 -5.669,-1.62 -7.93,-6.607 -8.578,-8.038 -1.02,-2.251 -1.606,-5.008 -1.618,-7.457 -0.012,-0.046 -0.022,-0.096 -0.03,-0.146 -0.577,-3.986 -1.562,-7.904 -2.937,-11.69 -0.62,-1.708 -1.319,-3.386 -2.094,-5.029 -0.956,-1.712 -2.283,-3.189 -3.884,-4.323 -1.003,-0.706 -3.367,-2.321 -6.76,-2.312 -0.992,0.006 -4.376,0.068 -7.075,2.671 -1.886,1.818 -3.317,4.76 -2.879,7.594 -0.003,0.04 0.006,0.063 0.013,0.081 0.498,3.049 2.823,6.849 6.862,7.856 3.592,0.892 7.43,-1.216 8.193,-4.497 0.675,-2.927 -1.19,-6.127 -4.015,-6.902 -0.791,-0.206 -1.623,-0.204 -2.413,0.011 -0.602,0.175 -1.155,0.49 -1.614,0.918 -0.453,0.399 -0.786,0.919 -0.96,1.5 -0.17,0.53 -0.166,1.103 0.015,1.632 0.177,0.442 0.464,0.826 0.835,1.122 0.317,0.346 0.737,0.578 1.198,0.664 0.364,0.042 0.944,-0.016 1.028,-0.279 0.134,-0.373 -0.888,-0.691 -0.913,-1.392 -0.019,-0.53 0.539,-1.036 1.057,-1.213 0.84,-0.29 1.583,0.268 1.809,0.437 0.363,0.269 0.647,0.631 0.823,1.047 0.261,0.515 0.344,1.104 0.235,1.671 -0.183,0.682 -0.608,1.272 -1.196,1.661 -0.425,0.324 -0.916,0.552 -1.438,0.667 -1.105,0.287 -2.273,0.204 -3.327,-0.236 -1.872,-0.845 -2.557,-2.622 -2.722,-3.066 -0.458,-1.275 -0.475,-2.666 -0.047,-3.951 0.692,-2.434 2.797,-4.201 5.312,-4.46 3.893,-0.534 6.914,2.381 7.134,2.601 0.222,0.221 3.36,3.446 2.59,7.979 -0.596,3.907 -3.781,6.903 -7.717,7.262 l -0.174,0.022 c -1.263,0.161 -4.791,0.254 -7.845,-1.469 -5.273,-2.965 -5.938,-9.478 -5.961,-9.748 -0.05,-0.601 -0.439,-6.224 3.919,-10.371 4.26,-4.043 9.701,-3.474 11.262,-3.306 2.252,0.242 4.693,1.012 6.715,2.085 0.09,0.017 0.178,0.039 0.263,0.073 6.257,2.323 12.831,3.686 19.496,4.041 0.541,-0.091 1.076,-0.214 1.603,-0.372 1.173,-0.352 3.903,-1.216 5.986,-3.89 0.624,-0.792 2.65,-3.489 2.265,-7.218 -0.269,-2.605 -1.702,-5.546 -4.202,-6.952 l -0.073,-0.038 c -2.706,-1.489 -7.134,-2.004 -10.412,0.556 -2.92,2.275 -3.631,6.597 -1.514,9.221 1.883,2.337 5.555,2.843 7.907,1.097 0.649,-0.495 1.161,-1.153 1.482,-1.905 0.228,-0.579 0.319,-1.203 0.265,-1.821 -0.036,-0.604 -0.24,-1.188 -0.588,-1.684 -0.312,-0.465 -0.766,-0.816 -1.293,-1.003 -0.454,-0.134 -0.934,-0.147 -1.395,-0.037 -0.469,0.032 -0.914,0.218 -1.266,0.528 -0.263,0.249 -0.57,0.749 -0.414,0.978 0.217,0.322 1.094,-0.286 1.663,0.127 0.438,0.307 0.482,1.06 0.302,1.577 -0.286,0.828 -1.189,1.083 -1.46,1.159 -1.007,0.243 -2.068,-0.077 -2.775,-0.839 -0.425,-0.562 -0.626,-1.263 -0.566,-1.966 0.003,-0.532 0.124,-1.057 0.355,-1.538 0.454,-1.048 1.239,-1.918 2.238,-2.474 1.818,-0.953 3.64,-0.397 4.089,-0.253 1.286,0.426 2.392,1.272 3.141,2.402 1.488,2.046 1.579,4.791 0.232,6.932 -1.995,3.391 -6.166,3.963 -6.476,4.003 -0.309,0.039 -4.78,0.509 -7.88,-2.88 -2.695,-2.881 -3.084,-7.225 -0.943,-10.54 l 0.087,-0.15 c 0.658,-1.1 2.765,-3.934 6.019,-5.291 5.588,-2.319 11.123,1.171 11.349,1.32 0.507,0.331 5.174,3.496 5.749,9.482 0.564,5.872 -3.259,9.795 -4.354,10.917 -1.059,1.092 -2.359,2.097 -3.732,2.925 -0.024,0.024 -0.051,0.047 -0.077,0.07 -3.093,2.583 -5.954,5.434 -8.547,8.519 -1.153,1.372 -2.254,2.788 -3.296,4.245 -1.148,1.792 -1.842,3.834 -2.026,5.952 -0.098,1.223 -0.291,4.078 1.438,6.995 0.507,0.857 2.28,3.74 5.893,4.744 2.525,0.703 5.785,0.44 8.004,-1.374 l 0.067,-0.028 c 2.368,-1.986 4.462,-5.918 3.288,-9.905 -1.055,-3.546 -4.818,-5.783 -8.033,-4.775 -2.867,0.896 -4.677,4.131 -3.912,6.955 0.224,0.788 0.649,1.503 1.232,2.078 0.455,0.428 1.003,0.745 1.602,0.925 0.574,0.187 1.19,0.21 1.777,0.066 0.547,-0.119 1.042,-0.413 1.407,-0.836 0.291,-0.374 0.478,-0.817 0.545,-1.286 0.136,-0.455 0.117,-0.944 -0.054,-1.387 -0.147,-0.335 -0.491,-0.804 -0.759,-0.745 -0.381,0.085 -0.136,1.124 -0.726,1.504 -0.448,0.285 -1.166,0.06 -1.58,-0.295 -0.664,-0.562 -0.57,-1.493 -0.54,-1.771 0.051,-0.446 0.218,-0.871 0.484,-1.232 0.311,-0.488 0.775,-0.856 1.321,-1.052 0.679,-0.188 1.404,-0.119 2.038,0.19 0.496,0.2 0.941,0.508 1.304,0.901 0.809,0.804 1.331,1.852 1.484,2.983 0.223,2.043 -0.963,3.536 -1.259,3.901 -0.865,1.042 -2.056,1.764 -3.381,2.047 -2.448,0.639 -5.039,-0.279 -6.539,-2.318 -2.429,-3.093 -1.432,-7.186 -1.361,-7.488 0.07,-0.302 1.256,-4.634 5.557,-6.285 3.664,-1.459 7.852,-0.235 10.157,2.966 0.021,0.027 0.056,0.074 0.107,0.139 0.788,1.026 2.658,4.01 2.728,7.535 C 7.64,-5.226 2.369,-1.35 2.145,-1.192 1.961,-1.06 1.194,-0.526 0,0" /></g></g></g><g
       style="font-variant:normal;font-weight:800;font-stretch:normal;font-size:72.1012px;font-family:'Averta ExtraBold';-inkscape-font-specification:Averta-ExtraBold;writing-mode:lr-tb;fill:#b23030;fill-opacity:1;fill-rule:nonzero;stroke:none"
       id="text52"
       transform="matrix(1,0,0,-1,63.707,134.0674)"
       aria-label="maasu"><path
         id="path76"
         style="font-style:normal;font-variant:normal;font-weight:800;font-stretch:normal;font-family:Averta;-inkscape-font-specification:'Averta Ultra-Bold'"
         d="m 47.140382,-35.909775 c -4.858382,0 -9.01265,1.725077 -11.899514,5.034409 H 35.06484 c -2.182751,-3.520566 -5.773729,-5.034409 -10.104025,-5.034409 -3.626184,0 -7.181956,1.584254 -9.857586,4.647147 h -0.176028 v -3.97824 H 3.6613889 V 0 H 14.927201 v -17.638037 c 0,-5.492083 2.570013,-8.202919 6.055374,-8.202919 3.837417,0 5.175232,3.274126 5.175232,7.95648 V 0 h 11.230606 v -17.638037 c 0,-5.492083 2.605219,-8.202919 5.879346,-8.202919 3.872623,0 5.140027,3.274126 5.140027,7.95648 V 0 h 11.230606 v -20.524901 c 0,-11.124989 -5.069616,-15.384874 -12.49801,-15.384874 z" /><path
         id="path78"
         style="font-style:normal;font-variant:normal;font-weight:800;font-stretch:normal;font-family:Averta;-inkscape-font-specification:'Averta Ultra-Bold'"
         d="m 90.864128,-35.240868 v 3.696595 H 90.6881 c -2.499603,-2.886865 -5.914552,-4.365502 -9.716763,-4.365502 -9.118267,0 -16.088988,7.569217 -16.088988,18.34215 0,10.9137548 6.90031,18.27173825 16.617073,18.27173825 4.224679,0 7.534011,-1.51384348 9.787174,-4.47111915 h 0.140822 V 0.03520566 H 102.12994 V -35.240868 Z m -7.041133,26.0169845 c -4.400707,0 -7.534011,-3.3445375 -7.534011,-8.3085365 0,-5.03441 3.274126,-8.378947 7.569217,-8.378947 4.224679,0 7.428395,3.520566 7.428395,8.378947 0,5.03441 -3.344538,8.3085365 -7.463601,8.3085365 z" /><path
         id="path80"
         style="font-style:normal;font-variant:normal;font-weight:800;font-stretch:normal;font-family:Averta;-inkscape-font-specification:'Averta Ultra-Bold'"
         d="m 133.47594,-35.240868 v 3.696595 h -0.17603 c -2.4996,-2.886865 -5.91455,-4.365502 -9.71676,-4.365502 -9.11827,0 -16.08899,7.569217 -16.08899,18.34215 0,10.9137548 6.90031,18.27173825 16.61707,18.27173825 4.22468,0 7.53401,-1.51384348 9.78717,-4.47111915 h 0.14083 v 3.80221156 h 10.70252 V -35.240868 Z m -7.04114,26.0169845 c -4.4007,0 -7.53401,-3.3445375 -7.53401,-8.3085365 0,-5.03441 3.27413,-8.378947 7.56922,-8.378947 4.22468,0 7.42839,3.520566 7.42839,8.378947 0,5.03441 -3.34453,8.3085365 -7.4636,8.3085365 z" /><path
         id="path82"
         style="font-style:normal;font-variant:normal;font-weight:800;font-stretch:normal;font-family:Averta;-inkscape-font-specification:'Averta Ultra-Bold'"
         d="m 163.69535,0.70411325 c 9.61115,0 14.18788,-4.82317575 14.18788,-11.37142925 -0.0352,-7.005926 -4.25988,-8.836621 -12.04033,-11.653074 -3.30933,-1.232198 -4.61194,-2.11234 -4.61194,-2.992481 0,-1.408227 1.51384,-1.795489 2.4996,-1.795489 2.39398,0 5.45688,1.232198 7.95648,3.696595 l 5.35126,-8.062097 c -4.08386,-3.027687 -8.0621,-4.471119 -13.27254,-4.471119 -7.42839,0 -13.23733,4.259885 -13.23733,11.124989 0,6.970721 5.14003,9.927997 11.01938,11.758691 4.33029,1.373021 5.42167,2.077134 5.42167,3.027687 0,1.2321984 -1.12658,1.9363117 -3.16851,1.9363117 -3.30933,0 -6.30181,-1.2321982 -9.25909,-3.9782397 l -5.35126,7.5692172 c 4.01344,3.4853606 8.97744,5.21043805 14.50473,5.21043805 z" /><path
         id="path84"
         style="font-style:normal;font-variant:normal;font-weight:800;font-stretch:normal;font-family:Averta;-inkscape-font-specification:'Averta Ultra-Bold'"
         d="m 205.65797,-35.240868 v 17.462009 c 0,5.738523 -2.81645,8.4493585 -6.19619,8.4493585 -3.80222,0 -5.38647,-2.0771345 -5.38647,-7.7804515 V -35.240868 H 182.8095 v 20.912163 c 0,11.1601954 5.31605,15.03281825 12.70924,15.03281825 3.87262,0 7.39319,-1.54904914 9.9632,-4.64714745 h 0.17603 v 3.97823986 h 11.30102 V -35.240868 Z" /></g><g
       style="font-variant:normal;font-weight:600;font-stretch:normal;font-size:13.7336px;font-family:'Averta Semibold';-inkscape-font-specification:Averta-Semibold;writing-mode:lr-tb;fill:#b23030;fill-opacity:1;fill-rule:nonzero;stroke:none"
       id="text56"
       transform="matrix(1,0,0,-1,65.8711,117.2188)"
       aria-label="midwest apida students union"><path
         id="path87"
         style="font-style:normal;font-variant:normal;font-weight:600;font-stretch:normal;font-family:Averta;-inkscape-font-specification:'Averta Semi-Bold'"
         d="m 9.0663217,-6.7930354 c -0.9857614,0 -1.8374055,0.3889399 -2.4006976,1.1131726 h -0.026823 c -0.4023515,-0.757762 -1.0863492,-1.1131726 -1.9916402,-1.1131726 -0.7711738,0 -1.5423476,0.3554106 -2.092228,1.0192906 H 2.5348148 V -6.6991534 H 0.99917302 V 0 H 2.5348148 v -3.3395179 c 0,-1.3143484 0.6974093,-2.0654046 1.6094062,-2.0654046 0.9119968,0 1.334466,0.7041152 1.334466,1.9178757 V 0.00670586 H 7.0143287 V -3.3395179 c 0,-1.3143484 0.6974094,-2.0654046 1.5624652,-2.0654046 0.9119969,0 1.3076426,0.7041152 1.3076426,1.9178757 V 0.00670586 H 11.420078 V -3.8759866 c 0,-1.9983461 -0.878467,-2.9237546 -2.3537563,-2.9237546 z" /><path
         id="path89"
         style="font-style:normal;font-variant:normal;font-weight:600;font-stretch:normal;font-family:Averta;-inkscape-font-specification:'Averta Semi-Bold'"
         d="m 15.01399,-7.6916205 c 0.563292,0 1.032702,-0.4627043 1.032702,-1.0259965 0,-0.5565863 -0.46941,-1.0192906 -1.032702,-1.0192906 -0.58341,0 -1.039408,0.4627043 -1.039408,1.0192906 0,0.5632922 0.455998,1.0259965 1.039408,1.0259965 z M 14.23611,0 h 1.535642 V -6.6924475 H 14.23611 Z" /><path
         id="path91"
         style="font-style:normal;font-variant:normal;font-weight:600;font-stretch:normal;font-family:Averta;-inkscape-font-specification:'Averta Semi-Bold'"
         d="m 23.677531,-10.10573 v 4.2179856 h -0.03353 c -0.502939,-0.5968215 -1.240584,-0.905291 -2.119051,-0.905291 -1.837406,0 -3.225519,1.4551715 -3.225519,3.480341 0,2.0721104 1.388113,3.41998815 3.245636,3.41998815 0.952232,0 1.689877,-0.35541054 2.172699,-0.99917302 h 0.02682 v 0.89858513 h 1.468583 V -10.10573 Z m -1.897759,8.8249109 c -1.13329,0 -1.924581,-0.8382324 -1.924581,-2.0251695 0,-1.287525 0.85835,-2.0922281 1.931287,-2.0922281 1.153408,0 1.951405,0.905291 1.951405,2.0922281 0,1.2137605 -0.865056,2.0251695 -1.958111,2.0251695 z" /><path
         id="path93"
         style="font-style:normal;font-variant:normal;font-weight:600;font-stretch:normal;font-family:Averta;-inkscape-font-specification:'Averta Semi-Bold'"
         d="m 35.745663,-6.6924475 -1.448465,4.4124554 h -0.02012 l -1.314348,-4.4124554 h -1.280819 l -1.294231,4.4057495 h -0.02682 L 28.912393,-6.6924475 H 27.356634 L 29.656743,0 h 1.388113 l 1.253996,-4.2112796 h 0.02682 L 33.579671,0 h 1.421642 l 2.30011,-6.6924475 z" /><path
         id="path95"
         style="font-style:normal;font-variant:normal;font-weight:600;font-stretch:normal;font-family:Averta;-inkscape-font-specification:'Averta Semi-Bold'"
         d="m 45.156989,-3.4266941 c 0,-1.951405 -1.274113,-3.3663413 -3.252342,-3.3663413 -1.864229,0 -3.265753,1.3948187 -3.265753,3.4468117 0,2.092228 1.475289,3.45351745 3.426694,3.45351745 1.314348,0 2.253169,-0.52976288 2.823167,-1.26070155 l -1.072938,-0.9187027 c -0.341999,0.429175 -0.891879,0.7912914 -1.669759,0.7912914 -0.985761,0 -1.709994,-0.5767039 -1.91117,-1.5289359 h 4.881866 c 0.02012,-0.1207055 0.04024,-0.3755281 0.04024,-0.6102332 z m -3.171871,-1.9715226 c 0.878467,0 1.435053,0.5364688 1.636229,1.3478777 h -3.359635 c 0.221293,-0.8717617 0.885173,-1.3478777 1.723406,-1.3478777 z" /><path
         id="path97"
         style="font-style:normal;font-variant:normal;font-weight:600;font-stretch:normal;font-family:Averta;-inkscape-font-specification:'Averta Semi-Bold'"
         d="m 49.708979,0.10729375 c 1.703288,0 2.501285,-0.89858514 2.501285,-2.02516945 0,-1.334466 -0.898585,-1.5892887 -2.320227,-2.1525808 -0.637057,-0.2548227 -1.059526,-0.4895278 -1.059526,-0.8181149 0,-0.4090574 0.429175,-0.5767039 0.730939,-0.5767039 0.523057,0 1.139996,0.2145875 1.683171,0.717527 l 0.771173,-1.2070547 c -0.751056,-0.6035273 -1.52223,-0.8382324 -2.373874,-0.8382324 -1.367995,0 -2.360462,0.8047031 -2.360462,1.8977582 0,1.3143484 0.945526,1.8172878 2.045287,2.1928159 0.878467,0.3017637 1.32776,0.4694102 1.32776,0.8181149 0,0.3889398 -0.348705,0.6571742 -0.93882,0.6571742 -0.824821,0 -1.394819,-0.2615285 -1.931288,-0.7912914 l -0.777879,1.15340776 c 0.710821,0.62364491 1.629523,0.97905545 2.709167,0.97905545 z" /><path
         id="path99"
         style="font-style:normal;font-variant:normal;font-weight:600;font-stretch:normal;font-family:Averta;-inkscape-font-specification:'Averta Semi-Bold'"
         d="m 56.558558,0.10729375 c 0.871762,0 1.294231,-0.1810582 1.696582,-0.38893984 L 57.852789,-1.6094062 c -0.355411,0.187764 -0.730939,0.2883519 -0.992467,0.2883519 -0.429175,0 -0.643763,-0.2481168 -0.643763,-0.9321144 v -3.1316362 h 1.978229 v -1.3076426 h -1.978229 v -2.3939917 l -1.528936,0.1676465 v 2.2263452 h -0.818115 v 1.3076426 h 0.818115 v 3.2724592 c 0,1.49540665 0.710821,2.21963945 1.870935,2.21963945 z" /><path
         id="path101"
         style="font-style:normal;font-variant:normal;font-weight:600;font-stretch:normal;font-family:Averta;-inkscape-font-specification:'Averta Semi-Bold'"
         d="m 69.823713,-6.6924475 v 0.8047031 h -0.03353 c -0.50294,-0.5968215 -1.220467,-0.905291 -2.072111,-0.905291 -1.844111,0 -3.232224,1.4551715 -3.232224,3.480341 0,2.0721104 1.388113,3.41998815 3.245636,3.41998815 0.925408,0 1.642935,-0.35541054 2.139169,-0.99917302 h 0.01341 v 0.89858513 h 1.468583 V -6.6924475 Z m -1.850817,5.4116284 c -1.133291,0 -1.924582,-0.8382324 -1.924582,-2.0251695 0,-1.287525 0.85835,-2.0922281 1.931288,-2.0922281 1.09976,0 1.897758,0.905291 1.897758,2.0922281 0,1.2137605 -0.865056,2.0251695 -1.904464,2.0251695 z" /><path
         id="path103"
         style="font-style:normal;font-variant:normal;font-weight:600;font-stretch:normal;font-family:Averta;-inkscape-font-specification:'Averta Semi-Bold'"
         d="m 77.798373,-6.7930354 c -0.885173,0 -1.616112,0.3151754 -2.125757,0.905291 h -0.02682 v -0.811409 H 74.110151 V 2.715873 h 1.535641 v -3.53398782 h 0.02012 c 0.489528,0.59011561 1.207055,0.92540857 2.119051,0.92540857 1.857523,0 3.245636,-1.35458355 3.245636,-3.41998815 0,-2.0318754 -1.388113,-3.480341 -3.232224,-3.480341 z M 77.54355,-1.287525 c -1.093055,0 -1.95811,-0.8114089 -1.95811,-2.0251694 0,-1.1802313 0.797997,-2.0855223 1.951405,-2.0855223 1.072937,0 1.931287,0.8047031 1.931287,2.0922281 0,1.1869371 -0.791291,2.0184636 -1.924582,2.0184636 z" /><path
         id="path105"
         style="font-style:normal;font-variant:normal;font-weight:600;font-stretch:normal;font-family:Averta;-inkscape-font-specification:'Averta Semi-Bold'"
         d="m 84.341203,-7.6916205 c 0.563292,0 1.032702,-0.4627043 1.032702,-1.0259965 0,-0.5565863 -0.46941,-1.0192906 -1.032702,-1.0192906 -0.58341,0 -1.039408,0.4627043 -1.039408,1.0192906 0,0.5632922 0.455998,1.0259965 1.039408,1.0259965 z M 83.563323,0 h 1.535642 v -6.6924475 h -1.535642 z" /><path
         id="path107"
         style="font-style:normal;font-variant:normal;font-weight:600;font-stretch:normal;font-family:Averta;-inkscape-font-specification:'Averta Semi-Bold'"
         d="m 93.004744,-10.10573 v 4.2179856 h -0.03353 c -0.50294,-0.5968215 -1.240584,-0.905291 -2.119052,-0.905291 -1.837405,0 -3.225518,1.4551715 -3.225518,3.480341 0,2.0721104 1.388113,3.41998815 3.245636,3.41998815 0.952232,0 1.689876,-0.35541054 2.172698,-0.99917302 h 0.02682 v 0.89858513 h 1.468584 V -10.10573 Z m -1.897758,8.8249109 c -1.133291,0 -1.924582,-0.8382324 -1.924582,-2.0251695 0,-1.287525 0.85835,-2.0922281 1.931288,-2.0922281 1.153407,0 1.951405,0.905291 1.951405,2.0922281 0,1.2137605 -0.865056,2.0251695 -1.958111,2.0251695 z" /><path
         id="path109"
         style="font-style:normal;font-variant:normal;font-weight:600;font-stretch:normal;font-family:Averta;-inkscape-font-specification:'Averta Semi-Bold'"
         d="m 102.28994,-6.6924475 v 0.8047031 h -0.0335 c -0.50294,-0.5968215 -1.22046,-0.905291 -2.07211,-0.905291 -1.84411,0 -3.232223,1.4551715 -3.232223,3.480341 0,2.0721104 1.388113,3.41998815 3.245633,3.41998815 0.92541,0 1.64294,-0.35541054 2.13917,-0.99917302 h 0.0134 v 0.89858513 h 1.46859 V -6.6924475 Z m -1.85082,5.4116284 c -1.133286,0 -1.924577,-0.8382324 -1.924577,-2.0251695 0,-1.287525 0.85835,-2.0922281 1.931287,-2.0922281 1.09976,0 1.89776,0.905291 1.89776,2.0922281 0,1.2137605 -0.86506,2.0251695 -1.90447,2.0251695 z" /><path
         id="path111"
         style="font-style:normal;font-variant:normal;font-weight:600;font-stretch:normal;font-family:Averta;-inkscape-font-specification:'Averta Semi-Bold'"
         d="m 113.22688,0.10729375 c 1.70329,0 2.50129,-0.89858514 2.50129,-2.02516945 0,-1.334466 -0.89859,-1.5892887 -2.32023,-2.1525808 -0.63706,-0.2548227 -1.05953,-0.4895278 -1.05953,-0.8181149 0,-0.4090574 0.42918,-0.5767039 0.73094,-0.5767039 0.52306,0 1.14,0.2145875 1.68317,0.717527 l 0.77118,-1.2070547 c -0.75106,-0.6035273 -1.52223,-0.8382324 -2.37388,-0.8382324 -1.36799,0 -2.36046,0.8047031 -2.36046,1.8977582 0,1.3143484 0.94553,1.8172878 2.04529,2.1928159 0.87846,0.3017637 1.32776,0.4694102 1.32776,0.8181149 0,0.3889398 -0.34871,0.6571742 -0.93882,0.6571742 -0.82482,0 -1.39482,-0.2615285 -1.93129,-0.7912914 l -0.77788,1.15340776 c 0.71082,0.62364491 1.62952,0.97905545 2.70917,0.97905545 z" /><path
         id="path113"
         style="font-style:normal;font-variant:normal;font-weight:600;font-stretch:normal;font-family:Averta;-inkscape-font-specification:'Averta Semi-Bold'"
         d="m 120.07646,0.10729375 c 0.87176,0 1.29423,-0.1810582 1.69658,-0.38893984 l -0.40235,-1.32776011 c -0.35541,0.187764 -0.73094,0.2883519 -0.99247,0.2883519 -0.42917,0 -0.64376,-0.2481168 -0.64376,-0.9321144 v -3.1316362 h 1.97823 v -1.3076426 h -1.97823 v -2.3939917 l -1.52893,0.1676465 v 2.2263452 h -0.81812 v 1.3076426 h 0.81812 v 3.2724592 c 0,1.49540665 0.71082,2.21963945 1.87093,2.21963945 z" /><path
         id="path115"
         style="font-style:normal;font-variant:normal;font-weight:600;font-stretch:normal;font-family:Averta;-inkscape-font-specification:'Averta Semi-Bold'"
         d="m 128.37429,-6.6924475 v 3.2054007 c 0,1.4484656 -0.82482,2.1995218 -1.72341,2.1995218 -0.93211,0 -1.33446,-0.4023515 -1.33446,-1.7435234 v -3.6613991 h -1.53565 v 4.0771624 c 0,1.99164019 1.026,2.72257885 2.50129,2.72257885 0.78458,0 1.52894,-0.33529296 2.0654,-0.97234959 h 0.0201 V 0 h 1.53564 v -6.6924475 z" /><path
         id="path117"
         style="font-style:normal;font-variant:normal;font-weight:600;font-stretch:normal;font-family:Averta;-inkscape-font-specification:'Averta Semi-Bold'"
         d="m 137.65267,-10.10573 v 4.2179856 h -0.0335 c -0.50294,-0.5968215 -1.24058,-0.905291 -2.11905,-0.905291 -1.83741,0 -3.22552,1.4551715 -3.22552,3.480341 0,2.0721104 1.38811,3.41998815 3.24564,3.41998815 0.95223,0 1.68987,-0.35541054 2.1727,-0.99917302 h 0.0268 v 0.89858513 h 1.46858 V -10.10573 Z m -1.89776,8.8249109 c -1.13329,0 -1.92458,-0.8382324 -1.92458,-2.0251695 0,-1.287525 0.85835,-2.0922281 1.93129,-2.0922281 1.15341,0 1.9514,0.905291 1.9514,2.0922281 0,1.2137605 -0.86505,2.0251695 -1.95811,2.0251695 z" /><path
         id="path119"
         style="font-style:normal;font-variant:normal;font-weight:600;font-stretch:normal;font-family:Averta;-inkscape-font-specification:'Averta Semi-Bold'"
         d="m 148.13152,-3.4266941 c 0,-1.951405 -1.27412,-3.3663413 -3.25234,-3.3663413 -1.86423,0 -3.26576,1.3948187 -3.26576,3.4468117 0,2.092228 1.47529,3.45351745 3.4267,3.45351745 1.31435,0 2.25317,-0.52976288 2.82316,-1.26070155 l -1.07293,-0.9187027 c -0.342,0.429175 -0.89188,0.7912914 -1.66976,0.7912914 -0.98576,0 -1.71,-0.5767039 -1.91117,-1.5289359 h 4.88186 c 0.0201,-0.1207055 0.0402,-0.3755281 0.0402,-0.6102332 z m -3.17187,-1.9715226 c 0.87846,0 1.43505,0.5364688 1.63623,1.3478777 h -3.35964 c 0.22129,-0.8717617 0.88517,-1.3478777 1.72341,-1.3478777 z" /><path
         id="path121"
         style="font-style:normal;font-variant:normal;font-weight:600;font-stretch:normal;font-family:Averta;-inkscape-font-specification:'Averta Semi-Bold'"
         d="m 154.33986,-6.7930354 c -0.86506,0 -1.67647,0.3554106 -2.24647,1.0192906 h -0.0201 v -0.9187027 h -1.53564 V 0 h 1.53564 v -3.3596355 c 0,-1.3143484 0.69741,-2.0385812 1.73682,-2.0385812 0.92541,0 1.45517,0.4425867 1.45517,1.857523 v 3.55410542 h 1.53565 V -3.9363394 c 0,-2.0117577 -0.99247,-2.856696 -2.46105,-2.856696 z" /><path
         id="path123"
         style="font-style:normal;font-variant:normal;font-weight:600;font-stretch:normal;font-family:Averta;-inkscape-font-specification:'Averta Semi-Bold'"
         d="m 161.51073,0.10729375 c 0.87176,0 1.29423,-0.1810582 1.69659,-0.38893984 l -0.40236,-1.32776011 c -0.35541,0.187764 -0.73093,0.2883519 -0.99246,0.2883519 -0.42918,0 -0.64377,-0.2481168 -0.64377,-0.9321144 v -3.1316362 h 1.97823 v -1.3076426 h -1.97823 v -2.3939917 l -1.52893,0.1676465 v 2.2263452 h -0.81812 v 1.3076426 h 0.81812 v 3.2724592 c 0,1.49540665 0.71082,2.21963945 1.87093,2.21963945 z" /><path
         id="path125"
         style="font-style:normal;font-variant:normal;font-weight:600;font-stretch:normal;font-family:Averta;-inkscape-font-specification:'Averta Semi-Bold'"
         d="m 167.52953,0.10729375 c 1.70329,0 2.50129,-0.89858514 2.50129,-2.02516945 0,-1.334466 -0.89859,-1.5892887 -2.32023,-2.1525808 -0.63706,-0.2548227 -1.05953,-0.4895278 -1.05953,-0.8181149 0,-0.4090574 0.42918,-0.5767039 0.73094,-0.5767039 0.52306,0 1.14,0.2145875 1.68317,0.717527 l 0.77118,-1.2070547 c -0.75106,-0.6035273 -1.52223,-0.8382324 -2.37388,-0.8382324 -1.36799,0 -2.36046,0.8047031 -2.36046,1.8977582 0,1.3143484 0.94553,1.8172878 2.04529,2.1928159 0.87847,0.3017637 1.32776,0.4694102 1.32776,0.8181149 0,0.3889398 -0.34871,0.6571742 -0.93882,0.6571742 -0.82482,0 -1.39482,-0.2615285 -1.93129,-0.7912914 l -0.77788,1.15340776 c 0.71082,0.62364491 1.62952,0.97905545 2.70917,0.97905545 z" /><path
         id="path127"
         style="font-style:normal;font-variant:normal;font-weight:600;font-stretch:normal;font-family:Averta;-inkscape-font-specification:'Averta Semi-Bold'"
         d="m 181.34478,-6.6924475 v 3.2054007 c 0,1.4484656 -0.82482,2.1995218 -1.7234,2.1995218 -0.93212,0 -1.33447,-0.4023515 -1.33447,-1.7435234 v -3.6613991 h -1.53564 v 4.0771624 c 0,1.99164019 1.026,2.72257885 2.50129,2.72257885 0.78458,0 1.52893,-0.33529296 2.0654,-0.97234959 h 0.0201 V 0 h 1.53564 v -6.6924475 z" /><path
         id="path129"
         style="font-style:normal;font-variant:normal;font-weight:600;font-stretch:normal;font-family:Averta;-inkscape-font-specification:'Averta Semi-Bold'"
         d="m 189.44294,-6.7930354 c -0.86505,0 -1.67646,0.3554106 -2.24646,1.0192906 h -0.0201 v -0.9187027 h -1.53564 V 0 h 1.53564 v -3.3596355 c 0,-1.3143484 0.69741,-2.0385812 1.73682,-2.0385812 0.92541,0 1.45517,0.4425867 1.45517,1.857523 v 3.55410542 h 1.53564 V -3.9363394 c 0,-2.0117577 -0.99246,-2.856696 -2.46105,-2.856696 z" /><path
         id="path131"
         style="font-style:normal;font-variant:normal;font-weight:600;font-stretch:normal;font-family:Averta;-inkscape-font-specification:'Averta Semi-Bold'"
         d="m 195.48722,-7.6916205 c 0.56329,0 1.0327,-0.4627043 1.0327,-1.0259965 0,-0.5565863 -0.46941,-1.0192906 -1.0327,-1.0192906 -0.58341,0 -1.03941,0.4627043 -1.03941,1.0192906 0,0.5632922 0.456,1.0259965 1.03941,1.0259965 z M 194.70934,0 h 1.53564 v -6.6924475 h -1.53564 z" /><path
         id="path133"
         style="font-style:normal;font-variant:normal;font-weight:600;font-stretch:normal;font-family:Averta;-inkscape-font-specification:'Averta Semi-Bold'"
         d="m 202.29324,0.10729375 c 2.05199,0 3.51387,-1.40152455 3.51387,-3.44010575 0,-2.0519929 -1.46188,-3.4602234 -3.51387,-3.4602234 -2.11905,0 -3.52058,1.4819949 -3.52058,3.4602234 0,1.9648167 1.40153,3.44010575 3.52058,3.44010575 z m 0,-1.38811285 c -1.15341,0 -1.95141,-0.905291 -1.95141,-2.0519929 0,-1.1668195 0.78459,-2.0654047 1.95812,-2.0654047 1.09976,0 1.9514,0.8382324 1.9514,2.0654047 0,1.2070546 -0.86506,2.0519929 -1.9514,2.0519929 z" /><path
         id="path135"
         style="font-style:normal;font-variant:normal;font-weight:600;font-stretch:normal;font-family:Averta;-inkscape-font-specification:'Averta Semi-Bold'"
         d="m 212.03471,-6.7930354 c -0.86506,0 -1.67646,0.3554106 -2.24646,1.0192906 h -0.0201 v -0.9187027 h -1.53564 V 0 h 1.53564 v -3.3596355 c 0,-1.3143484 0.69741,-2.0385812 1.73682,-2.0385812 0.92541,0 1.45517,0.4425867 1.45517,1.857523 v 3.55410542 h 1.53564 V -3.9363394 c 0,-2.0117577 -0.99247,-2.856696 -2.46105,-2.856696 z" /></g></g></svg>
