<?xml version="1.0" encoding="UTF-8" standalone="no"?>
<svg
   version="1.1"
   id="svg80"
   xml:space="preserve"
   width="368.84958"
   height="79.767784"
   viewBox="0 0 368.84958 79.767784"
   sodipodi:docname="logo.svg"
   inkscape:version="1.1-dev (7033a0310e, 2020-08-01, custom)"
   xmlns:inkscape="http://www.inkscape.org/namespaces/inkscape"
   xmlns:sodipodi="http://sodipodi.sourceforge.net/DTD/sodipodi-0.dtd"
   xmlns="http://www.w3.org/2000/svg"
   xmlns:svg="http://www.w3.org/2000/svg"><defs
     id="defs84" /><sodipodi:namedview
     pagecolor="#ffffff"
     bordercolor="#666666"
     borderopacity="1"
     objecttolerance="10"
     gridtolerance="10"
     guidetolerance="10"
     inkscape:pageopacity="0"
     inkscape:pageshadow="2"
     inkscape:window-width="1900"
     inkscape:window-height="1020"
     id="namedview82"
     showgrid="false"
     fit-margin-top="0"
     fit-margin-left="0"
     fit-margin-right="0"
     fit-margin-bottom="0"
     inkscape:zoom="3.4335224"
     inkscape:cx="192.95054"
     inkscape:cy="44.851899"
     inkscape:window-x="5"
     inkscape:window-y="52"
     inkscape:window-maximized="0"
     inkscape:current-layer="text96" /><g
     id="g86"
     inkscape:groupmode="layer"
     inkscape:label="ink_ext_XXXXXX"
     transform="matrix(1.3333333,0,0,-1.3333333,-2.7255349e-4,79.767379)"><path
       d="m 47.8977,58.6508 c -1.9911,0.8765 -5.1629,1.7359 -8.7747,0.7027 -5.6687,-1.6195 -7.9296,-6.607 -8.5769,-8.0375 -1.0203,-2.2515 -1.6063,-5.0086 -1.6184,-7.457 -0.0129,-0.0465 -0.0222,-0.0957 -0.03,-0.1457 -0.5774,-3.9867 -1.5618,-7.9043 -2.9368,-11.6906 -0.6203,-1.7079 -1.3199,-3.386 -2.0941,-5.0286 -0.9566,-1.7121 -2.2832,-3.1894 -3.884,-4.323 -1.0031,-0.7063 -3.3672,-2.3215 -6.7605,-2.3125 -0.9914,0.0066 -4.37621,0.0684 -7.07425,2.6719 -1.88633,1.8172 -3.31758,4.7593 -2.88008,7.5933 -0.00274,0.0403 0.00703,0.0625 0.01367,0.0813 0.49805,3.0484 2.82227,6.8484 6.86216,7.8554 3.5921,0.8922 7.43,-1.2152 8.1925,-4.4964 0.675,-2.927 -1.1898,-6.1278 -4.0144,-6.902 -0.791,-0.2058 -1.6239,-0.2043 -2.4137,0.0109 -0.6019,0.1747 -1.1547,0.4903 -1.6133,0.9176 -0.45349,0.3996 -0.78592,0.9192 -0.96052,1.5 -0.17032,0.5305 -0.16524,1.1035 0.01523,1.6324 0.17695,0.4415 0.46328,0.8262 0.83439,1.1223 0.3176,0.3457 0.7379,0.5777 1.1988,0.6637 0.3637,0.0422 0.9438,-0.0164 1.0277,-0.2789 0.134,-0.3738 -0.8875,-0.691 -0.9132,-1.3918 -0.0188,-0.5309 0.5394,-1.0363 1.0574,-1.2133 0.8398,-0.2906 1.5832,0.268 1.809,0.4371 0.3629,0.2692 0.6465,0.6305 0.8222,1.0469 0.2614,0.5144 0.3446,1.1043 0.236,1.6715 -0.1836,0.6808 -0.609,1.2715 -1.1969,1.6605 -0.4246,0.3242 -0.916,0.5516 -1.4375,0.6668 -1.1051,0.2871 -2.273,0.2043 -3.32656,-0.2363 C 7.58828,34.527 6.90391,32.7496 6.73867,32.3063 6.28008,31.0313 6.26367,29.6395 6.6918,28.3547 c 0.6914,-2.4336 2.79648,-4.2004 5.3121,-4.4602 3.8926,-0.5332 6.9133,2.3821 7.1332,2.6016 0.2223,0.2207 3.3606,3.4453 2.5902,7.9785 -0.596,3.9078 -3.7804,6.9031 -7.7168,7.2625 L 13.8363,41.759 C 12.573,41.9199 9.04609,42.0133 5.9918,40.2898 0.718359,37.3246 0.053125,30.8113 0.0308594,30.5414 -0.0199219,29.9402 -0.408203,24.3176 3.94922,20.1711 8.20977,16.1277 13.6508,16.6973 15.2113,16.8652 c 2.2528,0.2411 4.6934,1.0118 6.7149,2.0852 0.0902,0.0164 0.1785,0.0391 0.2633,0.0723 6.257,2.323 12.8304,3.6863 19.4957,4.041 0.5414,-0.091 1.0765,-0.2141 1.6031,-0.3723 1.1734,-0.3516 3.9031,-1.2156 5.9867,-3.8894 0.6234,-0.7922 2.6496,-3.4895 2.2645,-7.218 C 51.2703,8.97852 49.8379,6.03828 47.3375,4.63164 L 47.2641,4.59375 C 44.5586,3.10469 40.1309,2.58984 36.8523,5.14922 c -2.9199,2.27539 -3.6312,6.59808 -1.514,9.22188 1.8836,2.3367 5.5547,2.843 7.9066,1.0969 0.6496,-0.4953 1.1614,-1.1535 1.4821,-1.9055 0.2285,-0.5781 0.3195,-1.202 0.2656,-1.8203 -0.036,-0.6043 -0.2403,-1.1887 -0.5879,-1.6848 -0.3125,-0.46443 -0.766,-0.81521 -1.293,-1.00271 -0.4547,-0.1336 -0.934,-0.14649 -1.3953,-0.03711 -0.4687,0.03203 -0.9137,0.21875 -1.266,0.52851 -0.2629,0.24883 -0.5695,0.74881 -0.4137,0.97731 0.2168,0.3223 1.0942,-0.2851 1.6625,0.1282 0.4379,0.3062 0.4824,1.0593 0.3028,1.5757 -0.2868,0.8286 -1.1895,1.0832 -1.4606,1.1594 -1.007,0.2434 -2.0684,-0.0769 -2.7746,-0.8387 -0.425,-0.5617 -0.6262,-1.2628 -0.5664,-1.966 0.0027,-0.5324 0.1238,-1.05778 0.3547,-1.53825 0.4543,-1.04766 1.2394,-1.91758 2.2383,-2.47344 1.8183,-0.95312 3.6398,-0.39726 4.089,-0.2539 1.2864,0.42695 2.3926,1.27265 3.1414,2.40234 1.4875,2.04575 1.5785,4.79105 0.2321,6.93165 -1.9954,3.3918 -6.1664,3.9641 -6.4762,4.0039 C 40.4703,19.6934 35.9988,20.1633 32.9,16.7734 30.2047,13.8926 29.8152,9.54883 31.9563,6.23438 l 0.0867,-0.1504 c 0.6582,-1.0996 2.7656,-3.93476 6.0191,-5.291011 5.5883,-2.319529 11.1231,1.171091 11.3488,1.320311 0.5071,0.33086 5.175,3.4961 5.7496,9.48122 0.5637,5.8723 -3.2585,9.795 -4.3539,10.9172 -1.0593,1.0918 -2.3593,2.0969 -3.732,2.9246 -0.0238,0.0246 -0.0508,0.0481 -0.0769,0.0703 -3.093,2.5832 -5.9539,5.4344 -8.5473,8.5188 -1.1531,1.3723 -2.2535,2.7887 -3.2961,4.2457 -1.1477,1.7914 -1.8422,3.834 -2.0254,5.9519 -0.0984,1.2227 -0.2914,4.0782 1.4375,6.9954 0.5074,0.8562 2.2797,3.739 5.8926,4.7429 2.5258,0.7032 5.7851,0.4407 8.0051,-1.3738 l 0.0664,-0.0277 c 2.3679,-1.986 4.4617,-5.9176 3.2879,-9.9051 C 50.7637,41.1086 47,38.8715 43.7852,39.8805 c -2.8668,0.8961 -4.6766,4.13 -3.9118,6.9547 0.2243,0.7878 0.6493,1.5031 1.2325,2.0773 0.4543,0.4281 1.0027,0.7457 1.6011,0.925 0.5743,0.1867 1.1907,0.2105 1.7778,0.0664 0.5468,-0.1187 1.0418,-0.4129 1.407,-0.8363 0.2906,-0.3738 0.4773,-0.8164 0.5441,-1.2856 0.1364,-0.4554 0.1172,-0.9441 -0.0531,-1.3875 -0.1473,-0.3347 -0.491,-0.8031 -0.7594,-0.7445 -0.3812,0.0855 -0.1363,1.1238 -0.7265,1.5039 -0.4473,0.2852 -1.1656,0.0602 -1.5793,-0.2949 -0.6637,-0.5625 -0.5703,-1.4934 -0.5403,-1.7711 0.0512,-0.4457 0.2184,-0.8707 0.484,-1.2324 0.311,-0.4871 0.7754,-0.8559 1.3207,-1.052 0.6797,-0.1879 1.4043,-0.1187 2.0387,0.1903 0.4961,0.2 0.9406,0.5078 1.3035,0.9011 0.8098,0.8039 1.3317,1.8516 1.484,2.9824 0.2234,2.043 -0.9625,3.5364 -1.2582,3.902 -0.8652,1.0422 -2.0566,1.7633 -3.382,2.0469 -2.4473,0.6386 -5.0383,-0.2789 -6.5383,-2.318 -2.4289,-3.0937 -1.4317,-7.1863 -1.3613,-7.4883 0.0695,-0.3015 1.2554,-4.6336 5.557,-6.2851 3.6644,-1.4594 7.8519,-0.2352 10.157,2.9664 0.0207,0.0261 0.0563,0.0738 0.1067,0.139 0.7879,1.0254 2.6582,4.0098 2.7281,7.5344 0.1199,6.05 -5.1512,9.9266 -5.3746,10.084 -0.1836,0.1328 -0.9512,0.666 -2.1449,1.1922"
       style="fill:#b1252e;fill-opacity:1;fill-rule:nonzero;stroke:none;stroke-width:0.1"
       id="path90" /><g
       aria-label="maasu"
       transform="scale(1,-1)"
       id="text96"
       style="font-variant:normal;font-weight:800;font-size:72.1012px;font-family:Averta;-inkscape-font-specification:Averta-ExtraBold;writing-mode:lr-tb;fill:#b1252e;fill-opacity:1;fill-rule:nonzero;stroke:none"><path
         d="m 107.53985,-56.429735 c -5.17523,0 -9.646347,2.041928 -12.603623,5.84414 h -0.140822 c -2.11234,-3.97824 -5.703317,-5.84414 -10.456082,-5.84414 -4.048651,0 -8.097302,1.8659 -10.984167,5.35126 h -0.105617 v -4.858381 h -8.062096 v 35.170457 h 8.062096 v -17.53242 c 0,-6.90031 3.661389,-10.843344 8.449359,-10.843344 4.787971,0 7.005927,3.696594 7.005927,10.068819 v 18.34215 h 8.062097 v -17.567625 c 0,-6.90031 3.661388,-10.843344 8.202918,-10.843344 4.78797,0 6.86511,3.696594 6.86511,10.068819 v 18.34215 h 8.06209 v -20.384078 c 0,-10.491288 -4.61194,-15.349669 -12.35719,-15.349669 z"
         id="path70" /><path
         d="m 154.04485,-55.90165 v 4.224679 h -0.17603 c -2.64042,-3.133304 -6.40743,-4.752764 -10.87855,-4.752764 -9.68155,0 -16.96913,7.639628 -16.96913,18.271738 0,10.87855 7.28758,17.954888 17.03955,17.954888 4.85838,0 8.62538,-1.8659 11.2306,-5.245643 h 0.0704 v 4.717558 h 7.71004 V -55.90165 Z m -9.71676,28.410969 c -5.94976,0 -10.10403,-4.400708 -10.10403,-10.63211 0,-6.759487 4.50633,-10.984166 10.13923,-10.984166 5.77373,0 9.96321,4.752764 9.96321,10.984166 0,6.372225 -4.54153,10.63211 -9.99841,10.63211 z"
         id="path72" /><path
         d="m 196.65665,-55.90165 v 4.224679 h -0.17603 c -2.64042,-3.133304 -6.40743,-4.752764 -10.87855,-4.752764 -9.68155,0 -16.96912,7.639628 -16.96912,18.271738 0,10.87855 7.28757,17.954888 17.03954,17.954888 4.85838,0 8.62538,-1.8659 11.2306,-5.245643 h 0.0704 v 4.717558 h 7.71004 V -55.90165 Z m -9.71676,28.410969 c -5.94976,0 -10.10402,-4.400708 -10.10402,-10.63211 0,-6.759487 4.50632,-10.984166 10.13923,-10.984166 5.77372,0 9.9632,4.752764 9.9632,10.984166 0,6.372225 -4.54153,10.63211 -9.99841,10.63211 z"
         id="path74" /><path
         d="m 224.65888,-20.203109 c 8.94224,0 13.13171,-4.717559 13.13171,-10.63211 0,-7.005927 -4.71755,-8.343742 -12.18115,-11.301017 -3.34454,-1.337816 -5.5625,-2.570014 -5.5625,-4.295091 0,-2.147546 2.25316,-3.027687 3.83742,-3.027687 2.74604,0 5.98496,1.126581 8.83662,3.767006 l 4.04865,-6.337019 c -3.94303,-3.16851 -7.99169,-4.400708 -12.4628,-4.400708 -7.18196,0 -12.3924,4.224679 -12.3924,9.963202 0,6.90031 4.964,9.540735 10.73773,11.512252 4.61194,1.584255 6.97072,2.464396 6.97072,4.295091 0,2.041928 -1.83069,3.450154 -4.92879,3.450154 -4.3303,0 -7.32278,-1.37302 -10.13923,-4.154268 l -4.08386,6.055374 c 3.7318,3.274127 8.55498,5.140027 14.22309,5.140027 z"
         id="path76" /><path
         d="m 268.27615,-55.90165 v 16.828306 c 0,7.604423 -4.33029,11.547457 -9.04785,11.547457 -4.89359,0 -7.00593,-2.112339 -7.00593,-9.153472 V -55.90165 h -8.0621 v 21.405042 c 0,10.456082 5.38647,14.293499 13.13172,14.293499 4.11906,0 8.02689,-1.760283 10.84334,-5.104821 h 0.10562 v 4.541531 h 8.06209 V -55.90165 Z"
         id="path78" /></g><g
       aria-label="midwest apida students union"
       transform="scale(1,-1)"
       id="text100"
       style="font-variant:normal;font-weight:600;font-size:13.7336px;font-family:Averta;-inkscape-font-specification:Averta-Semibold;writing-mode:lr-tb;fill:#b1252e;fill-opacity:1;fill-rule:nonzero;stroke:none"><path
         d="m 71.172183,-10.711035 c -0.985761,0 -1.837405,0.388939 -2.400697,1.1131723 h -0.02682 c -0.402351,-0.7577623 -1.086349,-1.1131723 -1.99164,-1.1131723 -0.771174,0 -1.542348,0.35541 -2.092228,1.0192902 h -0.02012 V -10.617153 H 63.105035 V -3.918 h 1.535641 v -3.3395179 c 0,-1.3143484 0.69741,-2.0654046 1.609407,-2.0654046 0.911997,0 1.334466,0.7041152 1.334466,1.9178757 v 3.4937527 h 1.535641 v -3.3462238 c 0,-1.3143484 0.69741,-2.0654046 1.562466,-2.0654046 0.911996,0 1.307642,0.7041152 1.307642,1.9178757 v 3.4937527 h 1.535642 v -3.8826925 c 0,-1.9983461 -0.878468,-2.9237544 -2.353757,-2.9237544 z"
         id="path81" /><path
         d="m 77.119775,-11.60962 c 0.563292,0 1.032702,-0.462705 1.032702,-1.025997 0,-0.556586 -0.46941,-1.019291 -1.032702,-1.019291 -0.58341,0 -1.039408,0.462705 -1.039408,1.019291 0,0.563292 0.455998,1.025997 1.039408,1.025997 z m -0.77788,7.69162 h 1.535642 v -6.692447 h -1.535642 z"
         id="path83" /><path
         d="m 85.783217,-14.02373 v 4.2179856 h -0.03353 c -0.502939,-0.5968216 -1.240583,-0.9052906 -2.119051,-0.9052906 -1.837405,0 -3.225518,1.4551711 -3.225518,3.4803406 0,2.0721105 1.388113,3.4199882 3.245636,3.4199882 0.952232,0 1.689876,-0.3554106 2.172698,-0.9991731 h 0.02682 v 0.8985852 h 1.468584 V -14.02373 Z m -1.897758,8.8249109 c -1.133291,0 -1.924582,-0.8382324 -1.924582,-2.0251695 0,-1.2875249 0.85835,-2.092228 1.931287,-2.092228 1.153408,0 1.951405,0.9052909 1.951405,2.092228 0,1.2137605 -0.865055,2.0251695 -1.95811,2.0251695 z"
         id="path85" /><path
         d="m 97.851231,-10.610447 -1.448465,4.4124549 h -0.02012 L 95.0683,-10.610447 h -1.280819 l -1.294231,4.405749 h -0.02682 l -1.448465,-4.405749 h -1.55576 l 2.30011,6.692447 h 1.388113 l 1.253996,-4.2112796 h 0.02682 L 95.685239,-3.918 h 1.421642 l 2.30011,-6.692447 z"
         id="path87" /><path
         d="m 107.26591,-7.344694 c 0,-1.9514051 -1.27411,-3.366341 -3.25234,-3.366341 -1.86423,0 -3.26576,1.3948184 -3.26576,3.4468113 0,2.092228 1.47529,3.4535175 3.4267,3.4535175 1.31435,0 2.25317,-0.5297629 2.82317,-1.2607016 l -1.07294,-0.9187027 c -0.342,0.429175 -0.89188,0.7912914 -1.66976,0.7912914 -0.98576,0 -1.70999,-0.5767039 -1.91117,-1.5289359 h 4.88186 c 0.0201,-0.1207055 0.0402,-0.3755281 0.0402,-0.6102332 z m -3.17187,-1.9715226 c 0.87847,0 1.43505,0.5364687 1.63623,1.3478777 h -3.35964 c 0.2213,-0.8717617 0.88518,-1.3478777 1.72341,-1.3478777 z"
         id="path89" /><path
         d="m 111.83152,-3.8107062 c 1.70329,0 2.50128,-0.8985852 2.50128,-2.0251695 0,-1.334466 -0.89858,-1.5892886 -2.32022,-2.1525808 -0.63706,-0.2548227 -1.05953,-0.4895277 -1.05953,-0.8181148 0,-0.4090575 0.42918,-0.5767039 0.73094,-0.5767039 0.52306,0 1.14,0.2145875 1.68317,0.7175269 l 0.77117,-1.2070547 c -0.75105,-0.603527 -1.52223,-0.838232 -2.37387,-0.838232 -1.368,0 -2.36046,0.8047027 -2.36046,1.8977578 0,1.3143484 0.94552,1.8172878 2.04528,2.192816 0.87847,0.3017636 1.32776,0.4694101 1.32776,0.8181148 0,0.3889398 -0.3487,0.6571742 -0.93882,0.6571742 -0.82482,0 -1.39481,-0.2615285 -1.93128,-0.7912914 l -0.77788,1.1534078 c 0.71082,0.6236449 1.62952,0.9790554 2.70916,0.9790554 z"
         id="path91" /><path
         d="m 118.68073,-3.8107062 c 0.87176,0 1.29423,-0.1810582 1.69658,-0.3889399 l -0.40235,-1.3277601 c -0.35541,0.1877641 -0.73094,0.288352 -0.99246,0.288352 -0.42918,0 -0.64377,-0.2481168 -0.64377,-0.9321145 v -3.1316362 h 1.97823 v -1.3076421 h -1.97823 v -2.393992 l -1.52893,0.167646 v 2.226346 h -0.81812 v 1.3076421 h 0.81812 v 3.2724593 c 0,1.4954066 0.71082,2.2196394 1.87093,2.2196394 z"
         id="path93" /><path
         d="m 131.9458,-10.610447 v 0.8047026 h -0.0335 c -0.50294,-0.5968216 -1.22046,-0.9052906 -2.07211,-0.9052906 -1.84411,0 -3.23222,1.4551711 -3.23222,3.4803406 0,2.0721105 1.38811,3.4199882 3.24563,3.4199882 0.92541,0 1.64294,-0.3554106 2.13917,-0.9991731 h 0.0134 v 0.8985852 h 1.46859 v -6.6991529 z m -1.85081,5.4116279 c -1.1333,0 -1.92459,-0.8382324 -1.92459,-2.0251695 0,-1.2875249 0.85835,-2.092228 1.93129,-2.092228 1.09976,0 1.89776,0.9052909 1.89776,2.092228 0,1.2137605 -0.86506,2.0251695 -1.90446,2.0251695 z"
         id="path95" /><path
         d="m 139.92047,-10.711035 c -0.88518,0 -1.61612,0.315175 -2.12576,0.9052906 h -0.0268 v -0.8114086 h -1.53565 v 9.415026 h 1.53565 v -3.5339878 h 0.0201 c 0.48953,0.5901156 1.20706,0.9254086 2.11905,0.9254086 1.85753,0 3.24564,-1.3545836 3.24564,-3.4199882 0,-2.0318754 -1.38811,-3.4803406 -3.23222,-3.4803406 z m -0.25483,5.50551 c -1.09305,0 -1.95811,-0.8114089 -1.95811,-2.0251694 0,-1.1802313 0.798,-2.0855222 1.95141,-2.0855222 1.07294,0 1.93129,0.8047031 1.93129,2.092228 0,1.1869371 -0.7913,2.0184636 -1.92459,2.0184636 z"
         id="path97" /><path
         d="m 146.46378,-11.60962 c 0.5633,0 1.03271,-0.462705 1.03271,-1.025997 0,-0.556586 -0.46941,-1.019291 -1.03271,-1.019291 -0.58341,0 -1.0394,0.462705 -1.0394,1.019291 0,0.563292 0.45599,1.025997 1.0394,1.025997 z M 145.6859,-3.918 h 1.53565 v -6.692447 h -1.53565 z"
         id="path99" /><path
         d="m 155.12676,-14.02373 v 4.2179856 h -0.0335 c -0.50294,-0.5968216 -1.24058,-0.9052906 -2.11905,-0.9052906 -1.83741,0 -3.22552,1.4551711 -3.22552,3.4803406 0,2.0721105 1.38811,3.4199882 3.24564,3.4199882 0.95223,0 1.68987,-0.3554106 2.1727,-0.9991731 h 0.0268 v 0.8985852 h 1.46858 V -14.02373 Z m -1.89776,8.8249109 c -1.13329,0 -1.92458,-0.8382324 -1.92458,-2.0251695 0,-1.2875249 0.85835,-2.092228 1.93129,-2.092228 1.15341,0 1.9514,0.9052909 1.9514,2.092228 0,1.2137605 -0.86505,2.0251695 -1.95811,2.0251695 z"
         id="path101" /><path
         d="m 164.41233,-10.610447 v 0.8047026 h -0.0335 c -0.50294,-0.5968216 -1.22046,-0.9052906 -2.07211,-0.9052906 -1.84411,0 -3.23222,1.4551711 -3.23222,3.4803406 0,2.0721105 1.38811,3.4199882 3.24563,3.4199882 0.92541,0 1.64294,-0.3554106 2.13917,-0.9991731 h 0.0134 v 0.8985852 h 1.46859 v -6.6991529 z m -1.85082,5.4116279 c -1.13329,0 -1.92458,-0.8382324 -1.92458,-2.0251695 0,-1.2875249 0.85835,-2.092228 1.93129,-2.092228 1.09976,0 1.89776,0.9052909 1.89776,2.092228 0,1.2137605 -0.86506,2.0251695 -1.90447,2.0251695 z"
         id="path103" /><path
         d="m 175.34945,-3.8107062 c 1.70329,0 2.50128,-0.8985852 2.50128,-2.0251695 0,-1.334466 -0.89858,-1.5892886 -2.32022,-2.1525808 -0.63706,-0.2548227 -1.05953,-0.4895277 -1.05953,-0.8181148 0,-0.4090575 0.42917,-0.5767039 0.73094,-0.5767039 0.52306,0 1.13999,0.2145875 1.68317,0.7175269 l 0.77117,-1.2070547 c -0.75105,-0.603527 -1.52223,-0.838232 -2.37387,-0.838232 -1.368,0 -2.36046,0.8047027 -2.36046,1.8977578 0,1.3143484 0.94552,1.8172878 2.04528,2.192816 0.87847,0.3017636 1.32776,0.4694101 1.32776,0.8181148 0,0.3889398 -0.3487,0.6571742 -0.93882,0.6571742 -0.82482,0 -1.39482,-0.2615285 -1.93128,-0.7912914 l -0.77788,1.1534078 c 0.71082,0.6236449 1.62952,0.9790554 2.70916,0.9790554 z"
         id="path105" /><path
         d="m 182.19866,-3.8107062 c 0.87176,0 1.29423,-0.1810582 1.69658,-0.3889399 l -0.40235,-1.3277601 c -0.35541,0.1877641 -0.73094,0.288352 -0.99247,0.288352 -0.42917,0 -0.64376,-0.2481168 -0.64376,-0.9321145 v -3.1316362 h 1.97823 v -1.3076421 h -1.97823 v -2.393992 l -1.52893,0.167646 v 2.226346 h -0.81812 v 1.3076421 h 0.81812 v 3.2724593 c 0,1.4954066 0.71082,2.2196394 1.87093,2.2196394 z"
         id="path107" /><path
         d="m 190.4962,-10.610447 v 3.2054002 c 0,1.4484656 -0.82482,2.1995218 -1.72341,2.1995218 -0.93211,0 -1.33446,-0.4023515 -1.33446,-1.7435233 v -3.6613987 h -1.53565 v 4.0771619 c 0,1.9916402 1.026,2.7225789 2.50129,2.7225789 0.78459,0 1.52894,-0.335293 2.0654,-0.9723496 h 0.0201 V -3.918 h 1.53564 v -6.692447 z"
         id="path109" /><path
         d="m 199.77437,-14.02373 v 4.2179856 h -0.0335 c -0.50293,-0.5968216 -1.24058,-0.9052906 -2.11905,-0.9052906 -1.8374,0 -3.22551,1.4551711 -3.22551,3.4803406 0,2.0721105 1.38811,3.4199882 3.24563,3.4199882 0.95223,0 1.68988,-0.3554106 2.1727,-0.9991731 h 0.0268 v 0.8985852 h 1.46859 V -14.02373 Z m -1.89775,8.8249109 c -1.13329,0 -1.92459,-0.8382324 -1.92459,-2.0251695 0,-1.2875249 0.85835,-2.092228 1.93129,-2.092228 1.15341,0 1.95141,0.9052909 1.95141,2.092228 0,1.2137605 -0.86506,2.0251695 -1.95811,2.0251695 z"
         id="path111" /><path
         d="m 210.2536,-7.344694 c 0,-1.9514051 -1.27411,-3.366341 -3.25234,-3.366341 -1.86423,0 -3.26575,1.3948184 -3.26575,3.4468113 0,2.092228 1.47529,3.4535175 3.42669,3.4535175 1.31435,0 2.25317,-0.5297629 2.82317,-1.2607016 l -1.07294,-0.9187027 c -0.342,0.429175 -0.89188,0.7912914 -1.66976,0.7912914 -0.98576,0 -1.70999,-0.5767039 -1.91117,-1.5289359 h 4.88187 c 0.0201,-0.1207055 0.0402,-0.3755281 0.0402,-0.6102332 z m -3.17187,-1.9715226 c 0.87847,0 1.43506,0.5364687 1.63623,1.3478777 h -3.35963 c 0.22129,-0.8717617 0.88517,-1.3478777 1.7234,-1.3478777 z"
         id="path113" /><path
         d="m 216.47506,-10.711035 c -0.86505,0 -1.67646,0.35541 -2.24646,1.0192902 h -0.0201 v -0.9187022 h -1.53564 V -3.918 h 1.53564 v -3.3596354 c 0,-1.3143485 0.69741,-2.0385812 1.73682,-2.0385812 0.92541,0 1.45517,0.4425867 1.45517,1.857523 v 3.5541053 h 1.53564 v -3.949751 c 0,-2.0117578 -0.99246,-2.8566957 -2.46105,-2.8566957 z"
         id="path115" /><path
         d="m 223.646,-3.8107062 c 0.87176,0 1.29423,-0.1810582 1.69658,-0.3889399 l -0.40235,-1.3277601 c -0.35541,0.1877641 -0.73094,0.288352 -0.99246,0.288352 -0.42918,0 -0.64377,-0.2481168 -0.64377,-0.9321145 v -3.1316362 h 1.97823 V -10.610447 H 223.304 v -2.393992 l -1.52893,0.167646 v 2.226346 h -0.81812 v 1.3076421 h 0.81812 v 3.2724593 c 0,1.4954066 0.71082,2.2196394 1.87093,2.2196394 z"
         id="path117" /><path
         d="m 229.67116,-3.8107062 c 1.70329,0 2.50129,-0.8985852 2.50129,-2.0251695 0,-1.334466 -0.89859,-1.5892886 -2.32023,-2.1525808 -0.63705,-0.2548227 -1.05952,-0.4895277 -1.05952,-0.8181148 0,-0.4090575 0.42917,-0.5767039 0.73093,-0.5767039 0.52306,0 1.14,0.2145875 1.68318,0.7175269 l 0.77117,-1.2070547 c -0.75106,-0.603527 -1.52223,-0.838232 -2.37387,-0.838232 -1.368,0 -2.36047,0.8047027 -2.36047,1.8977578 0,1.3143484 0.94553,1.8172878 2.04529,2.192816 0.87847,0.3017636 1.32776,0.4694101 1.32776,0.8181148 0,0.3889398 -0.3487,0.6571742 -0.93882,0.6571742 -0.82482,0 -1.39482,-0.2615285 -1.93129,-0.7912914 l -0.77788,1.1534078 c 0.71082,0.6236449 1.62953,0.9790554 2.70917,0.9790554 z"
         id="path119" /><path
         d="m 243.48626,-10.610447 v 3.2054002 c 0,1.4484656 -0.82482,2.1995218 -1.7234,2.1995218 -0.93212,0 -1.33447,-0.4023515 -1.33447,-1.7435233 v -3.6613987 h -1.53564 v 4.0771619 c 0,1.9916402 1.026,2.7225789 2.50129,2.7225789 0.78458,0 1.52893,-0.335293 2.0654,-0.9723496 h 0.0201 V -3.918 h 1.53564 v -6.692447 z"
         id="path121" /><path
         d="m 251.58421,-10.711035 c -0.86506,0 -1.67647,0.35541 -2.24646,1.0192902 h -0.0201 v -0.9187022 h -1.53564 V -3.918 h 1.53564 v -3.3596354 c 0,-1.3143485 0.69741,-2.0385812 1.73682,-2.0385812 0.92541,0 1.45517,0.4425867 1.45517,1.857523 v 3.5541053 h 1.53564 v -3.949751 c 0,-2.0117578 -0.99247,-2.8566957 -2.46105,-2.8566957 z"
         id="path123" /><path
         d="m 257.62855,-11.60962 c 0.56329,0 1.0327,-0.462705 1.0327,-1.025997 0,-0.556586 -0.46941,-1.019291 -1.0327,-1.019291 -0.58341,0 -1.03941,0.462705 -1.03941,1.019291 0,0.563292 0.456,1.025997 1.03941,1.025997 z m -0.77788,7.69162 h 1.53564 v -6.692447 h -1.53564 z"
         id="path125" /><path
         d="m 264.43496,-3.8107062 c 2.052,0 3.51387,-1.4015246 3.51387,-3.4401058 0,-2.0519929 -1.46187,-3.460223 -3.51387,-3.460223 -2.11905,0 -3.52057,1.4819945 -3.52057,3.460223 0,1.9648167 1.40152,3.4401058 3.52057,3.4401058 z m 0,-1.3881129 c -1.1534,0 -1.9514,-0.905291 -1.9514,-2.0519929 0,-1.1668195 0.78458,-2.0654046 1.95811,-2.0654046 1.09976,0 1.9514,0.8382324 1.9514,2.0654046 0,1.2070546 -0.86505,2.0519929 -1.9514,2.0519929 z"
         id="path127" /><path
         d="m 274.17634,-10.711035 c -0.86505,0 -1.67646,0.35541 -2.24646,1.0192902 h -0.0201 v -0.9187022 h -1.53564 V -3.918 h 1.53564 v -3.3596354 c 0,-1.3143485 0.69741,-2.0385812 1.73682,-2.0385812 0.92541,0 1.45517,0.4425867 1.45517,1.857523 v 3.5541053 h 1.53564 v -3.949751 c 0,-2.0117578 -0.99246,-2.8566957 -2.46105,-2.8566957 z"
         id="path129" /></g></g></svg>
