<?xml version="1.0" encoding="UTF-8" standalone="no"?>
<svg
   xmlns:dc="http://purl.org/dc/elements/1.1/"
   xmlns:cc="http://creativecommons.org/ns#"
   xmlns:rdf="http://www.w3.org/1999/02/22-rdf-syntax-ns#"
   xmlns:svg="http://www.w3.org/2000/svg"
   xmlns="http://www.w3.org/2000/svg"
   xmlns:sodipodi="http://sodipodi.sourceforge.net/DTD/sodipodi-0.dtd"
   xmlns:inkscape="http://www.inkscape.org/namespaces/inkscape"
   id="Layer_1"
   data-name="Layer 1"
   viewBox="0 0 261.87 106.45"
   version="1.1"
   sodipodi:docname="Logo-AltDark.svg"
   inkscape:version="0.92.4 (5da689c313, 2019-01-14)">
  <metadata
     id="metadata4494">
    <rdf:RDF>
      <cc:Work
         rdf:about="">
        <dc:format>image/svg+xml</dc:format>
        <dc:type
           rdf:resource="http://purl.org/dc/dcmitype/StillImage" />
        <dc:title>Logo</dc:title>
      </cc:Work>
    </rdf:RDF>
  </metadata>
  <sodipodi:namedview
     pagecolor="#ffffff"
     bordercolor="#666666"
     borderopacity="1"
     objecttolerance="10"
     gridtolerance="10"
     guidetolerance="10"
     inkscape:pageopacity="0"
     inkscape:pageshadow="2"
     inkscape:window-width="1306"
     inkscape:window-height="740"
     id="namedview4492"
     showgrid="false"
     inkscape:zoom="2.8678352"
     inkscape:cx="130.935"
     inkscape:cy="53.224998"
     inkscape:window-x="60"
     inkscape:window-y="0"
     inkscape:window-maximized="1"
     inkscape:current-layer="Layer_1" />
  <defs
     id="defs4409">
    <style
       id="style4407">.cls-1{fill:#d12329;}.cls-2{fill:#fff;}.cls-3{fill:#404041;}</style>
  </defs>
  <title
     id="title4411">Logo</title>
  <path
     class="cls-1"
     d="M249.39,67.42c0-1-.24-1.29-1.28-1.28q-117.18,0-234.35,0c-1.06,0-1.28.29-1.28,1.3,0,7.39,0,14.78,0,22.16,0,1.32.39,1.54,1.59,1.53q58.46,0,116.9,0t117,0c1.12,0,1.45-.22,1.44-1.41Q249.32,78.58,249.39,67.42Z"
     id="path4413" />
  <path
     class="cls-2"
     d="M21.26,83.32l.7-8.08h2l1.12,2.92c.2.49.36.94.5,1.35s.22.69.26.86l.06.24a22.57,22.57,0,0,1,.84-2.45l1.14-2.92h2l.84,8.08H28.93l-.3-3.13-.16-2.36c-.2.6-.49,1.39-.86,2.36l-1.14,3H25.38l-1.13-3c-.18-.49-.34-.94-.47-1.33s-.21-.66-.25-.82l-.06-.21c0,.57,0,1.35-.11,2.36l-.25,3.13Z"
     id="path4415" />
  <path
     class="cls-2"
     d="M32.3,76.2a1,1,0,1,1,.72.3A1,1,0,0,1,32.3,76.2Zm-.16,7.12V77.24h1.75v6.08Z"
     id="path4417" />
  <path
     class="cls-2"
     d="M39.48,74.84h1.75v8.48H39.48v-.94a2,2,0,0,1-1.83,1,2.28,2.28,0,0,1-1.9-.93A3.46,3.46,0,0,1,35,80.26,3.22,3.22,0,0,1,35.78,78a2.4,2.4,0,0,1,1.88-.83,2,2,0,0,1,1.82,1Zm-1.35,7.09a1.15,1.15,0,0,0,1-.47,1.91,1.91,0,0,0,.38-1.24A1.63,1.63,0,0,0,39.07,79a1.25,1.25,0,0,0-1-.42,1.18,1.18,0,0,0-.93.44,1.87,1.87,0,0,0-.38,1.24,1.73,1.73,0,0,0,.39,1.18A1.16,1.16,0,0,0,38.13,81.93Z"
     id="path4419" />
  <path
     class="cls-2"
     d="M44,83.32l-2-6.08h1.81l.53,2c.13.51.23,1,.32,1.37s.14.68.16.83l0,.23a18.69,18.69,0,0,1,.59-2.43l.59-2h1.51l.58,2c.14.52.26,1,.36,1.38s.15.68.18.83l0,.22a20.25,20.25,0,0,1,.57-2.43l.56-2h1.73l-1.94,6.08h-1.8l-.53-2c-.11-.43-.21-.83-.3-1.21s-.13-.64-.16-.8l0-.24a22.15,22.15,0,0,1-.51,2.25l-.53,2Z"
     id="path4421" />
  <path
     class="cls-2"
     d="M57.27,80.88H53.58a1.8,1.8,0,0,0,.17.47,1.31,1.31,0,0,0,.3.4,1.17,1.17,0,0,0,.4.23,1.53,1.53,0,0,0,.47.1H55a2.09,2.09,0,0,0,.38,0,1.73,1.73,0,0,0,.36-.11,1.52,1.52,0,0,0,.33-.21,1.92,1.92,0,0,0,.29-.27l.78.9a2.29,2.29,0,0,1-.41.42,2.7,2.7,0,0,1-.49.32,3.2,3.2,0,0,1-.64.21,3,3,0,0,1-.66.09h-.16a3.23,3.23,0,0,1-.75-.1,2.85,2.85,0,0,1-.71-.27,2.37,2.37,0,0,1-.55-.45,2.74,2.74,0,0,1-.7-1.28,2.69,2.69,0,0,1-.12-.73v-.2a.25.25,0,0,1,0-.09,3.23,3.23,0,0,1,.1-.75,4.16,4.16,0,0,1,.24-.73,2.37,2.37,0,0,1,.4-.59,2.42,2.42,0,0,1,.53-.47,2.61,2.61,0,0,1,.69-.28,2.57,2.57,0,0,1,.72-.12h.14a2.72,2.72,0,0,1,.69.11,2.6,2.6,0,0,1,.64.24,2.76,2.76,0,0,1,.5.44,2.18,2.18,0,0,1,.38.55,3,3,0,0,1,.22.69,3.61,3.61,0,0,1,.09.73.31.31,0,0,1,0,.1Zm-1.59-1.22v0a1.14,1.14,0,0,0-.07-.38,1.25,1.25,0,0,0-.19-.33.92.92,0,0,0-.32-.2,1,1,0,0,0-.38-.09h-.09a.91.91,0,0,0-.37.09.9.9,0,0,0-.3.22,1.33,1.33,0,0,0-.23.41,1.51,1.51,0,0,0-.12.45h2.07Z"
     id="path4423" />
  <path
     class="cls-2"
     d="M62.27,77.42v1.5a2.89,2.89,0,0,0-1.49-.37.81.81,0,0,0-.48.12.4.4,0,0,0-.17.32.42.42,0,0,0,.06.21.72.72,0,0,0,.2.18l.26.15.35.16a3.15,3.15,0,0,1,.36.17,3.07,3.07,0,0,1,.88.66,1.38,1.38,0,0,1,.34,1,1.65,1.65,0,0,1-.65,1.39,2.73,2.73,0,0,1-1.71.49A4.06,4.06,0,0,1,58.37,83V81.44a3,3,0,0,0,1.75.58q.66,0,.66-.42a.39.39,0,0,0-.06-.21.72.72,0,0,0-.2-.18l-.27-.14-.35-.15-.34-.15A1.86,1.86,0,0,1,58.34,79,1.62,1.62,0,0,1,59,77.66a2.79,2.79,0,0,1,1.69-.49A4.18,4.18,0,0,1,62.27,77.42Z"
     id="path4425" />
  <path
     class="cls-2"
     d="M65.72,78.52v2.8a.63.63,0,0,0,.18.49.73.73,0,0,0,.49.17,1.53,1.53,0,0,0,.85-.24v1.45a3,3,0,0,1-1.2.19A1.83,1.83,0,0,1,64,81.31V78.52h-.88V77.24H64V75.8h1.75v1.44h1.41v1.28Z"
     id="path4427" />
  <path
     class="cls-2"
     d="M76.63,83.32l-.5-1.65H73.3l-.49,1.65H70.88l2.7-8.08h2.33l2.7,8.08Zm-2.88-3.14h1.94l-.08-.29c-.24-.78-.43-1.45-.57-2s-.24-.91-.27-1.07l0-.24c-.07.44-.36,1.54-.89,3.31Z"
     id="path4429" />
  <path
     class="cls-2"
     d="M83.4,77.42v1.5a2.85,2.85,0,0,0-1.48-.37.81.81,0,0,0-.48.12.37.37,0,0,0-.17.32.42.42,0,0,0,.06.21.6.6,0,0,0,.2.18l.26.15.35.16a2.9,2.9,0,0,1,.35.17,3,3,0,0,1,.89.66,1.43,1.43,0,0,1,.34,1,1.65,1.65,0,0,1-.65,1.39,2.76,2.76,0,0,1-1.72.49A4.12,4.12,0,0,1,79.5,83V81.44a3.08,3.08,0,0,0,1.76.58q.66,0,.66-.42a.39.39,0,0,0-.06-.21.65.65,0,0,0-.21-.18l-.26-.14L81,80.92l-.35-.15A1.85,1.85,0,0,1,79.48,79a1.62,1.62,0,0,1,.68-1.38,2.76,2.76,0,0,1,1.68-.49A4.11,4.11,0,0,1,83.4,77.42Z"
     id="path4431" />
  <path
     class="cls-2"
     d="M85,76.2a1,1,0,1,1,.72.3A1,1,0,0,1,85,76.2Zm-.16,7.12V77.24h1.76v6.08Z"
     id="path4433" />
  <path
     class="cls-2"
     d="M88.2,79.11V77.54a4.28,4.28,0,0,1,2.07-.41,2.85,2.85,0,0,1,1.93.56,2.16,2.16,0,0,1,.64,1.73v3.9H91.12v-.74a1.51,1.51,0,0,1-1.51.78,1.87,1.87,0,0,1-1.38-.5,1.7,1.7,0,0,1-.5-1.26,1.62,1.62,0,0,1,.64-1.37,3.15,3.15,0,0,1,1.9-.48H91v-.42c0-.51-.34-.77-1-.77A3.22,3.22,0,0,0,88.2,79.11ZM91,80.83h-.56a1.07,1.07,0,0,0-.69.19.6.6,0,0,0-.24.49c0,.41.24.61.71.61a.75.75,0,0,0,.58-.22,1,1,0,0,0,.2-.63Z"
     id="path4435" />
  <path
     class="cls-2"
     d="M96,77.24v1a1.8,1.8,0,0,1,.7-.8,2.16,2.16,0,0,1,1.13-.29,1.93,1.93,0,0,1,1.47.56,2.31,2.31,0,0,1,.53,1.64v3.94H98.06V79.7a1.18,1.18,0,0,0-.25-.82.89.89,0,0,0-.71-.28,1,1,0,0,0-.79.37A1.7,1.7,0,0,0,96,80.11v3.21H94.24V77.24Z"
     id="path4437" />
  <path
     class="cls-2"
     d="M109.5,83.32,109,81.67h-2.83l-.5,1.65h-1.93l2.7-8.08h2.33l2.7,8.08Zm-2.88-3.14h1.94l-.08-.29c-.23-.78-.42-1.45-.57-2s-.24-.91-.27-1.07l0-.24a32.69,32.69,0,0,1-.89,3.31Z"
     id="path4439" />
  <path
     class="cls-2"
     d="M114.18,77.24v1a1.78,1.78,0,0,1,1.72-1,1.64,1.64,0,0,1,1.7,1.15,1.68,1.68,0,0,1,.69-.84,2,2,0,0,1,1.13-.31,1.83,1.83,0,0,1,1.42.57,2.39,2.39,0,0,1,.52,1.67v3.9h-1.75V79.71a1.39,1.39,0,0,0-.21-.81.65.65,0,0,0-.58-.3,1,1,0,0,0-.73.33,1.7,1.7,0,0,0-.32,1.18v3.21H116V79.71a1.47,1.47,0,0,0-.2-.81.68.68,0,0,0-.59-.3,1,1,0,0,0-.73.33,1.7,1.7,0,0,0-.32,1.18v3.21h-1.75V77.24Z"
     id="path4441" />
  <path
     class="cls-2"
     d="M127.81,80.88h-3.68a1.5,1.5,0,0,0,.17.47,1.31,1.31,0,0,0,.3.4,1.08,1.08,0,0,0,.4.23,1.47,1.47,0,0,0,.46.1h.09a1.9,1.9,0,0,0,.37,0,2.07,2.07,0,0,0,.37-.11,2.21,2.21,0,0,0,.33-.21,1.45,1.45,0,0,0,.28-.27l.78.9a1.78,1.78,0,0,1-.41.42,2.39,2.39,0,0,1-.49.32,3.31,3.31,0,0,1-.63.21,3,3,0,0,1-.66.09h-.16a3.24,3.24,0,0,1-.76-.1,2.93,2.93,0,0,1-.7-.27,2.62,2.62,0,0,1-.56-.45,2.87,2.87,0,0,1-.43-.58,3.42,3.42,0,0,1-.27-.7,3.08,3.08,0,0,1-.11-.73v-.2a.25.25,0,0,1,0-.09,3.23,3.23,0,0,1,.1-.75,4.22,4.22,0,0,1,.23-.73,2.75,2.75,0,0,1,.41-.59,2.21,2.21,0,0,1,.53-.47,2.53,2.53,0,0,1,.68-.28,2.57,2.57,0,0,1,.72-.12h.15a2.72,2.72,0,0,1,.69.11,2.6,2.6,0,0,1,.64.24,3.15,3.15,0,0,1,.5.44,2.12,2.12,0,0,1,.37.55,2.92,2.92,0,0,1,.23.69,3.61,3.61,0,0,1,.09.73.3.3,0,0,1,0,.1Zm-1.58-1.22v0a1.18,1.18,0,0,0-.08-.38,1,1,0,0,0-.18-.33.88.88,0,0,0-.33-.2.91.91,0,0,0-.37-.09h-.1a.87.87,0,0,0-.36.09,1,1,0,0,0-.31.22,1.58,1.58,0,0,0-.23.41,2.54,2.54,0,0,0-.12.45h2.08Z"
     id="path4443" />
  <path
     class="cls-2"
     d="M130.78,77.24v1.13a1.82,1.82,0,0,1,.56-.85,1.4,1.4,0,0,1,.91-.32,1.75,1.75,0,0,1,.45,0v1.66a1.53,1.53,0,0,0-.66-.13,1.12,1.12,0,0,0-.91.41,1.67,1.67,0,0,0-.35,1.1v3H129V77.24Z"
     id="path4445" />
  <path
     class="cls-2"
     d="M133.7,76.2a1,1,0,1,1,.72.3A1,1,0,0,1,133.7,76.2Zm-.16,7.12V77.24h1.76v6.08Z"
     id="path4447" />
  <path
     class="cls-2"
     d="M138.19,80.3a1.87,1.87,0,0,0,.48,1.25,1.54,1.54,0,0,0,1.14.44,2.76,2.76,0,0,0,1.45-.42V83a3.59,3.59,0,0,1-1.7.38,3.1,3.1,0,0,1-2.26-.87,3,3,0,0,1-.89-2.25A3.24,3.24,0,0,1,137.3,78a3.14,3.14,0,0,1,2.37-.9,3.45,3.45,0,0,1,1.59.35V79a2.62,2.62,0,0,0-1.41-.39,1.64,1.64,0,0,0-1.19.43A1.72,1.72,0,0,0,138.19,80.3Z"
     id="path4449" />
  <path
     class="cls-2"
     d="M142.57,79.11V77.54a4.28,4.28,0,0,1,2.07-.41,2.85,2.85,0,0,1,1.93.56,2.16,2.16,0,0,1,.64,1.73v3.9h-1.72v-.74a1.51,1.51,0,0,1-1.51.78,1.87,1.87,0,0,1-1.38-.5,1.7,1.7,0,0,1-.5-1.26,1.62,1.62,0,0,1,.64-1.37,3.15,3.15,0,0,1,1.9-.48h.77v-.42c0-.51-.34-.77-1-.77A3.22,3.22,0,0,0,142.57,79.11Zm2.84,1.72h-.56a1.07,1.07,0,0,0-.69.19.6.6,0,0,0-.24.49c0,.41.24.61.71.61a.75.75,0,0,0,.58-.22,1,1,0,0,0,.2-.63Z"
     id="path4451" />
  <path
     class="cls-2"
     d="M150.36,77.24v1a1.8,1.8,0,0,1,.7-.8,2.18,2.18,0,0,1,1.13-.29,1.93,1.93,0,0,1,1.47.56,2.31,2.31,0,0,1,.53,1.64v3.94h-1.76V79.7a1.18,1.18,0,0,0-.25-.82.89.89,0,0,0-.71-.28,1,1,0,0,0-.79.37,1.7,1.7,0,0,0-.32,1.14v3.21h-1.75V77.24Z"
     id="path4453" />
  <path
     class="cls-2"
     d="M163.3,75.6v1.72a4.06,4.06,0,0,0-2-.56,1.16,1.16,0,0,0-.72.19.6.6,0,0,0-.24.49.69.69,0,0,0,.3.54,4.9,4.9,0,0,0,.9.5l.62.29a4.39,4.39,0,0,1,.56.35,2.07,2.07,0,0,1,.5.47,2.12,2.12,0,0,1,.32.6,2.37,2.37,0,0,1-.67,2.55,3.23,3.23,0,0,1-2.14.68,4.78,4.78,0,0,1-2.32-.5V81.06a3.91,3.91,0,0,0,2.32.79,1.12,1.12,0,0,0,.7-.22.74.74,0,0,0,.28-.59.78.78,0,0,0,0-.22.52.52,0,0,0-.13-.21,2.31,2.31,0,0,0-.19-.16l-.26-.16-.29-.15-.36-.16-.38-.17a3.74,3.74,0,0,1-1.25-.89,2,2,0,0,1-.48-1.4,2.1,2.1,0,0,1,.77-1.69,3.21,3.21,0,0,1,2.13-.64A4.84,4.84,0,0,1,163.3,75.6Z"
     id="path4455" />
  <path
     class="cls-2"
     d="M166.8,78.52v2.8a.63.63,0,0,0,.18.49.73.73,0,0,0,.49.17,1.53,1.53,0,0,0,.85-.24v1.45a3.08,3.08,0,0,1-1.2.19A1.84,1.84,0,0,1,165,81.31V78.52h-.87V77.24H165V75.8h1.76v1.44h1.41v1.28Z"
     id="path4457" />
  <path
     class="cls-2"
     d="M173.17,77.24h1.76v6.08h-1.76v-1a1.83,1.83,0,0,1-1.84,1,2,2,0,0,1-1.46-.52,2.08,2.08,0,0,1-.52-1.54V77.24h1.75v3.67c0,.71.31,1.07.93,1.07s1.14-.51,1.14-1.52Z"
     id="path4459" />
  <path
     class="cls-2"
     d="M180.52,74.84h1.75v8.48h-1.75v-.94a2,2,0,0,1-1.83,1,2.28,2.28,0,0,1-1.9-.93,3.52,3.52,0,0,1-.71-2.21,3.27,3.27,0,0,1,.74-2.26,2.42,2.42,0,0,1,1.89-.83,2,2,0,0,1,1.81,1Zm-1.35,7.09a1.18,1.18,0,0,0,1-.47,2,2,0,0,0,.37-1.24,1.67,1.67,0,0,0-.4-1.18,1.29,1.29,0,0,0-1-.42,1.18,1.18,0,0,0-.93.44,1.87,1.87,0,0,0-.38,1.24,1.73,1.73,0,0,0,.39,1.18A1.18,1.18,0,0,0,179.17,81.93Z"
     id="path4461" />
  <path
     class="cls-2"
     d="M188.77,80.88h-3.68a1.5,1.5,0,0,0,.17.47,1.05,1.05,0,0,0,.3.4,1.08,1.08,0,0,0,.4.23,1.42,1.42,0,0,0,.46.1h.08a2,2,0,0,0,.38,0,2.07,2.07,0,0,0,.37-.11,2.21,2.21,0,0,0,.33-.21,1.82,1.82,0,0,0,.28-.27l.78.9a2,2,0,0,1-.41.42,2.39,2.39,0,0,1-.49.32,3.2,3.2,0,0,1-.64.21,2.87,2.87,0,0,1-.66.09h-.15a3.24,3.24,0,0,1-.76-.1,3,3,0,0,1-.71-.27,2.59,2.59,0,0,1-.55-.45,2.87,2.87,0,0,1-.43-.58,3.42,3.42,0,0,1-.27-.7,2.64,2.64,0,0,1-.11-.73v-.2a.24.24,0,0,1,0-.09,3.31,3.31,0,0,1,.11-.75,3.5,3.5,0,0,1,.23-.73,2.43,2.43,0,0,1,.41-.59,2.21,2.21,0,0,1,.53-.47,2.53,2.53,0,0,1,.68-.28,2.57,2.57,0,0,1,.72-.12h.14a2.72,2.72,0,0,1,.69.11,2.69,2.69,0,0,1,.65.24,2.73,2.73,0,0,1,.49.44,2,2,0,0,1,.38.55,3,3,0,0,1,.22.69,3.61,3.61,0,0,1,.09.73.31.31,0,0,1,0,.1Zm-1.58-1.22v0a1.18,1.18,0,0,0-.08-.38.87.87,0,0,0-.19-.33.84.84,0,0,0-.32-.2,1,1,0,0,0-.37-.09h-.1a.87.87,0,0,0-.36.09.85.85,0,0,0-.31.22,1.58,1.58,0,0,0-.23.41,2.54,2.54,0,0,0-.12.45h2.08Z"
     id="path4463" />
  <path
     class="cls-2"
     d="M191.75,77.24v1a1.8,1.8,0,0,1,.7-.8,2.16,2.16,0,0,1,1.13-.29,1.93,1.93,0,0,1,1.47.56,2.31,2.31,0,0,1,.53,1.64v3.94h-1.76V79.7a1.18,1.18,0,0,0-.25-.82.89.89,0,0,0-.71-.28,1,1,0,0,0-.79.37,1.7,1.7,0,0,0-.32,1.14v3.21H190V77.24Z"
     id="path4465" />
  <path
     class="cls-2"
     d="M199,78.52v2.8a.6.6,0,0,0,.19.49.69.69,0,0,0,.48.17,1.51,1.51,0,0,0,.85-.24v1.45a3,3,0,0,1-1.2.19,1.83,1.83,0,0,1-2.07-2.07V78.52h-.88V77.24h.88V75.8H199v1.44h1.42v1.28Z"
     id="path4467" />
  <path
     class="cls-2"
     d="M205.43,77.42v1.5a2.85,2.85,0,0,0-1.48-.37.81.81,0,0,0-.48.12.37.37,0,0,0-.17.32.42.42,0,0,0,.06.21.6.6,0,0,0,.2.18l.26.15.35.16a2.9,2.9,0,0,1,.35.17,3,3,0,0,1,.89.66,1.43,1.43,0,0,1,.34,1,1.65,1.65,0,0,1-.65,1.39,2.76,2.76,0,0,1-1.72.49,4.12,4.12,0,0,1-1.85-.37V81.44a3.08,3.08,0,0,0,1.76.58q.66,0,.66-.42a.39.39,0,0,0-.06-.21.65.65,0,0,0-.21-.18l-.26-.14-.35-.15-.35-.15A1.85,1.85,0,0,1,201.51,79a1.62,1.62,0,0,1,.68-1.38,2.76,2.76,0,0,1,1.68-.49A4.11,4.11,0,0,1,205.43,77.42Z"
     id="path4469" />
  <path
     class="cls-2"
     d="M214.55,80.2v-5h1.85v5a3.13,3.13,0,0,1-.89,2.42,3.34,3.34,0,0,1-2.4.83,3.38,3.38,0,0,1-2.38-.82,3,3,0,0,1-.9-2.34v-5h1.84v5q0,1.5,1.44,1.5T214.55,80.2Z"
     id="path4471" />
  <path
     class="cls-2"
     d="M219.65,77.24v1a1.87,1.87,0,0,1,.7-.8,2.19,2.19,0,0,1,1.14-.29,1.92,1.92,0,0,1,1.46.56,2.31,2.31,0,0,1,.53,1.64v3.94h-1.75V79.7a1.24,1.24,0,0,0-.25-.82.91.91,0,0,0-.71-.28,1,1,0,0,0-.8.37,1.76,1.76,0,0,0-.32,1.14v3.21H217.9V77.24Z"
     id="path4473" />
  <path
     class="cls-2"
     d="M225,76.2a1,1,0,1,1,.72.3A1,1,0,0,1,225,76.2Zm-.15,7.12V77.24h1.75v6.08Z"
     id="path4475" />
  <path
     class="cls-2"
     d="M230.77,83.42a2.85,2.85,0,0,1-2.21-.86,3.13,3.13,0,0,1-.78-2.2,3.28,3.28,0,0,1,.82-2.31A3.11,3.11,0,0,1,233,78a3.23,3.23,0,0,1,.78,2.23,3.36,3.36,0,0,1-.79,2.28A2.77,2.77,0,0,1,230.77,83.42Zm0-4.9a1,1,0,0,0-.87.5,3,3,0,0,0,0,2.55,1,1,0,0,0,.88.49.93.93,0,0,0,.86-.48,2.52,2.52,0,0,0,.28-1.27C231.92,79.12,231.53,78.52,230.76,78.52Z"
     id="path4477" />
  <path
     class="cls-2"
     d="M236.63,77.24v1a1.8,1.8,0,0,1,.7-.8,2.13,2.13,0,0,1,1.13-.29,1.91,1.91,0,0,1,1.46.56,2.26,2.26,0,0,1,.53,1.64v3.94H238.7V79.7a1.18,1.18,0,0,0-.25-.82.89.89,0,0,0-.71-.28,1,1,0,0,0-.8.37,1.76,1.76,0,0,0-.31,1.14v3.21h-1.76V77.24Z"
     id="path4479" />
  <path
     class="cls-3"
     d="M26.82,28.66s-.08,3.94-.16,6q-.16,4.09-.48,7.93L24.7,61H13.83l4.1-47.58H29.85l6.64,17.23q1.69,4.3,2.89,7.9c.8,2.4,1.32,4.1,1.56,5.08L41.29,45a125.18,125.18,0,0,1,4.94-14.4l6.71-17.23H64.87L69.81,61H58.94L57.17,42.57l-.91-13.91s-2.92,8.17-5.09,13.91L44.47,60.5H38L31.41,42.57c-.94-2.49-1.87-5.1-2.75-7.84C28,32.66,26.82,28.66,26.82,28.66Z"
     id="path4481"
     style="fill:#ffffff;fill-opacity:1" />
  <path
     class="cls-3"
     d="M107.94,61l-2.89-9.74H88.39L85.49,61H74.13L90,13.41h13.7L119.59,61ZM91,42.5h11.44l-.5-1.7q-2-6.91-3.35-11.79c-.87-3.24-1.4-5.34-1.59-6.28l-.28-1.41q-.57,3.88-5.23,19.48Z"
     id="path4483"
     style="fill:#ffffff;fill-opacity:1" />
  <path
     class="cls-3"
     d="M156.85,61,154,51.25H137.3L134.41,61H123l15.88-47.58h13.7L168.5,61ZM139.91,42.5h11.44l-.5-1.7q-2-6.91-3.35-11.79c-.87-3.24-1.4-5.34-1.59-6.28l-.28-1.41q-.57,3.88-5.22,19.48Z"
     id="path4485"
     style="fill:#ffffff;fill-opacity:1" />
  <path
     class="cls-3"
     d="M201.26,15.53V25.69a23.31,23.31,0,0,0-11.86-3.31,6.69,6.69,0,0,0-4.2,1.13,3.51,3.51,0,0,0-1.45,2.89,4,4,0,0,0,1.77,3.14,25.53,25.53,0,0,0,5.29,2.93c1.46.66,2.67,1.24,3.64,1.73a31,31,0,0,1,3.32,2,13.21,13.21,0,0,1,3,2.75,13.74,13.74,0,0,1,1.87,3.57,13.15,13.15,0,0,1,.78,4.58,13,13,0,0,1-4.73,10.42q-4.72,4-12.57,4-8.4,0-13.69-3V47.65a23,23,0,0,0,13.69,4.66,6.34,6.34,0,0,0,4.1-1.31,4.18,4.18,0,0,0,1.62-3.42,4.23,4.23,0,0,0-.21-1.34,3,3,0,0,0-.78-1.2,9.15,9.15,0,0,0-1.09-1,13.08,13.08,0,0,0-1.55-.91l-1.73-.89c-.47-.23-1.17-.56-2.09-1s-1.65-.76-2.22-1a22.31,22.31,0,0,1-7.38-5.23A11.88,11.88,0,0,1,172,26.82a12.28,12.28,0,0,1,4.51-9.91Q181,13.13,189,13.13A28.86,28.86,0,0,1,201.26,15.53Z"
     id="path4487"
     style="fill:#ffffff;fill-opacity:1" />
  <path
     class="cls-3"
     d="M237.17,42.64V13.41H248V42.57q0,9.32-5.22,14.22T228.7,61.7q-8.76,0-14-4.87t-5.29-13.77V13.41h10.87V43q0,8.82,8.47,8.82T237.17,42.64Z"
     id="path4489"
     style="fill:#ffffff;fill-opacity:1" />
</svg>
