<svg id="Layer_1" data-name="Layer 1" xmlns="http://www.w3.org/2000/svg" viewBox="0 0 348.09 106.45"><defs><style>.cls-1{fill:#404041;}.cls-2{fill:#d12329;}.cls-3{fill:#fff;}</style></defs><title>Logo-wSymbol</title><path class="cls-1" d="M107.58,28.59s-.07,3.95-.16,6q-.17,4.08-.47,7.92l-1.49,18.42H94.59l4.1-47.57h11.93l6.63,17.22q1.69,4.31,2.9,7.91c.8,2.4,1.31,4.09,1.55,5.08l.35,1.41A127.88,127.88,0,0,1,127,30.57l6.71-17.22h11.93l4.94,47.57H139.7L137.94,42.5,137,28.59s-2.92,8.17-5.08,13.91l-6.71,17.93h-6.42L112.17,42.5c-.94-2.48-1.87-5.1-2.75-7.83C108.75,32.59,107.58,28.59,107.58,28.59Z"/><path class="cls-1" d="M188.7,60.92l-2.89-9.74H169.15l-2.89,9.74H154.89l15.88-47.57h13.7l15.88,47.57ZM171.76,42.43H183.2l-.5-1.69q-2-6.93-3.35-11.79c-.87-3.25-1.4-5.34-1.59-6.29l-.28-1.41q-.57,3.88-5.22,19.49Z"/><path class="cls-1" d="M237.62,60.92l-2.9-9.74H218.06l-2.89,9.74H203.8l15.89-47.57h13.69l15.88,47.57Zm-17-18.49h11.44l-.49-1.69q-2.06-6.93-3.36-11.79c-.87-3.25-1.4-5.34-1.59-6.29l-.28-1.41q-.57,3.88-5.22,19.49Z"/><path class="cls-1" d="M282,15.46V25.63a23.32,23.32,0,0,0-11.86-3.32,6.76,6.76,0,0,0-4.2,1.13,3.52,3.52,0,0,0-1.44,2.9,4,4,0,0,0,1.76,3.14,26.34,26.34,0,0,0,5.3,2.93c1.45.66,2.67,1.23,3.63,1.73a28.4,28.4,0,0,1,3.32,2,12.8,12.8,0,0,1,3,2.76,13.38,13.38,0,0,1,1.87,3.56,13.17,13.17,0,0,1,.78,4.59,13,13,0,0,1-4.73,10.41q-4.73,4-12.56,4-8.4,0-13.7-3V47.58a22.89,22.89,0,0,0,13.7,4.66,6.32,6.32,0,0,0,4.09-1.3,4.43,4.43,0,0,0,1.41-4.77,3.18,3.18,0,0,0-.77-1.2,10,10,0,0,0-1.1-.95,11.69,11.69,0,0,0-1.55-.92l-1.73-.88c-.47-.24-1.17-.57-2.08-1s-1.66-.75-2.23-1A22.24,22.24,0,0,1,255.52,35a11.9,11.9,0,0,1-2.79-8.26,12.28,12.28,0,0,1,4.52-9.92q4.51-3.78,12.49-3.78A29,29,0,0,1,282,15.46Z"/><path class="cls-1" d="M317.93,42.57V13.35H328.8V42.5q0,9.31-5.22,14.22t-14.12,4.91q-8.74,0-14-4.87T290.12,43V13.35H301V42.92q0,8.84,8.47,8.83T317.93,42.57Z"/><path class="cls-2" d="M330.15,67.36c0-1-.24-1.29-1.28-1.29q-117.18,0-234.35,0c-1.06,0-1.28.28-1.28,1.3,0,7.38.06,14.77,0,22.16,0,1.31.39,1.53,1.59,1.53q58.46,0,116.9,0t117,0c1.12,0,1.45-.22,1.44-1.4Q330.08,78.5,330.15,67.36Z"/><path class="cls-3" d="M102,83.26l.69-8.09h2l1.13,2.93c.19.49.35.93.49,1.34s.22.7.26.87l.06.24a21.86,21.86,0,0,1,.84-2.45l1.14-2.93h2l.84,8.09h-1.85l-.3-3.13-.15-2.37q-.31.9-.87,2.37l-1.14,3h-1.09l-1.13-3c-.18-.5-.34-.94-.46-1.34s-.22-.66-.26-.81l-.06-.22c0,.57,0,1.36-.1,2.37l-.26,3.13Z"/><path class="cls-3" d="M113.06,76.13a1,1,0,1,1,.72.3A1,1,0,0,1,113.06,76.13Zm-.16,7.13V77.17h1.76v6.09Z"/><path class="cls-3" d="M120.24,74.77H122v8.49h-1.75v-1a2,2,0,0,1-1.83,1,2.3,2.3,0,0,1-1.9-.92,3.56,3.56,0,0,1-.71-2.21,3.3,3.3,0,0,1,.74-2.27,2.45,2.45,0,0,1,1.89-.83,2,2,0,0,1,1.81,1Zm-1.35,7.1a1.21,1.21,0,0,0,1-.47,2,2,0,0,0,.37-1.25,1.68,1.68,0,0,0-.4-1.18,1.29,1.29,0,0,0-1-.42A1.16,1.16,0,0,0,118,79a1.85,1.85,0,0,0-.38,1.23,1.76,1.76,0,0,0,.39,1.19A1.18,1.18,0,0,0,118.89,81.87Z"/><path class="cls-3" d="M124.76,83.26l-2-6.09h1.81l.53,2c.13.5.24,1,.32,1.36s.14.68.16.83l0,.23a16.36,16.36,0,0,1,.58-2.42l.59-2h1.51l.58,2c.14.51.26,1,.36,1.37s.16.68.18.84l0,.21a17.53,17.53,0,0,1,.56-2.42l.56-2h1.73l-1.94,6.09h-1.8l-.53-2c-.11-.44-.21-.84-.29-1.22s-.14-.64-.17-.8l0-.24a21.64,21.64,0,0,1-.51,2.26l-.52,2Z"/><path class="cls-3" d="M138,80.81h-3.68a1.5,1.5,0,0,0,.17.47,1.2,1.2,0,0,0,.29.41,1.3,1.3,0,0,0,.41.22,1.2,1.2,0,0,0,.46.1h.08a2,2,0,0,0,.38-.05,2.07,2.07,0,0,0,.37-.11,1.28,1.28,0,0,0,.33-.21,1.82,1.82,0,0,0,.28-.27l.78.9a2,2,0,0,1-.41.42A2.34,2.34,0,0,1,137,83a3.2,3.2,0,0,1-.64.21,2.87,2.87,0,0,1-.66.09h-.15a3.31,3.31,0,0,1-.76-.11,2.14,2.14,0,0,1-1.26-.72,2.34,2.34,0,0,1-.43-.58,2.84,2.84,0,0,1-.27-.69,2.75,2.75,0,0,1-.12-.73v-.21s0,0,0-.08a3.31,3.31,0,0,1,.11-.76,3.5,3.5,0,0,1,.23-.73,2.64,2.64,0,0,1,.41-.59,2.45,2.45,0,0,1,.53-.47,2.9,2.9,0,0,1,.68-.28,2.94,2.94,0,0,1,.72-.11h.14a2.67,2.67,0,0,1,.69.1,2.44,2.44,0,0,1,.64.25,2.39,2.39,0,0,1,.5.43,2.18,2.18,0,0,1,.38.55,3,3,0,0,1,.22.7A3.53,3.53,0,0,1,138,80a.28.28,0,0,1,0,.09Zm-1.58-1.21v0a1.18,1.18,0,0,0-.08-.38,1,1,0,0,0-.19-.33,1,1,0,0,0-.32-.2.92.92,0,0,0-.37-.08h-.1a1,1,0,0,0-.37.09.78.78,0,0,0-.3.22,1.43,1.43,0,0,0-.23.41,2.25,2.25,0,0,0-.12.44h2.08Z"/><path class="cls-3" d="M143,77.35v1.5a3,3,0,0,0-1.49-.37.76.76,0,0,0-.48.13.39.39,0,0,0-.17.32.36.36,0,0,0,.06.2.9.9,0,0,0,.2.18l.27.15.35.16.35.17a3,3,0,0,1,.89.67,1.4,1.4,0,0,1,.33,1,1.63,1.63,0,0,1-.64,1.39,2.79,2.79,0,0,1-1.72.5,4.09,4.09,0,0,1-1.85-.38V81.37a3,3,0,0,0,1.75.58q.66,0,.66-.42a.36.36,0,0,0-.06-.2.51.51,0,0,0-.2-.18A1.71,1.71,0,0,0,141,81l-.35-.15-.35-.16A1.84,1.84,0,0,1,139.11,79a1.59,1.59,0,0,1,.68-1.38,2.83,2.83,0,0,1,1.68-.49A4.32,4.32,0,0,1,143,77.35Z"/><path class="cls-3" d="M146.48,78.46v2.79a.63.63,0,0,0,.19.5.68.68,0,0,0,.48.16,1.51,1.51,0,0,0,.85-.24v1.46a3.2,3.2,0,0,1-1.2.19,1.83,1.83,0,0,1-2.07-2.08V78.46h-.88V77.17h.88V75.73h1.75v1.44h1.42v1.29Z"/><path class="cls-3" d="M157.39,83.26l-.49-1.66h-2.84l-.49,1.66h-1.93l2.7-8.09h2.33l2.7,8.09Zm-2.88-3.15h1.94l-.08-.28q-.35-1.18-.57-2c-.15-.55-.24-.91-.27-1.07l-.05-.24a32.58,32.58,0,0,1-.89,3.32Z"/><path class="cls-3" d="M164.17,77.35v1.5a3,3,0,0,0-1.49-.37.74.74,0,0,0-.48.13.39.39,0,0,0-.17.32.36.36,0,0,0,.06.2.72.72,0,0,0,.2.18l.26.15.35.16c.15.07.27.12.35.17a2.85,2.85,0,0,1,.89.67,1.36,1.36,0,0,1,.34,1,1.64,1.64,0,0,1-.65,1.39,2.75,2.75,0,0,1-1.72.5,4,4,0,0,1-1.84-.38V81.37A3,3,0,0,0,162,82q.66,0,.66-.42a.36.36,0,0,0-.06-.2.48.48,0,0,0-.21-.18,1.34,1.34,0,0,0-.26-.14l-.35-.15-.35-.16A1.85,1.85,0,0,1,160.24,79a1.62,1.62,0,0,1,.68-1.38,2.84,2.84,0,0,1,1.69-.49A4.39,4.39,0,0,1,164.17,77.35Z"/><path class="cls-3" d="M165.75,76.13a1,1,0,1,1,.72.3A1,1,0,0,1,165.75,76.13Zm-.15,7.13V77.17h1.75v6.09Z"/><path class="cls-3" d="M169,79.05V77.47a4.29,4.29,0,0,1,2.07-.4,2.9,2.9,0,0,1,1.94.55,2.22,2.22,0,0,1,.63,1.74v3.9h-1.71v-.75a1.53,1.53,0,0,1-1.52.78,1.83,1.83,0,0,1-1.38-.5,1.74,1.74,0,0,1-.5-1.26,1.6,1.6,0,0,1,.64-1.36,3.08,3.08,0,0,1,1.9-.49h.77v-.42c0-.51-.34-.77-1-.77A3.25,3.25,0,0,0,169,79.05Zm2.84,1.71h-.56a1.13,1.13,0,0,0-.69.19.62.62,0,0,0-.24.5c0,.4.24.61.71.61a.75.75,0,0,0,.58-.23.92.92,0,0,0,.2-.62Z"/><path class="cls-3" d="M176.75,77.17v1a1.76,1.76,0,0,1,.7-.8,2.11,2.11,0,0,1,1.14-.3,1.92,1.92,0,0,1,1.46.56,2.31,2.31,0,0,1,.53,1.64v4h-1.75V79.63a1.24,1.24,0,0,0-.25-.82.91.91,0,0,0-.71-.28,1,1,0,0,0-.8.38,1.73,1.73,0,0,0-.32,1.13v3.22H175V77.17Z"/><path class="cls-3" d="M190.26,83.26l-.49-1.66h-2.83l-.49,1.66h-1.93l2.7-8.09h2.32l2.7,8.09Zm-2.88-3.15h2l-.09-.28q-.35-1.18-.57-2c-.15-.55-.24-.91-.27-1.07l0-.24c-.07.44-.36,1.55-.89,3.32Z"/><path class="cls-3" d="M195,77.17v1a1.75,1.75,0,0,1,1.71-1,1.66,1.66,0,0,1,1.71,1.16,1.64,1.64,0,0,1,.68-.85,2.1,2.1,0,0,1,1.13-.31,1.83,1.83,0,0,1,1.42.57,2.4,2.4,0,0,1,.52,1.68v3.9h-1.75V79.65a1.48,1.48,0,0,0-.2-.82.68.68,0,0,0-.59-.3,1,1,0,0,0-.73.33,1.7,1.7,0,0,0-.32,1.18v3.22h-1.75V79.65a1.48,1.48,0,0,0-.2-.82.67.67,0,0,0-.59-.3,1,1,0,0,0-.73.33A1.7,1.7,0,0,0,195,80v3.22h-1.76V77.17Z"/><path class="cls-3" d="M208.58,80.81h-3.69a1.8,1.8,0,0,0,.17.47,1.11,1.11,0,0,0,.7.63,1.24,1.24,0,0,0,.46.1h.09a2.09,2.09,0,0,0,.38-.05,1.94,1.94,0,0,0,.36-.11,1,1,0,0,0,.33-.21,1.45,1.45,0,0,0,.28-.27l.78.9a1.94,1.94,0,0,1-.4.42,2.14,2.14,0,0,1-.5.33,3.08,3.08,0,0,1-.63.21,3,3,0,0,1-.66.09h-.16a3.23,3.23,0,0,1-.75-.11,2.88,2.88,0,0,1-.71-.26,2.74,2.74,0,0,1-.55-.46,2.4,2.4,0,0,1-.44-.58,3.31,3.31,0,0,1-.27-.69,3.16,3.16,0,0,1-.11-.73v-.21a.19.19,0,0,1,0-.08,3.24,3.24,0,0,1,.1-.76,5.31,5.31,0,0,1,.23-.73,3,3,0,0,1,.41-.59,2.71,2.71,0,0,1,.53-.47,2.9,2.9,0,0,1,.68-.28,3.08,3.08,0,0,1,.72-.11h.15a2.67,2.67,0,0,1,.69.1,2.59,2.59,0,0,1,.64.25,2.68,2.68,0,0,1,.5.43,2.18,2.18,0,0,1,.38.55,3.64,3.64,0,0,1,.22.7,3.53,3.53,0,0,1,.09.73s0,.06,0,.09ZM207,79.6v0a1,1,0,0,0-.08-.38,1,1,0,0,0-.18-.33,1,1,0,0,0-.33-.2.88.88,0,0,0-.37-.08h-.09a.87.87,0,0,0-.37.09.91.91,0,0,0-.31.22,1.42,1.42,0,0,0-.22.41,1.39,1.39,0,0,0-.12.44H207Z"/><path class="cls-3" d="M211.55,77.17V78.3a1.7,1.7,0,0,1,.55-.84,1.37,1.37,0,0,1,.91-.32,1.5,1.5,0,0,1,.46,0v1.65a1.59,1.59,0,0,0-.66-.13,1.17,1.17,0,0,0-.92.41,1.68,1.68,0,0,0-.34,1.1v3h-1.76l0-6.09Z"/><path class="cls-3" d="M214.46,76.13a1,1,0,1,1,.72.3A1,1,0,0,1,214.46,76.13Zm-.15,7.13V77.17h1.75v6.09Z"/><path class="cls-3" d="M219,80.23a1.85,1.85,0,0,0,.48,1.25,1.51,1.51,0,0,0,1.14.45,2.74,2.74,0,0,0,1.45-.42V83a3.47,3.47,0,0,1-1.7.38,3.12,3.12,0,0,1-2.26-.87,3,3,0,0,1-.88-2.25,3.21,3.21,0,0,1,.88-2.26,3.17,3.17,0,0,1,2.37-.89,3.3,3.3,0,0,1,1.59.35v1.5a2.55,2.55,0,0,0-1.41-.4,1.65,1.65,0,0,0-1.19.44A1.72,1.72,0,0,0,219,80.23Z"/><path class="cls-3" d="M223.33,79.05V77.47a4.29,4.29,0,0,1,2.07-.4,2.9,2.9,0,0,1,1.94.55,2.22,2.22,0,0,1,.63,1.74v3.9h-1.71v-.75a1.52,1.52,0,0,1-1.51.78,1.84,1.84,0,0,1-1.39-.5,1.74,1.74,0,0,1-.5-1.26,1.6,1.6,0,0,1,.64-1.36,3.08,3.08,0,0,1,1.9-.49h.77v-.42c0-.51-.34-.77-1-.77A3.25,3.25,0,0,0,223.33,79.05Zm2.84,1.71h-.56a1.13,1.13,0,0,0-.69.19.62.62,0,0,0-.24.5c0,.4.24.61.71.61a.75.75,0,0,0,.58-.23.92.92,0,0,0,.2-.62Z"/><path class="cls-3" d="M231.12,77.17v1a1.76,1.76,0,0,1,.7-.8,2.11,2.11,0,0,1,1.14-.3,1.92,1.92,0,0,1,1.46.56,2.31,2.31,0,0,1,.53,1.64v4H233.2V79.63a1.24,1.24,0,0,0-.25-.82.91.91,0,0,0-.71-.28,1,1,0,0,0-.8.38,1.73,1.73,0,0,0-.32,1.13v3.22h-1.75V77.17Z"/><path class="cls-3" d="M244.06,75.53v1.73a3.94,3.94,0,0,0-2-.57,1.11,1.11,0,0,0-.71.2.57.57,0,0,0-.25.49.66.66,0,0,0,.3.53,4.37,4.37,0,0,0,.9.5l.62.29a5.92,5.92,0,0,1,.56.35,2.35,2.35,0,0,1,.51.47,2.48,2.48,0,0,1,.32.61,2.45,2.45,0,0,1,.13.78,2.22,2.22,0,0,1-.81,1.77,3.18,3.18,0,0,1-2.13.67,4.71,4.71,0,0,1-2.33-.5V81a3.88,3.88,0,0,0,2.33.79,1,1,0,0,0,.69-.22.7.7,0,0,0,.28-.58.59.59,0,0,0,0-.23.41.41,0,0,0-.13-.2,1.41,1.41,0,0,0-.18-.17l-.27-.15-.29-.15-.36-.17-.37-.17a3.75,3.75,0,0,1-1.26-.89,2,2,0,0,1-.47-1.4,2.07,2.07,0,0,1,.77-1.69,3.25,3.25,0,0,1,2.12-.64A5,5,0,0,1,244.06,75.53Z"/><path class="cls-3" d="M247.56,78.46v2.79a.67.67,0,0,0,.18.5.72.72,0,0,0,.49.16,1.53,1.53,0,0,0,.85-.24v1.46a3.2,3.2,0,0,1-1.2.19,1.83,1.83,0,0,1-2.07-2.08V78.46h-.88V77.17h.88V75.73h1.75v1.44H249v1.29Z"/><path class="cls-3" d="M253.94,77.17h1.75v6.09h-1.75v-1a1.85,1.85,0,0,1-1.85,1,2,2,0,0,1-1.46-.53,2.07,2.07,0,0,1-.52-1.54V77.17h1.75v3.68c0,.71.31,1.06.94,1.06s1.14-.5,1.14-1.52Z"/><path class="cls-3" d="M261.28,74.77H263v8.49h-1.75v-1a2,2,0,0,1-1.82,1,2.31,2.31,0,0,1-1.91-.92,3.56,3.56,0,0,1-.71-2.21,3.3,3.3,0,0,1,.74-2.27,2.45,2.45,0,0,1,1.89-.83,2,2,0,0,1,1.81,1Zm-1.34,7.1a1.19,1.19,0,0,0,1-.47,1.94,1.94,0,0,0,.37-1.25,1.64,1.64,0,0,0-.4-1.18,1.29,1.29,0,0,0-1-.42A1.19,1.19,0,0,0,259,79a1.84,1.84,0,0,0-.37,1.23,1.75,1.75,0,0,0,.38,1.19A1.2,1.2,0,0,0,259.94,81.87Z"/><path class="cls-3" d="M269.54,80.81h-3.69a1.5,1.5,0,0,0,.17.47,1.36,1.36,0,0,0,.3.41,1.61,1.61,0,0,0,.86.32h.09a1.9,1.9,0,0,0,.37-.05,2.07,2.07,0,0,0,.37-.11,1.13,1.13,0,0,0,.33-.21,1.45,1.45,0,0,0,.28-.27l.78.9a1.94,1.94,0,0,1-.4.42,2.37,2.37,0,0,1-.5.33,3.31,3.31,0,0,1-.63.21,3,3,0,0,1-.66.09h-.16a3.31,3.31,0,0,1-.76-.11,2.94,2.94,0,0,1-.7-.26,2.74,2.74,0,0,1-.55-.46,2.4,2.4,0,0,1-.44-.58,3.31,3.31,0,0,1-.27-.69,3.16,3.16,0,0,1-.11-.73v-.21a.19.19,0,0,1,0-.08,3.24,3.24,0,0,1,.1-.76,4.22,4.22,0,0,1,.23-.73,3,3,0,0,1,.41-.59,2.45,2.45,0,0,1,.53-.47,2.9,2.9,0,0,1,.68-.28,2.94,2.94,0,0,1,.72-.11H267a2.67,2.67,0,0,1,.69.1,2.59,2.59,0,0,1,.64.25,3,3,0,0,1,.5.43,2.12,2.12,0,0,1,.37.55,3,3,0,0,1,.23.7,3.53,3.53,0,0,1,.09.73s0,.06,0,.09ZM268,79.6v0a1.18,1.18,0,0,0-.08-.38,1,1,0,0,0-.18-.33,1,1,0,0,0-.33-.2.88.88,0,0,0-.37-.08h-.1a.87.87,0,0,0-.36.09.82.82,0,0,0-.31.22,1.22,1.22,0,0,0-.22.41,1.78,1.78,0,0,0-.13.44H268Z"/><path class="cls-3" d="M272.51,77.17v1a1.76,1.76,0,0,1,.7-.8,2.11,2.11,0,0,1,1.14-.3,1.92,1.92,0,0,1,1.46.56,2.31,2.31,0,0,1,.53,1.64v4h-1.75V79.63a1.19,1.19,0,0,0-.26-.82.87.87,0,0,0-.7-.28,1,1,0,0,0-.8.38,1.73,1.73,0,0,0-.32,1.13v3.22h-1.75V77.17Z"/><path class="cls-3" d="M279.75,78.46v2.79a.63.63,0,0,0,.19.5.68.68,0,0,0,.48.16,1.57,1.57,0,0,0,.86-.24v1.46a3.27,3.27,0,0,1-1.2.19A1.84,1.84,0,0,1,278,81.24V78.46h-.88V77.17H278V75.73h1.75v1.44h1.42v1.29Z"/><path class="cls-3" d="M286.2,77.35v1.5a3,3,0,0,0-1.49-.37.74.74,0,0,0-.48.13.39.39,0,0,0-.17.32.36.36,0,0,0,.06.2.72.72,0,0,0,.2.18l.26.15.35.16c.15.07.27.12.35.17a2.85,2.85,0,0,1,.89.67,1.36,1.36,0,0,1,.34,1,1.64,1.64,0,0,1-.65,1.39,2.75,2.75,0,0,1-1.72.5,4,4,0,0,1-1.84-.38V81.37a3,3,0,0,0,1.75.58q.66,0,.66-.42a.36.36,0,0,0-.06-.2.48.48,0,0,0-.21-.18,1.34,1.34,0,0,0-.26-.14l-.35-.15-.35-.16A1.85,1.85,0,0,1,282.27,79a1.62,1.62,0,0,1,.68-1.38,2.84,2.84,0,0,1,1.69-.49A4.39,4.39,0,0,1,286.2,77.35Z"/><path class="cls-3" d="M295.32,80.14v-5h1.84v5a3.14,3.14,0,0,1-.88,2.41,3.85,3.85,0,0,1-4.79,0,3,3,0,0,1-.9-2.34v-5h1.85v5q0,1.5,1.44,1.5T295.32,80.14Z"/><path class="cls-3" d="M300.42,77.17v1a1.7,1.7,0,0,1,.7-.8,2,2,0,0,1,1.13-.3,1.94,1.94,0,0,1,1.47.56,2.31,2.31,0,0,1,.52,1.64v4h-1.75V79.63a1.18,1.18,0,0,0-.25-.82.89.89,0,0,0-.71-.28,1,1,0,0,0-.8.38,1.73,1.73,0,0,0-.31,1.13v3.22h-1.76V77.17Z"/><path class="cls-3" d="M305.81,76.13a1,1,0,1,1,.72.3A1,1,0,0,1,305.81,76.13Zm-.16,7.13V77.17h1.75v6.09Z"/><path class="cls-3" d="M311.53,83.35a2.81,2.81,0,0,1-2.2-.85,3.14,3.14,0,0,1-.79-2.21,3.36,3.36,0,0,1,.82-2.31,3.14,3.14,0,0,1,4.37,0,3.25,3.25,0,0,1,.78,2.24,3.29,3.29,0,0,1-.79,2.27A2.74,2.74,0,0,1,311.53,83.35Zm0-4.89a.93.93,0,0,0-.86.49,2.41,2.41,0,0,0-.29,1.27,2.55,2.55,0,0,0,.29,1.28,1,1,0,0,0,.88.5.92.92,0,0,0,.86-.49,2.45,2.45,0,0,0,.28-1.26C312.68,79.05,312.3,78.46,311.52,78.46Z"/><path class="cls-3" d="M317.39,77.17v1a1.7,1.7,0,0,1,.7-.8,2.07,2.07,0,0,1,1.13-.3,1.93,1.93,0,0,1,1.47.56,2.31,2.31,0,0,1,.53,1.64v4h-1.76V79.63a1.18,1.18,0,0,0-.25-.82.89.89,0,0,0-.71-.28,1,1,0,0,0-.79.38,1.68,1.68,0,0,0-.32,1.13v3.22h-1.75V77.17Z"/><circle class="cls-2" cx="49.72" cy="53.23" r="37.56"/><path class="cls-3" d="M62.62,53.56a78.06,78.06,0,0,1-9.76-4,24.62,24.62,0,0,1-4.19-2.4,11.4,11.4,0,0,1-3.54-4.06A10,10,0,0,1,43.93,37a8.87,8.87,0,0,1,3.16-5.81A8,8,0,0,1,54,29.6l.06,0a8.51,8.51,0,0,1,6,6.87c.35,3.22-1.93,6.29-4.87,6.56a5.18,5.18,0,0,1-5.49-4.3,4.09,4.09,0,0,1,.3-2.09,3.43,3.43,0,0,1,1-1.27,2.79,2.79,0,0,1,1.41-.66,2.15,2.15,0,0,1,2.29,1.06,1.87,1.87,0,0,1,.43,1.12c0,.32-.13.81-.36.85s-.49-.86-1.09-1a1.31,1.31,0,0,0-1.18.77,1.81,1.81,0,0,0,.16,1.62,2.16,2.16,0,0,0,.8.83,2.29,2.29,0,0,0,1.42.41,2.59,2.59,0,0,0,1.58-.84,3.3,3.3,0,0,0,.75-1.17,4.54,4.54,0,0,0,.19-2.9A4.77,4.77,0,0,0,55,32.79a5.3,5.3,0,0,0-3.41-.51,5.58,5.58,0,0,0-3.17,1.63,5.76,5.76,0,0,0-1.33,2.44c-.91,3.31,1.27,6.29,1.42,6.49a8.48,8.48,0,0,0,6.6,3.2,7.51,7.51,0,0,0,7.19-5.81l0-.15a12,12,0,0,0-.33-7c-1.94-4.92-7.5-6.27-7.73-6.32a11.64,11.64,0,0,0-9.44,2.15c-4,3.21-4.17,8-4.22,9.37-.06,2.17.92,5,1.23,6.6V45c.35,2.61,1.38,6.41,1.57,10.42a38.22,38.22,0,0,1,0,4.8,11,11,0,0,1-1.66,4.74,10.07,10.07,0,0,1-4.68,4.14,8.87,8.87,0,0,1-6.6.23,8,8,0,0,1-4.88-5.16.64.64,0,0,0,0-.07,8.54,8.54,0,0,1,2.9-8.64c2.59-1.93,6.4-1.52,8.11.87a5.17,5.17,0,0,1-.91,6.91,4.17,4.17,0,0,1-1.95.81,3.63,3.63,0,0,1-1.6-.2,2.87,2.87,0,0,1-1.28-.89,2.27,2.27,0,0,1-.54-1.32,2.34,2.34,0,0,1,.29-1.19,1.89,1.89,0,0,1,.75-.93c.28-.16.76-.31.92-.13s-.5.86-.28,1.43a1.28,1.28,0,0,0,1.26.63,1.79,1.79,0,0,0,1.31-1,2.53,2.53,0,0,0-.06-2.54A2.52,2.52,0,0,0,33,57a3.18,3.18,0,0,0-1.38-.06A4.54,4.54,0,0,0,29,58.25a4.73,4.73,0,0,0-1.17,3.39,5.22,5.22,0,0,0,1.3,3.2,5.4,5.4,0,0,0,5.78,1.81c3.32-.89,4.78-4.28,4.88-4.52a8.5,8.5,0,0,0-.6-7.31,7.73,7.73,0,0,0-4.1-3.23,7.86,7.86,0,0,0-4.55,0l-.15,0a12.07,12.07,0,0,0-5.86,3.84C21.31,59.62,23,65.09,23,65.32a11.71,11.71,0,0,0,6.64,7.05c4.82,1.83,9-.47,10.21-1.13,1.76-1,3.53-3.06,4.76-4l.14-.1c2.13-1.6,5-4.36,8.41-6.51a36.31,36.31,0,0,1,6-3.3,8.08,8.08,0,0,1,1.39-.24,9.27,9.27,0,0,1,6.14,1.12A8.88,8.88,0,0,1,71,63.27a8,8,0,0,1-1,7l0,.06a8.54,8.54,0,0,1-8.59,3.05c-3.12-.85-5.14-4.1-4.32-6.92a5.19,5.19,0,0,1,6-3.55,4.1,4.1,0,0,1,1.83,1,3.57,3.57,0,0,1,.83,1.38,2.8,2.8,0,0,1,.09,1.55,2.28,2.28,0,0,1-.7,1.25,2.39,2.39,0,0,1-1.12.49,1.8,1.8,0,0,1-1.19,0c-.3-.12-.72-.42-.67-.65s1-.14,1.3-.66A1.29,1.29,0,0,0,63,66a1.77,1.77,0,0,0-1.56-.44,2.27,2.27,0,0,0-1.07.44,2.31,2.31,0,0,0-.89,1.17,2.56,2.56,0,0,0,.2,1.78A3.12,3.12,0,0,0,60.54,70a4.43,4.43,0,0,0,2.63,1.24,4.7,4.7,0,0,0,3.39-1.17,5.29,5.29,0,0,0,1.72-3,5.41,5.41,0,0,0-2.14-5.67c-2.75-2.06-6.32-1.12-6.57-1a8.47,8.47,0,0,0-5.39,5A7.49,7.49,0,0,0,57,74.17l.12.09a12,12,0,0,0,6.63,2.25c5.29,0,8.58-4.69,8.71-4.89A11.74,11.74,0,0,0,73.88,62c-1.51-4.82-5.88-6.76-7.19-7.34A33,33,0,0,0,62.62,53.56Z"/></svg>