<svg id="Layer_1" data-name="Layer 1" xmlns="http://www.w3.org/2000/svg" viewBox="0 0 130.47 223.94"><defs><style>.cls-1{fill:#404041;}.cls-2,.cls-4{fill:#fff;}.cls-3{fill:#d12329;}.cls-4{font-size:23.49px;font-family:Hind-Modified;}.cls-5{letter-spacing:-0.01em;}.cls-6{letter-spacing:-0.01em;}.cls-7{letter-spacing:0em;}.cls-8{letter-spacing:-0.02em;}.cls-9{letter-spacing:-0.01em;}.cls-10{letter-spacing:0em;}.cls-11{font-size:12.92px;}.cls-12{letter-spacing:0em;}.cls-13{letter-spacing:0em;}.cls-14{letter-spacing:-0.01em;}.cls-15{letter-spacing:0em;}.cls-16{letter-spacing:0em;}.cls-17{letter-spacing:0em;}.cls-18{letter-spacing:0em;}.cls-19{letter-spacing:-0.01em;}.cls-20{letter-spacing:0em;}.cls-21{letter-spacing:0em;}.cls-22{letter-spacing:0em;}.cls-23{letter-spacing:-0.01em;}.cls-24{letter-spacing:0em;}.cls-25{letter-spacing:0em;}.cls-26{letter-spacing:0em;}.cls-27{letter-spacing:0em;}.cls-28{letter-spacing:0em;}</style></defs><title>Logo-AltDark</title><rect class="cls-1" width="130.47" height="223.94"/><path class="cls-2" d="M18.79,120.69s0,1.76-.07,2.67c0,1.21-.13,2.39-.22,3.53l-.66,8.22H13l1.83-21.22h5.32l3,7.68c.51,1.28.94,2.46,1.29,3.53s.59,1.82.7,2.26l.15.63a56.71,56.71,0,0,1,2.21-6.42l3-7.68h5.32L38,135.11H33.12l-.79-8.22-.41-6.2s-1.3,3.64-2.27,6.2l-3,8H23.79l-3-8c-.42-1.11-.83-2.27-1.22-3.49C19.31,122.47,18.79,120.69,18.79,120.69Z"/><path class="cls-2" d="M55,135.11l-1.29-4.34H46.25L45,135.11H39.89L47,113.89h6.11l7.08,21.22Zm-7.56-8.25h5.1l-.22-.76c-.61-2-1.11-3.81-1.5-5.25s-.62-2.39-.7-2.81l-.13-.63q-.26,1.74-2.33,8.69Z"/><path class="cls-2" d="M76.8,135.11l-1.3-4.34H68.07l-1.29,4.34H61.71l7.09-21.22h6.11L82,135.11Zm-7.56-8.25h5.1l-.22-.76c-.61-2-1.11-3.81-1.5-5.25s-.62-2.39-.71-2.81l-.12-.63q-.26,1.74-2.33,8.69Z"/><path class="cls-2" d="M96.61,114.83v4.54a10.38,10.38,0,0,0-5.29-1.48,3,3,0,0,0-1.88.5,1.57,1.57,0,0,0-.64,1.29,1.76,1.76,0,0,0,.78,1.4A11.6,11.6,0,0,0,92,122.39c.65.29,1.19.55,1.62.77a14.66,14.66,0,0,1,1.48.91,6.07,6.07,0,0,1,1.32,1.23,5.93,5.93,0,0,1,.83,1.59,5.7,5.7,0,0,1,.35,2,5.76,5.76,0,0,1-2.11,4.64,8.38,8.38,0,0,1-5.6,1.78A12.44,12.44,0,0,1,83.73,134v-4.88a10.24,10.24,0,0,0,6.11,2.08,2.8,2.8,0,0,0,1.82-.59,1.85,1.85,0,0,0,.73-1.52,2,2,0,0,0-.1-.6A1.44,1.44,0,0,0,92,128a5.55,5.55,0,0,0-.49-.42,5.22,5.22,0,0,0-.7-.41l-.77-.39-.93-.45-1-.44a9.91,9.91,0,0,1-3.29-2.33,5.29,5.29,0,0,1-1.24-3.68,5.47,5.47,0,0,1,2-4.42,8.41,8.41,0,0,1,5.58-1.69A13,13,0,0,1,96.61,114.83Z"/><path class="cls-2" d="M112.62,126.92v-13h4.85v13c0,2.77-.77,4.89-2.33,6.35a10.12,10.12,0,0,1-12.56,0,7.9,7.9,0,0,1-2.36-6.14V113.89h4.85v13.19q0,3.95,3.78,3.94C111.37,131,112.62,129.65,112.62,126.92Z"/><circle class="cls-3" cx="65.23" cy="58.88" r="44.48"/><path class="cls-2" d="M80.51,59.29A92,92,0,0,1,69,54.56a28.65,28.65,0,0,1-5-2.83,13.5,13.5,0,0,1-4.2-4.81,11.92,11.92,0,0,1-1.41-7.26,10.44,10.44,0,0,1,3.73-6.87,9.48,9.48,0,0,1,8.2-1.88l.08,0c3,.94,6.62,3.86,7.08,8.15.41,3.81-2.29,7.44-5.77,7.76a6.14,6.14,0,0,1-6.5-5.09,4.83,4.83,0,0,1,.35-2.47,4,4,0,0,1,1.16-1.51A3.4,3.4,0,0,1,68.38,37a2.52,2.52,0,0,1,2.71,1.25,2.23,2.23,0,0,1,.51,1.33c0,.38-.15,1-.43,1s-.57-1-1.29-1.15a1.53,1.53,0,0,0-1.39.92,2.08,2.08,0,0,0,.19,1.91,2.7,2.7,0,0,0,.95,1,2.66,2.66,0,0,0,1.68.47,3,3,0,0,0,1.87-1,3.73,3.73,0,0,0,.88-1.38,5.34,5.34,0,0,0,.23-3.44,5.61,5.61,0,0,0-2.75-3.23,6.24,6.24,0,0,0-4.05-.6,6.38,6.38,0,0,0-5.32,4.81c-1.09,3.93,1.49,7.45,1.68,7.7a10,10,0,0,0,7.82,3.78,9.2,9.2,0,0,0,5.76-2.24,9.3,9.3,0,0,0,2.75-4.64s0-.09,0-.17a14.23,14.23,0,0,0-.4-8.29c-2.29-5.82-8.87-7.42-9.15-7.49a13.89,13.89,0,0,0-11.19,2.55c-4.76,3.81-4.93,9.48-5,11.1C54.43,43.76,55.6,47.05,56,49a.41.41,0,0,1,0,.11c.41,3.09,1.63,7.6,1.86,12.33a44.55,44.55,0,0,1,0,5.69,12.85,12.85,0,0,1-2,5.62,11.91,11.91,0,0,1-5.54,4.9,10.53,10.53,0,0,1-7.82.27,9.51,9.51,0,0,1-5.78-6.11s0-.06,0-.08c-.73-3.11,0-7.67,3.43-10.24,3.07-2.28,7.58-1.8,9.61,1a6.14,6.14,0,0,1-1.08,8.19,4.84,4.84,0,0,1-2.31,1,4.19,4.19,0,0,1-1.89-.24,3.41,3.41,0,0,1-1.52-1,2.53,2.53,0,0,1-.29-3,2.21,2.21,0,0,1,.88-1.11c.33-.19.9-.36,1.09-.14s-.59,1-.33,1.69a1.53,1.53,0,0,0,1.49.74,2.09,2.09,0,0,0,1.55-1.14,2.6,2.6,0,0,0,.37-1.31,2.74,2.74,0,0,0-.44-1.69,3,3,0,0,0-1.8-1.11,3.58,3.58,0,0,0-1.64-.06,5.35,5.35,0,0,0-3.09,1.55,5.62,5.62,0,0,0-1.38,4,6.28,6.28,0,0,0,1.54,3.79,6.38,6.38,0,0,0,6.85,2.14c3.93-1,5.66-5.07,5.77-5.35a10,10,0,0,0-.7-8.66A9.24,9.24,0,0,0,47.93,57a9.12,9.12,0,0,0-5.38,0l-.18,0a14.39,14.39,0,0,0-6.94,4.55c-3.85,4.94-1.89,11.42-1.8,11.69a13.84,13.84,0,0,0,7.87,8.34c5.7,2.18,10.67-.55,12.09-1.33,2.08-1.14,4.17-3.63,5.64-4.74l.17-.11c2.51-1.9,5.95-5.17,9.95-7.71a42.23,42.23,0,0,1,7.07-3.91,9.2,9.2,0,0,1,1.65-.29,11,11,0,0,1,7.27,1.33,10.53,10.53,0,0,1,5,6,9.53,9.53,0,0,1-1.24,8.32s0,.05-.06.06c-2,2.5-6,4.76-10.17,3.62-3.69-1-6.09-4.85-5.12-8.2a6.15,6.15,0,0,1,7.12-4.2,4.83,4.83,0,0,1,2.17,1.23,4,4,0,0,1,1,1.63,3.31,3.31,0,0,1,.11,1.84,2.74,2.74,0,0,1-.83,1.48,2.9,2.9,0,0,1-1.32.59,2.3,2.3,0,0,1-1.42,0c-.35-.15-.84-.49-.79-.77s1.17-.17,1.54-.78A1.51,1.51,0,0,0,81,74a2.11,2.11,0,0,0-1.85-.53A2.75,2.75,0,0,0,77.9,74a2.72,2.72,0,0,0-1.06,1.39,3,3,0,0,0,.24,2.11,3.88,3.88,0,0,0,1,1.33,5.36,5.36,0,0,0,3.12,1.47,5.61,5.61,0,0,0,4-1.39,6.19,6.19,0,0,0,2-3.55,6.61,6.61,0,0,0-.42-4.19,6.73,6.73,0,0,0-2.11-2.52c-3.26-2.44-7.49-1.33-7.78-1.24a10,10,0,0,0-6.38,5.89,8.89,8.89,0,0,0,3.3,10.44l.14.11a14.32,14.32,0,0,0,7.86,2.66c6.26,0,10.15-5.56,10.31-5.79a13.91,13.91,0,0,0,1.71-11.35c-1.78-5.71-7-8-8.51-8.69A35,35,0,0,0,80.51,59.29Z"/><text class="cls-4" transform="translate(19.55 175.34)"><tspan class="cls-5">M</tspan><tspan class="cls-6" x="20.85" y="0">i</tspan><tspan class="cls-7" x="27.14" y="0">d</tspan><tspan class="cls-8" x="41.47" y="0">w</tspan><tspan class="cls-9" x="59.86" y="0">e</tspan><tspan class="cls-10" x="72.08" y="0">s</tspan><tspan x="82.3" y="0">t</tspan><tspan class="cls-11"><tspan class="cls-12" x="0.36" y="15.5">A</tspan><tspan class="cls-13" x="9.22" y="15.5">s</tspan><tspan class="cls-14" x="14.83" y="15.5">i</tspan><tspan class="cls-15" x="18.33" y="15.5">a</tspan><tspan x="25.01" y="15.5">n </tspan><tspan class="cls-16" x="35.73" y="15.5">A</tspan><tspan class="cls-17" x="44.59" y="15.5">m</tspan><tspan class="cls-18" x="55.63" y="15.5">e</tspan><tspan x="62.46" y="15.5">r</tspan><tspan class="cls-19" x="67.24" y="15.5">i</tspan><tspan class="cls-20" x="70.72" y="15.5">c</tspan><tspan class="cls-15" x="76.83" y="15.5">a</tspan><tspan x="83.51" y="15.5">n</tspan><tspan class="cls-21" x="0.89" y="31">S</tspan><tspan x="7.56" y="31">t</tspan><tspan class="cls-22" x="12.55" y="31">u</tspan><tspan class="cls-23" x="20.05" y="31">d</tspan><tspan class="cls-24" x="27.87" y="31">e</tspan><tspan x="34.7" y="31">n</tspan><tspan class="cls-25" x="42.19" y="31">t</tspan><tspan x="47.17" y="31">s </tspan><tspan class="cls-26" x="56.03" y="31">U</tspan><tspan class="cls-27" x="64.72" y="31">n</tspan><tspan class="cls-14" x="72.17" y="31">i</tspan><tspan class="cls-28" x="75.67" y="31">o</tspan><tspan x="82.98" y="31">n</tspan></tspan></text><rect class="cls-3" x="12.99" y="144.4" width="104.48" height="5.36" rx="2.68"/></svg>