<?xml version="1.0" encoding="UTF-8" standalone="no"?>
<svg
   xmlns:dc="http://purl.org/dc/elements/1.1/"
   xmlns:cc="http://creativecommons.org/ns#"
   xmlns:rdf="http://www.w3.org/1999/02/22-rdf-syntax-ns#"
   xmlns:svg="http://www.w3.org/2000/svg"
   xmlns="http://www.w3.org/2000/svg"
   xmlns:sodipodi="http://sodipodi.sourceforge.net/DTD/sodipodi-0.dtd"
   xmlns:inkscape="http://www.inkscape.org/namespaces/inkscape"
   inkscape:version="1.0 (4035a4fb49, 2020-05-01)"
   sodipodi:docname="logo-square.svg"
   version="1.1"
   viewBox="0 0 300 300"
   data-name="Layer 1"
   id="Layer_1">
  <metadata
     id="metadata220">
    <rdf:RDF>
      <cc:Work
         rdf:about="">
        <dc:format>image/svg+xml</dc:format>
        <dc:type
           rdf:resource="http://purl.org/dc/dcmitype/StillImage" />
        <dc:title>LogoSymbol</dc:title>
      </cc:Work>
    </rdf:RDF>
  </metadata>
  <sodipodi:namedview
     inkscape:current-layer="Layer_1"
     inkscape:window-maximized="0"
     inkscape:window-y="50"
     inkscape:window-x="10"
     inkscape:cy="114.4188"
     inkscape:cx="10.071882"
     inkscape:zoom="1.9657569"
     showgrid="false"
     id="namedview218"
     inkscape:window-height="1020"
     inkscape:window-width="1900"
     inkscape:pageshadow="2"
     inkscape:pageopacity="0"
     guidetolerance="10"
     gridtolerance="10"
     objecttolerance="10"
     borderopacity="1"
     bordercolor="#666666"
     pagecolor="#ffffff"
     inkscape:document-rotation="0" />
  <defs
     id="defs203">
    <style
       id="style201">.cls-1{fill:#d12329;}.cls-2{fill:#fff;}</style>
  </defs>
  <title
     id="title205">LogoSymbol</title>
  <rect
     y="0"
     x="0"
     height="300"
     width="300"
     id="rect86"
     style="fill:#000000;fill-rule:evenodd;stroke-width:1.07851" />
  <path
     id="path209"
     d="M198.07,151.26a4.34,4.34,0,0,1,.28,8.2,215.18,215.18,0,0,0-66.72,42.41,4.33,4.33,0,0,1-7.27-3.81,192.62,192.62,0,0,0,2.3-40,192.37,192.37,0,0,0-5.84-38.83,4.33,4.33,0,0,1,6.87-4.47,224,224,0,0,0,34,21.61A224.21,224.21,0,0,0,198.07,151.26Z"
     class="cls-2" />
  <path
     id="path211"
     d="M146.54,127.8c-2.72,2.76-6.95,6.11-11.69,5.7-11.14-1-19.12-22.29-18.61-39.19.15-5.11.69-22.94,15.7-34.92,15.3-12.22,33.29-8.46,35.2-8,.87.19,21.58,5.23,28.81,23.57,4.21,10.68,2.33,22,1.25,26.07-.07.26-.12.45-.15.55a28,28,0,0,1-26.81,21.66c-15,.43-24-11.1-24.59-11.92s-8.72-11.87-5.3-24.22A20.13,20.13,0,0,1,157.1,71.93a19.67,19.67,0,0,1,12.73,1.91c1.35.73,6.79,3.73,8.68,10.15a16.89,16.89,0,0,1-.72,10.83A11.75,11.75,0,0,1,175,99.16a9.36,9.36,0,0,1-5.89,3.13,8.5,8.5,0,0,1-5.29-1.5,8.41,8.41,0,0,1-3-3.1c-.44-.8-1.89-3.48-.6-6,.8-1.59,2.68-3.17,4.38-2.87,2.25.4,2.82,3.83,4.07,3.61.88-.16,1.33-2,1.35-3.19A7,7,0,0,0,168.44,85a8.83,8.83,0,0,0-3.25-3.18,8.4,8.4,0,0,0-5.28-.75,10.57,10.57,0,0,0-5.26,2.43A13.07,13.07,0,0,0,151,88.29a15.35,15.35,0,0,0-1.1,7.79c1.24,9.45,10.74,16.9,20.48,16,10.93-1,19.44-12.45,18.16-24.43C187.07,74.19,175.84,65,166.23,62L166,62c-8.95-2.67-19.08.63-25.79,5.91-9.6,7.55-11.31,18.44-11.76,21.65-1.54,10.94,2.62,19.28,4.45,22.83A42.77,42.77,0,0,0,146.54,127.8Z"
     class="cls-2" />
  <path
     id="path213"
     d="M126.84,174c3.76.94,8.79,2.88,10.84,7.18,4.82,10.09-9.5,27.79-24.32,35.93-4.48,2.46-20.12,11-38,4.19-18.3-7-24.19-24.39-24.79-26.26-.27-.84-6.44-21.25,5.69-36.78C63.28,149.25,74,145.1,78,144l.55-.15A28,28,0,0,1,110.86,156c8,12.66,2.61,26.29,2.22,27.23S107.27,196.72,94.9,200a20.13,20.13,0,0,1-21.56-6.74,19.68,19.68,0,0,1-4.82-11.94c-.06-1.54-.23-7.74,4.34-12.63a17,17,0,0,1,9.7-4.88,11.89,11.89,0,0,1,5.16.2,9.42,9.42,0,0,1,5.68,3.49,8.5,8.5,0,0,1,1.39,5.32A8.25,8.25,0,0,1,93.63,177c-.47.79-2,3.4-4.89,3.58-1.78.12-4.09-.7-4.7-2.32-.8-2.14,1.87-4.37,1-5.33-.58-.68-2.4-.13-3.44.45a7.06,7.06,0,0,0-2.77,3.5,8.86,8.86,0,0,0-1.1,4.42,8.47,8.47,0,0,0,2,4.93,10.54,10.54,0,0,0,4.77,3.3,13.05,13.05,0,0,0,6,.74,15.29,15.29,0,0,0,7.27-3c7.52-5.87,9.11-17.83,3.41-25.78-6.41-8.91-20.59-10.43-30.27-3.24-10.88,8.09-13.1,22.43-10.77,32.22,0,.06,0,.14.06.26,2.24,9.07,10.23,16.12,18.18,19.22,11.38,4.44,21.63.38,24.62-.85,10.21-4.23,15.29-12.05,17.42-15.43A42.87,42.87,0,0,0,126.84,174Z"
     class="cls-2" />
  <path
     id="path215"
     d="M171,171.48c-1.58-3.54-3.16-8.7-1-13,5-10,27.74-9.66,43.28-3,4.7,2,21.11,9,26.78,27.36,5.78,18.71-4.28,34.08-5.39,35.71-.49.73-12.75,18.17-32.46,18.21-11.48,0-21.37-5.88-24.73-8.36l-.45-.34a28,28,0,0,1-10.38-32.86c5.06-14.08,19.09-18.28,20.07-18.55s14.24-3.78,24.49,3.91a20.15,20.15,0,0,1,8,21.13,19.76,19.76,0,0,1-6.43,11.16c-1.17,1-5.95,4.95-12.61,4.37a16.89,16.89,0,0,1-9.83-4.63,11.73,11.73,0,0,1-3-4.18,9.3,9.3,0,0,1-.76-6.62,9.34,9.34,0,0,1,7.29-6c.91-.11,3.94-.48,5.84,1.65,1.19,1.33,2,3.65,1.07,5.12-1.19,1.95-4.59,1.23-4.84,2.47-.18.88,1.37,2,2.47,2.42a7,7,0,0,0,4.47,0,8.86,8.86,0,0,0,4.15-1.86,8.57,8.57,0,0,0,2.63-4.64,10.69,10.69,0,0,0-.35-5.8,13.09,13.09,0,0,0-3.08-5.14,15.45,15.45,0,0,0-6.85-3.87c-9.26-2.3-19.66,3.83-22.39,13.22-3.07,10.54,4.49,22.64,16.12,25.82,13.07,3.58,25.73-3.52,32-11.39l.17-.21c5.75-7.36,6.37-18,3.91-26.17-3.52-11.69-13-17.26-15.86-18.85-9.62-5.43-18.91-4.6-22.88-4.19A42.77,42.77,0,0,0,171,171.48Z"
     class="cls-2" />
</svg>
