<?xml version="1.0" encoding="UTF-8" standalone="no"?>
<svg
   xmlns:dc="http://purl.org/dc/elements/1.1/"
   xmlns:cc="http://creativecommons.org/ns#"
   xmlns:rdf="http://www.w3.org/1999/02/22-rdf-syntax-ns#"
   xmlns:svg="http://www.w3.org/2000/svg"
   xmlns="http://www.w3.org/2000/svg"
   xmlns:sodipodi="http://sodipodi.sourceforge.net/DTD/sodipodi-0.dtd"
   xmlns:inkscape="http://www.inkscape.org/namespaces/inkscape"
   inkscape:version="1.0 (4035a4fb49, 2020-05-01)"
   sodipodi:docname="logo-text.svg"
   version="1.1"
   viewBox="0 0 348.09 106.45"
   data-name="Layer 1"
   id="Layer_1">
  <metadata
     id="metadata3308">
    <rdf:RDF>
      <cc:Work
         rdf:about="">
        <dc:format>image/svg+xml</dc:format>
        <dc:type
           rdf:resource="http://purl.org/dc/dcmitype/StillImage" />
        <dc:title>Logo-wSymbol</dc:title>
      </cc:Work>
    </rdf:RDF>
  </metadata>
  <sodipodi:namedview
     inkscape:current-layer="Layer_1"
     inkscape:window-maximized="0"
     inkscape:window-y="72"
     inkscape:window-x="28"
     inkscape:cy="35.444602"
     inkscape:cx="235.12693"
     inkscape:zoom="2.6042429"
     showgrid="false"
     id="namedview3306"
     inkscape:window-height="978"
     inkscape:window-width="1853"
     inkscape:pageshadow="2"
     inkscape:pageopacity="0"
     guidetolerance="10"
     gridtolerance="10"
     objecttolerance="10"
     borderopacity="1"
     bordercolor="#666666"
     pagecolor="#ffffff"
     inkscape:document-rotation="0" />
  <defs
     id="defs3219">
    <style
       id="style3217">.cls-1{fill:#404041;}.cls-2{fill:#d12329;}.cls-3{fill:#fff;}</style>
  </defs>
  <title
     id="title3221">Logo-wSymbol</title>
  <g
     transform="matrix(0.26828566,0,0,0.26828566,112.25188,107.34309)"
     id="g3838">
    <path
       sodipodi:nodetypes="scccss"
       d="m -233.10487,-341.69957 c -77.30995,0.014 -139.97462,62.69005 -139.97462,140 6.4e-4,0.85488 0.009,1.70973 0.0254,2.56445 l 142.54101,-142.54101 c -0.85537,-0.0156 -1.71088,-0.0235 -2.5664,-0.0234 z"
       style="fill:#d12329"
       id="circle207-3" />
    <path
       sodipodi:nodetypes="cccccc"
       d="m -230.51308,-341.67613 -142.54101,142.54101 c 0.35985,19.63113 4.84497,38.96704 13.16406,56.75196 l 186.12695,-186.12696 c 4.8e-4,-3e-4 0.001,3e-4 0.002,0 -17.78476,-8.31976 -37.12068,-12.80554 -56.75194,-13.16601 z"
       style="fill:#f48915;fill-opacity:1"
       id="circle4909-6" />
    <path
       sodipodi:nodetypes="ccccc"
       d="m -173.76308,-328.51012 -186.12891,186.12891 c 7.14335,15.27103 16.98625,29.12625 29.05469,40.89844 l 197.97266,-197.97266 c -11.77218,-12.06845 -25.6274,-21.91134 -40.89844,-29.05469 z"
       style="fill:#f9ea1d;fill-opacity:1"
       id="circle4903-7" />
    <path
       sodipodi:nodetypes="ccccc"
       d="m -132.86268,-299.45738 -197.97462,197.97461 c 12.04329,11.74722 26.10533,21.22754 41.51172,27.98632 l 184.44922,-184.44922 c -6.75878,-15.40639 -16.23911,-29.46843 -27.98632,-41.51171 z"
       style="fill:#078136;fill-opacity:1"
       id="circle4897-5" />
    <path
       d="m -104.87636,-257.94567 -184.44922,184.44922 a 140,140 0 0 0 56.2461,11.79688 140,140 0 0 0 0.33203,-0.002 l 139.666015,-139.66597 a 140,140 0 0 0 0.002,-0.33203 140,140 0 0 0 -11.796885,-56.2461 z"
       style="fill:#3057a4;fill-opacity:1"
       id="path4885-3" />
    <path
       id="circle4879-5"
       style="fill:#702383;fill-opacity:1"
       d="M -93.081435,-201.36754 -232.74745,-61.70152 a 140,140 0 0 0 139.666015,-139.66602 z" />
    <g
       id="g3703"
       transform="translate(-383.07949,-351.69957)"
       style="fill:#ffffff">
      <path
         class="cls-2"
         d="m 198.07,151.26 a 4.34,4.34 0 0 1 0.28,8.2 215.18,215.18 0 0 0 -66.72,42.41 4.33,4.33 0 0 1 -7.27,-3.81 192.62,192.62 0 0 0 2.3,-40 192.37,192.37 0 0 0 -5.84,-38.83 4.33,4.33 0 0 1 6.87,-4.47 224,224 0 0 0 34,21.61 224.21,224.21 0 0 0 36.38,14.89 z"
         id="path209-6"
         style="fill:#ffffff" />
      <path
         class="cls-2"
         d="m 146.54,127.8 c -2.72,2.76 -6.95,6.11 -11.69,5.7 -11.14,-1 -19.12,-22.29 -18.61,-39.19 0.15,-5.11 0.69,-22.94 15.7,-34.92 15.3,-12.22 33.29,-8.46 35.2,-8 0.87,0.19 21.58,5.23 28.81,23.57 4.21,10.68 2.33,22 1.25,26.07 -0.07,0.26 -0.12,0.45 -0.15,0.55 a 28,28 0 0 1 -26.81,21.66 c -15,0.43 -24,-11.1 -24.59,-11.92 -0.59,-0.82 -8.72,-11.87 -5.3,-24.22 a 20.13,20.13 0 0 1 16.75,-15.17 19.67,19.67 0 0 1 12.73,1.91 c 1.35,0.73 6.79,3.73 8.68,10.15 a 16.89,16.89 0 0 1 -0.72,10.83 11.75,11.75 0 0 1 -2.79,4.34 9.36,9.36 0 0 1 -5.89,3.13 8.5,8.5 0 0 1 -5.29,-1.5 8.41,8.41 0 0 1 -3,-3.1 c -0.44,-0.8 -1.89,-3.48 -0.6,-6 0.8,-1.59 2.68,-3.17 4.38,-2.87 2.25,0.4 2.82,3.83 4.07,3.61 0.88,-0.16 1.33,-2 1.35,-3.19 a 7,7 0 0 0 -1.58,-4.24 8.83,8.83 0 0 0 -3.25,-3.18 8.4,8.4 0 0 0 -5.28,-0.75 10.57,10.57 0 0 0 -5.26,2.43 13.07,13.07 0 0 0 -3.65,4.79 15.35,15.35 0 0 0 -1.1,7.79 c 1.24,9.45 10.74,16.9 20.48,16 10.93,-1 19.44,-12.45 18.16,-24.43 C 187.07,74.19 175.84,65 166.23,62 H 166 c -8.95,-2.67 -19.08,0.63 -25.79,5.91 -9.6,7.55 -11.31,18.44 -11.76,21.65 -1.54,10.94 2.62,19.28 4.45,22.83 a 42.77,42.77 0 0 0 13.64,15.41 z"
         id="path211-2"
         style="fill:#ffffff" />
      <path
         class="cls-2"
         d="m 126.84,174 c 3.76,0.94 8.79,2.88 10.84,7.18 4.82,10.09 -9.5,27.79 -24.32,35.93 -4.48,2.46 -20.12,11 -38,4.19 -18.3,-7 -24.19,-24.39 -24.79,-26.26 C 50.3,194.2 44.13,173.79 56.26,158.26 63.28,149.25 74,145.1 78,144 l 0.55,-0.15 A 28,28 0 0 1 110.86,156 c 8,12.66 2.61,26.29 2.22,27.23 -0.39,0.94 -5.81,13.49 -18.18,16.77 a 20.13,20.13 0 0 1 -21.56,-6.74 19.68,19.68 0 0 1 -4.82,-11.94 c -0.06,-1.54 -0.23,-7.74 4.34,-12.63 a 17,17 0 0 1 9.7,-4.88 11.89,11.89 0 0 1 5.16,0.2 9.42,9.42 0 0 1 5.68,3.49 8.5,8.5 0 0 1 1.39,5.32 8.25,8.25 0 0 1 -1.16,4.18 c -0.47,0.79 -2,3.4 -4.89,3.58 -1.78,0.12 -4.09,-0.7 -4.7,-2.32 -0.8,-2.14 1.87,-4.37 1,-5.33 -0.58,-0.68 -2.4,-0.13 -3.44,0.45 a 7.06,7.06 0 0 0 -2.77,3.5 8.86,8.86 0 0 0 -1.1,4.42 8.47,8.47 0 0 0 2,4.93 10.54,10.54 0 0 0 4.77,3.3 13.05,13.05 0 0 0 6,0.74 15.29,15.29 0 0 0 7.27,-3 c 7.52,-5.87 9.11,-17.83 3.41,-25.78 -6.41,-8.91 -20.59,-10.43 -30.27,-3.24 -10.88,8.09 -13.1,22.43 -10.77,32.22 0,0.06 0,0.14 0.06,0.26 2.24,9.07 10.23,16.12 18.18,19.22 11.38,4.44 21.63,0.38 24.62,-0.85 10.21,-4.23 15.29,-12.05 17.42,-15.43 A 42.87,42.87 0 0 0 126.84,174 Z"
         id="path213-9"
         style="fill:#ffffff" />
      <path
         class="cls-2"
         d="m 171,171.48 c -1.58,-3.54 -3.16,-8.7 -1,-13 5,-10 27.74,-9.66 43.28,-3 4.7,2 21.11,9 26.78,27.36 5.78,18.71 -4.28,34.08 -5.39,35.71 -0.49,0.73 -12.75,18.17 -32.46,18.21 -11.48,0 -21.37,-5.88 -24.73,-8.36 l -0.45,-0.34 A 28,28 0 0 1 166.65,195.2 c 5.06,-14.08 19.09,-18.28 20.07,-18.55 0.98,-0.27 14.24,-3.78 24.49,3.91 a 20.15,20.15 0 0 1 8,21.13 19.76,19.76 0 0 1 -6.43,11.16 c -1.17,1 -5.95,4.95 -12.61,4.37 a 16.89,16.89 0 0 1 -9.83,-4.63 11.73,11.73 0 0 1 -3,-4.18 9.3,9.3 0 0 1 -0.76,-6.62 9.34,9.34 0 0 1 7.29,-6 c 0.91,-0.11 3.94,-0.48 5.84,1.65 1.19,1.33 2,3.65 1.07,5.12 -1.19,1.95 -4.59,1.23 -4.84,2.47 -0.18,0.88 1.37,2 2.47,2.42 a 7,7 0 0 0 4.47,0 8.86,8.86 0 0 0 4.15,-1.86 8.57,8.57 0 0 0 2.63,-4.64 10.69,10.69 0 0 0 -0.35,-5.8 13.09,13.09 0 0 0 -3.08,-5.14 15.45,15.45 0 0 0 -6.85,-3.87 c -9.26,-2.3 -19.66,3.83 -22.39,13.22 -3.07,10.54 4.49,22.64 16.12,25.82 13.07,3.58 25.73,-3.52 32,-11.39 l 0.17,-0.21 c 5.75,-7.36 6.37,-18 3.91,-26.17 -3.52,-11.69 -13,-17.26 -15.86,-18.85 -9.62,-5.43 -18.91,-4.6 -22.88,-4.19 A 42.77,42.77 0 0 0 171,171.48 Z"
         id="path215-1"
         style="fill:#ffffff" />
    </g>
    <path
       id="circle4891-2"
       style="opacity:0;fill:#078136;fill-opacity:1"
       d="m -132.07167,-298.63707 -197.94532,197.94531 a 140,140 0 0 0 96.93751,38.99219 140,140 0 0 0 139.999995,-140 140,140 0 0 0 -38.992185,-96.9375 z" />
  </g>
  <g
     transform="translate(139.20871,-28.323013)"
     id="g4255">
    <path
       class="cls-1"
       d="m -31.629182,56.913208 c 0,0 -0.07,3.95 -0.16,6 q -0.17,4.08 -0.47,7.92 l -1.49,18.42 h -10.87 l 4.1,-47.57 h 11.93 l 6.63,17.22 q 1.69,4.31 2.9,7.91 c 0.8,2.4 1.31,4.09 1.55,5.08 l 0.35,1.41 a 127.88,127.88 0 0 1 4.95,-14.41 l 6.7100001,-17.22 h 11.93 l 4.9399999,47.57 H 0.4908181 l -1.76,-18.42 -0.94,-13.91 c 0,0 -2.92,8.17 -5.08,13.91 l -6.7100001,17.93 h -6.42 l -6.62,-17.93 c -0.94,-2.48 -1.87,-5.1 -2.75,-7.83 -0.67,-2.08 -1.84,-6.08 -1.84,-6.08 z"
       id="path3223-7"
       style="fill:#404040;fill-opacity:1" />
    <path
       class="cls-1"
       d="m 49.490818,89.243208 -2.89,-9.74 h -16.66 l -2.89,9.74 h -11.37 l 15.88,-47.57 h 13.7 l 15.879999,47.57 z m -16.94,-18.49 h 11.44 l -0.5,-1.69 q -2,-6.93 -3.35,-11.79 c -0.87,-3.25 -1.4,-5.34 -1.59,-6.29 l -0.28,-1.41 q -0.57,3.88 -5.22,19.49 z"
       id="path3225-0"
       style="fill:#404040;fill-opacity:1" />
    <path
       class="cls-1"
       d="m 98.410817,89.243208 -2.9,-9.74 h -16.66 l -2.89,9.74 h -11.37 l 15.89,-47.57 h 13.69 l 15.880003,47.57 z m -17,-18.49 h 11.44 l -0.49,-1.69 q -2.06,-6.93 -3.36,-11.79 c -0.87,-3.25 -1.4,-5.34 -1.59,-6.29 l -0.28,-1.41 q -0.57,3.88 -5.22,19.49 z"
       id="path3227-9"
       style="fill:#404040;fill-opacity:1" />
    <path
       class="cls-1"
       d="m 142.79082,43.783208 v 10.17 a 23.32,23.32 0 0 0 -11.86,-3.32 6.76,6.76 0 0 0 -4.2,1.13 3.52,3.52 0 0 0 -1.44,2.9 4,4 0 0 0 1.76,3.14 26.34,26.34 0 0 0 5.3,2.93 c 1.45,0.66 2.67,1.23 3.63,1.73 a 28.4,28.4 0 0 1 3.32,2 12.8,12.8 0 0 1 3,2.76 13.38,13.38 0 0 1 1.87,3.56 13.17,13.17 0 0 1 0.78,4.59 13,13 0 0 1 -4.73,10.41 q -4.73,4 -12.56,4 -8.4,0 -13.7,-3 v -10.88 a 22.89,22.89 0 0 0 13.7,4.66 6.32,6.32 0 0 0 4.09,-1.3 4.43,4.43 0 0 0 1.41,-4.77 3.18,3.18 0 0 0 -0.77,-1.2 10,10 0 0 0 -1.1,-0.95 11.69,11.69 0 0 0 -1.55,-0.92 l -1.73,-0.88 c -0.47,-0.24 -1.17,-0.57 -2.08,-1 -0.91,-0.43 -1.66,-0.75 -2.23,-1 a 22.24,22.24 0 0 1 -7.39,-5.22 11.9,11.9 0 0 1 -2.79,-8.26 12.28,12.28 0 0 1 4.52,-9.92 q 4.51,-3.78 12.49,-3.78 a 29,29 0 0 1 12.26,2.42 z"
       id="path3229-3"
       style="fill:#404040;fill-opacity:1" />
    <path
       class="cls-1"
       d="m 178.72082,70.893208 v -29.22 h 10.87 v 29.15 q 0,9.31 -5.22,14.22 -5.22,4.91 -14.12,4.91 -8.74,0 -14,-4.87 -5.26,-4.87 -5.34,-13.76 v -29.65 h 10.88 v 29.57 q 0,8.84 8.47,8.83 8.47,-0.01 8.46,-9.18 z"
       id="path3231-6"
       style="fill:#404040;fill-opacity:1" />
    <path
       id="path3233-0"
       style="fill:#d12329"
       d="m -44.689416,94.392263 c -1.06,0 -1.279297,0.280781 -1.279297,1.300781 0,7.379996 0.06,14.770156 0,22.160156 0,1.31 0.389844,1.5293 1.589843,1.5293 h 9.748047 l 24.9882821,-24.988284 0.0059,-0.002 z"
       sodipodi:nodetypes="sscscccs" />
    <path
       id="path2624-6"
       style="fill:#f48915;fill-opacity:1"
       d="M -9.6425409,94.394216 -34.632776,119.38445 H 9.8574591 L 34.847693,94.394216 Z"
       sodipodi:nodetypes="ccccc" />
    <path
       id="path2619-2"
       style="fill:#f8e91a;fill-opacity:1"
       d="M 34.847693,94.394216 9.8574591,119.38445 H 55.197297 l 24.99024,-24.990234 z"
       sodipodi:nodetypes="ccccc" />
    <path
       id="path2614-6"
       style="fill:#078136;fill-opacity:1"
       d="m 80.187537,94.394216 -24.99024,24.990234 h 17.32422 27.533213 l 24.99023,-24.990234 z"
       sodipodi:nodetypes="cccccc" />
    <path
       id="path2602-1"
       style="fill:#2f56a3;fill-opacity:1"
       d="m 125.04496,94.394216 -24.99023,24.990234 h 45.10742 l 24.99023,-24.990234 z" />
    <path
       style="fill:#6d207f;fill-opacity:1"
       d="m 170.15215,94.393518 -24.99024,24.990242 h 44.35938 c 1.12,0 1.44945,-0.22039 1.43945,-1.40039 -0.06,-7.44 -0.0662,-14.87412 -0.0195,-22.300782 0,-1 -0.24125,-1.28907 -1.28125,-1.28907 z"
       id="path2596-8" />
    <path
       style="fill:#ffffff"
       class="cls-3"
       d="m -37.209182,111.58321 0.69,-8.09 h 2 l 1.13,2.93 c 0.19,0.49 0.35,0.93 0.49,1.34 0.14,0.41 0.22,0.7 0.26,0.87 l 0.06,0.24 a 21.86,21.86 0 0 1 0.84,-2.45 l 1.14,-2.93 h 2 l 0.84,8.09 h -1.85 l -0.3,-3.13 -0.15,-2.37 q -0.31,0.9 -0.87,2.37 l -1.14,3 h -1.09 l -1.13,-3 c -0.18,-0.5 -0.34,-0.94 -0.46,-1.34 -0.12,-0.4 -0.22,-0.66 -0.26,-0.81 l -0.06,-0.22 c 0,0.57 0,1.36 -0.1,2.37 l -0.26,3.13 z"
       id="path3235-7" />
    <path
       style="fill:#ffffff"
       class="cls-3"
       d="m -26.149182,104.45321 a 1,1 0 1 1 0.72,0.3 1,1 0 0 1 -0.72,-0.3 z m -0.16,7.13 v -6.09 h 1.76 v 6.09 z"
       id="path3237-9" />
    <path
       style="fill:#ffffff"
       class="cls-3"
       d="m -18.969182,103.09321 h 1.76 v 8.49 h -1.75 v -1 a 2,2 0 0 1 -1.83,1 2.3,2.3 0 0 1 -1.9,-0.92 3.56,3.56 0 0 1 -0.71,-2.21 3.3,3.3 0 0 1 0.74,-2.27 2.45,2.45 0 0 1 1.89,-0.83 2,2 0 0 1 1.81,1 z m -1.35,7.1 a 1.21,1.21 0 0 0 1,-0.47 2,2 0 0 0 0.37,-1.25 1.68,1.68 0 0 0 -0.4,-1.18 1.29,1.29 0 0 0 -1,-0.42 1.16,1.16 0 0 0 -0.86,0.45 1.85,1.85 0 0 0 -0.38,1.23 1.76,1.76 0 0 0 0.39,1.19 1.18,1.18 0 0 0 0.88,0.45 z"
       id="path3239-2" />
    <path
       style="fill:#ffffff"
       class="cls-3"
       d="m -14.449182,111.58321 -2,-6.09 h 1.81 l 0.53,2 c 0.13,0.5 0.24,1 0.32,1.36 0.08,0.36 0.14,0.68 0.16,0.83 v 0.23 a 16.36,16.36 0 0 1 0.58,-2.42 l 0.59,-2 h 1.51 l 0.58,2 c 0.14,0.51 0.26,1 0.36,1.37 0.1000001,0.37 0.1600001,0.68 0.1800001,0.84 v 0.21 a 17.53,17.53 0 0 1 0.56,-2.42 l 0.56,-2 h 1.73 l -1.94,6.09 h -1.8000001 l -0.53,-2 c -0.11,-0.44 -0.21,-0.84 -0.29,-1.22 -0.08,-0.38 -0.14,-0.64 -0.17,-0.8 v -0.24 a 21.64,21.64 0 0 1 -0.51,2.26 l -0.52,2 z"
       id="path3241-0" />
    <path
       style="fill:#ffffff"
       class="cls-3"
       d="m -1.2091819,109.13321 h -3.68 a 1.5,1.5 0 0 0 0.17,0.47 1.2,1.2 0 0 0 0.29,0.41 1.3,1.3 0 0 0 0.41,0.22 1.2,1.2 0 0 0 0.46,0.1 h 0.08 a 2,2 0 0 0 0.38,-0.05 2.07,2.07 0 0 0 0.37,-0.11 1.28,1.28 0 0 0 0.33,-0.21 1.82,1.82 0 0 0 0.28,-0.27 l 0.78,0.9 a 2,2 0 0 1 -0.41,0.42 2.34,2.34 0 0 1 -0.46,0.31 3.2,3.2 0 0 1 -0.64,0.21 2.87,2.87 0 0 1 -0.66,0.09 h -0.15 a 3.31,3.31 0 0 1 -0.76,-0.11 2.14,2.14 0 0 1 -1.26,-0.72 2.34,2.34 0 0 1 -0.43,-0.58 2.84,2.84 0 0 1 -0.27,-0.69 2.75,2.75 0 0 1 -0.12,-0.73 v -0.21 c 0,0 0,0 0,-0.08 a 3.31,3.31 0 0 1 0.11,-0.76 3.5,3.5 0 0 1 0.23,-0.73 2.64,2.64 0 0 1 0.41,-0.59 2.45,2.45 0 0 1 0.53,-0.47 2.9,2.9 0 0 1 0.68,-0.28 2.94,2.94 0 0 1 0.72,-0.11 h 0.14 a 2.67,2.67 0 0 1 0.69,0.1 2.44,2.44 0 0 1 0.64,0.25 2.39,2.39 0 0 1 0.5,0.43 2.18,2.18 0 0 1 0.38,0.55 3,3 0 0 1 0.22,0.7 3.53,3.53 0 0 1 0.04,0.73 0.28,0.28 0 0 1 0,0.09 z m -1.58,-1.21 v 0 a 1.18,1.18 0 0 0 -0.08,-0.38 1,1 0 0 0 -0.19,-0.33 1,1 0 0 0 -0.32,-0.2 0.92,0.92 0 0 0 -0.37,-0.08 h -0.1 a 1,1 0 0 0 -0.37,0.09 0.78,0.78 0 0 0 -0.3,0.22 1.43,1.43 0 0 0 -0.23,0.41 2.25,2.25 0 0 0 -0.12,0.44 h 2.08 z"
       id="path3243-2" />
    <path
       style="fill:#ffffff"
       class="cls-3"
       d="m 3.7908181,105.67321 v 1.5 a 3,3 0 0 0 -1.49,-0.37 0.76,0.76 0 0 0 -0.48,0.13 0.39,0.39 0 0 0 -0.17,0.32 0.36,0.36 0 0 0 0.06,0.2 0.9,0.9 0 0 0 0.2,0.18 l 0.27,0.15 0.35,0.16 0.35,0.17 a 3,3 0 0 1 0.89,0.67 1.4,1.4 0 0 1 0.33,1 1.63,1.63 0 0 1 -0.64,1.39 2.79,2.79 0 0 1 -1.72,0.5 4.09,4.09 0 0 1 -1.85,-0.38 v -1.6 a 3,3 0 0 0 1.75,0.58 q 0.66,0 0.66,-0.42 a 0.36,0.36 0 0 0 -0.06,-0.2 0.51,0.51 0 0 0 -0.2,-0.18 1.71,1.71 0 0 0 -0.25,-0.15 l -0.35,-0.15 -0.35,-0.16 a 1.84,1.84 0 0 1 -1.19,-1.69 1.59,1.59 0 0 1 0.68,-1.38 2.83,2.83 0 0 1 1.68,-0.49 4.32,4.32 0 0 1 1.53,0.22 z"
       id="path3245-3" />
    <path
       style="fill:#ffffff"
       class="cls-3"
       d="m 7.2708181,106.78321 v 2.79 a 0.63,0.63 0 0 0 0.19,0.5 0.68,0.68 0 0 0 0.48,0.16 1.51,1.51 0 0 0 0.85,-0.24 v 1.46 a 3.2,3.2 0 0 1 -1.2,0.19 1.83,1.83 0 0 1 -2.07,-2.08 v -2.78 h -0.88 v -1.29 h 0.88 v -1.44 h 1.75 v 1.44 h 1.42 v 1.29 z"
       id="path3247-7" />
    <path
       style="fill:#ffffff"
       class="cls-3"
       d="m 18.180818,111.58321 -0.49,-1.66 h -2.84 l -0.49,1.66 h -1.93 l 2.7,-8.09 h 2.33 l 2.7,8.09 z m -2.88,-3.15 h 1.94 l -0.08,-0.28 q -0.35,-1.18 -0.57,-2 c -0.15,-0.55 -0.24,-0.91 -0.27,-1.07 l -0.05,-0.24 a 32.58,32.58 0 0 1 -0.89,3.32 z"
       id="path3249-5" />
    <path
       style="fill:#ffffff"
       class="cls-3"
       d="m 24.960818,105.67321 v 1.5 a 3,3 0 0 0 -1.49,-0.37 0.74,0.74 0 0 0 -0.48,0.13 0.39,0.39 0 0 0 -0.17,0.32 0.36,0.36 0 0 0 0.06,0.2 0.72,0.72 0 0 0 0.2,0.18 l 0.26,0.15 0.35,0.16 c 0.15,0.07 0.27,0.12 0.35,0.17 a 2.85,2.85 0 0 1 0.89,0.67 1.36,1.36 0 0 1 0.34,1 1.64,1.64 0 0 1 -0.65,1.39 2.75,2.75 0 0 1 -1.72,0.5 4,4 0 0 1 -1.84,-0.38 v -1.6 a 3,3 0 0 0 1.73,0.63 q 0.66,0 0.66,-0.42 a 0.36,0.36 0 0 0 -0.06,-0.2 0.48,0.48 0 0 0 -0.21,-0.18 1.34,1.34 0 0 0 -0.26,-0.14 l -0.35,-0.15 -0.35,-0.16 a 1.85,1.85 0 0 1 -1.19,-1.75 1.62,1.62 0 0 1 0.68,-1.38 2.84,2.84 0 0 1 1.69,-0.49 4.39,4.39 0 0 1 1.56,0.22 z"
       id="path3251-9" />
    <path
       style="fill:#ffffff"
       class="cls-3"
       d="m 26.540818,104.45321 a 1,1 0 1 1 0.72,0.3 1,1 0 0 1 -0.72,-0.3 z m -0.15,7.13 v -6.09 h 1.75 v 6.09 z"
       id="path3253-2" />
    <path
       style="fill:#ffffff"
       class="cls-3"
       d="m 29.790818,107.37321 v -1.58 a 4.29,4.29 0 0 1 2.07,-0.4 2.9,2.9 0 0 1 1.94,0.55 2.22,2.22 0 0 1 0.63,1.74 v 3.9 h -1.71 v -0.75 a 1.53,1.53 0 0 1 -1.52,0.78 1.83,1.83 0 0 1 -1.38,-0.5 1.74,1.74 0 0 1 -0.5,-1.26 1.6,1.6 0 0 1 0.64,-1.36 3.08,3.08 0 0 1 1.9,-0.49 h 0.77 v -0.42 c 0,-0.51 -0.34,-0.77 -1,-0.77 a 3.25,3.25 0 0 0 -1.84,0.56 z m 2.84,1.71 h -0.56 a 1.13,1.13 0 0 0 -0.69,0.19 0.62,0.62 0 0 0 -0.24,0.5 c 0,0.4 0.24,0.61 0.71,0.61 a 0.75,0.75 0 0 0 0.58,-0.23 0.92,0.92 0 0 0 0.2,-0.62 z"
       id="path3255-2" />
    <path
       style="fill:#ffffff"
       class="cls-3"
       d="m 37.540818,105.49321 v 1 a 1.76,1.76 0 0 1 0.7,-0.8 2.11,2.11 0 0 1 1.14,-0.3 1.92,1.92 0 0 1 1.46,0.56 2.31,2.31 0 0 1 0.53,1.64 v 4 h -1.75 v -3.64 a 1.24,1.24 0 0 0 -0.25,-0.82 0.91,0.91 0 0 0 -0.71,-0.28 1,1 0 0 0 -0.8,0.38 1.73,1.73 0 0 0 -0.32,1.13 v 3.22 h -1.75 v -6.09 z"
       id="path3257-8" />
    <path
       style="fill:#ffffff"
       class="cls-3"
       d="m 51.050818,111.58321 -0.49,-1.66 h -2.83 l -0.49,1.66 h -1.93 l 2.7,-8.09 h 2.32 l 2.7,8.09 z m -2.88,-3.15 h 2 l -0.09,-0.28 q -0.35,-1.18 -0.57,-2 c -0.15,-0.55 -0.24,-0.91 -0.27,-1.07 v -0.24 c -0.07,0.44 -0.36,1.55 -0.89,3.32 z"
       id="path3259-9" />
    <path
       style="fill:#ffffff"
       class="cls-3"
       d="m 55.790817,105.49321 v 1 a 1.75,1.75 0 0 1 1.71,-1 1.66,1.66 0 0 1 1.71,1.16 1.64,1.64 0 0 1 0.68,-0.85 2.1,2.1 0 0 1 1.13,-0.31 1.83,1.83 0 0 1 1.42,0.57 2.4,2.4 0 0 1 0.52,1.68 v 3.9 h -1.75 v -3.67 a 1.48,1.48 0 0 0 -0.2,-0.82 0.68,0.68 0 0 0 -0.59,-0.3 1,1 0 0 0 -0.73,0.33 1.7,1.7 0 0 0 -0.32,1.18 v 3.22 h -1.75 v -3.61 a 1.48,1.48 0 0 0 -0.2,-0.82 0.67,0.67 0 0 0 -0.59,-0.3 1,1 0 0 0 -0.73,0.33 1.7,1.7 0 0 0 -0.31,1.14 v 3.22 h -1.759999 v -6.05 z"
       id="path3261-7" />
    <path
       style="fill:#ffffff"
       class="cls-3"
       d="m 69.370817,109.13321 h -3.69 a 1.8,1.8 0 0 0 0.17,0.47 1.11,1.11 0 0 0 0.7,0.63 1.24,1.24 0 0 0 0.46,0.1 h 0.09 a 2.09,2.09 0 0 0 0.38,-0.05 1.94,1.94 0 0 0 0.36,-0.11 1,1 0 0 0 0.33,-0.21 1.45,1.45 0 0 0 0.28,-0.27 l 0.78,0.9 a 1.94,1.94 0 0 1 -0.4,0.42 2.14,2.14 0 0 1 -0.5,0.33 3.08,3.08 0 0 1 -0.63,0.21 3,3 0 0 1 -0.66,0.09 h -0.16 a 3.23,3.23 0 0 1 -0.75,-0.11 2.88,2.88 0 0 1 -0.71,-0.26 2.74,2.74 0 0 1 -0.55,-0.46 2.4,2.4 0 0 1 -0.44,-0.58 3.31,3.31 0 0 1 -0.27,-0.69 3.16,3.16 0 0 1 -0.11,-0.73 v -0.21 a 0.19,0.19 0 0 1 0,-0.08 3.24,3.24 0 0 1 0.1,-0.76 5.31,5.31 0 0 1 0.23,-0.73 3,3 0 0 1 0.41,-0.59 2.71,2.71 0 0 1 0.53,-0.47 2.9,2.9 0 0 1 0.68,-0.28 3.08,3.08 0 0 1 0.72,-0.11 h 0.15 a 2.67,2.67 0 0 1 0.69,0.1 2.59,2.59 0 0 1 0.64,0.25 2.68,2.68 0 0 1 0.5,0.43 2.18,2.18 0 0 1 0.38,0.55 3.64,3.64 0 0 1 0.22,0.7 3.53,3.53 0 0 1 0.09,0.73 c 0,0 0,0.06 0,0.09 z m -1.58,-1.21 v 0 a 1,1 0 0 0 -0.08,-0.38 1,1 0 0 0 -0.18,-0.33 1,1 0 0 0 -0.33,-0.2 0.88,0.88 0 0 0 -0.37,-0.08 h -0.09 a 0.87,0.87 0 0 0 -0.37,0.09 0.91,0.91 0 0 0 -0.31,0.22 1.42,1.42 0 0 0 -0.22,0.41 1.39,1.39 0 0 0 -0.12,0.44 h 2.07 z"
       id="path3263-3" />
    <path
       style="fill:#ffffff"
       class="cls-3"
       d="m 72.340817,105.49321 v 1.13 a 1.7,1.7 0 0 1 0.55,-0.84 1.37,1.37 0 0 1 0.91,-0.32 1.5,1.5 0 0 1 0.46,0 v 1.65 a 1.59,1.59 0 0 0 -0.66,-0.13 1.17,1.17 0 0 0 -0.92,0.41 1.68,1.68 0 0 0 -0.34,1.1 v 3 h -1.76 v -6.09 z"
       id="path3265-6" />
    <path
       style="fill:#ffffff"
       class="cls-3"
       d="m 75.250817,104.45321 a 1,1 0 1 1 0.72,0.3 1,1 0 0 1 -0.72,-0.3 z m -0.15,7.13 v -6.09 h 1.75 v 6.09 z"
       id="path3267-1" />
    <path
       style="fill:#ffffff"
       class="cls-3"
       d="m 79.790817,108.55321 a 1.85,1.85 0 0 0 0.48,1.25 1.51,1.51 0 0 0 1.14,0.45 2.74,2.74 0 0 0 1.45,-0.42 v 1.49 a 3.47,3.47 0 0 1 -1.7,0.38 3.12,3.12 0 0 1 -2.26,-0.87 3,3 0 0 1 -0.88,-2.25 3.21,3.21 0 0 1 0.88,-2.26 3.17,3.17 0 0 1 2.37,-0.89 3.3,3.3 0 0 1 1.59,0.35 v 1.5 a 2.55,2.55 0 0 0 -1.41,-0.4 1.65,1.65 0 0 0 -1.19,0.44 1.72,1.72 0 0 0 -0.47,1.23 z"
       id="path3269-2" />
    <path
       style="fill:#ffffff"
       class="cls-3"
       d="m 84.120817,107.37321 v -1.58 a 4.29,4.29 0 0 1 2.07,-0.4 2.9,2.9 0 0 1 1.94,0.55 2.22,2.22 0 0 1 0.63,1.74 v 3.9 h -1.71 v -0.75 a 1.52,1.52 0 0 1 -1.51,0.78 1.84,1.84 0 0 1 -1.39,-0.5 1.74,1.74 0 0 1 -0.5,-1.26 1.6,1.6 0 0 1 0.64,-1.36 3.08,3.08 0 0 1 1.9,-0.49 h 0.77 v -0.42 c 0,-0.51 -0.34,-0.77 -1,-0.77 a 3.25,3.25 0 0 0 -1.84,0.56 z m 2.84,1.71 h -0.56 a 1.13,1.13 0 0 0 -0.69,0.19 0.62,0.62 0 0 0 -0.24,0.5 c 0,0.4 0.24,0.61 0.71,0.61 a 0.75,0.75 0 0 0 0.58,-0.23 0.92,0.92 0 0 0 0.2,-0.62 z"
       id="path3271-9" />
    <path
       style="fill:#ffffff"
       class="cls-3"
       d="m 91.910817,105.49321 v 1 a 1.76,1.76 0 0 1 0.7,-0.8 2.11,2.11 0 0 1 1.14,-0.3 1.92,1.92 0 0 1 1.46,0.56 2.31,2.31 0 0 1 0.53,1.64 v 4 h -1.75 v -3.64 a 1.24,1.24 0 0 0 -0.25,-0.82 0.91,0.91 0 0 0 -0.71,-0.28 1,1 0 0 0 -0.8,0.38 1.73,1.73 0 0 0 -0.32,1.13 v 3.22 h -1.75 v -6.09 z"
       id="path3273-3" />
    <path
       style="fill:#ffffff"
       class="cls-3"
       d="m 104.85082,103.85321 v 1.73 a 3.94,3.94 0 0 0 -2,-0.57 1.11,1.11 0 0 0 -0.71,0.2 0.57,0.57 0 0 0 -0.25,0.49 0.66,0.66 0 0 0 0.3,0.53 4.37,4.37 0 0 0 0.9,0.5 l 0.62,0.29 a 5.92,5.92 0 0 1 0.56,0.35 2.35,2.35 0 0 1 0.51,0.47 2.48,2.48 0 0 1 0.32,0.61 2.45,2.45 0 0 1 0.13,0.78 2.22,2.22 0 0 1 -0.81,1.77 3.18,3.18 0 0 1 -2.13,0.67 4.71,4.71 0 0 1 -2.330003,-0.5 v -1.85 a 3.88,3.88 0 0 0 2.330003,0.79 1,1 0 0 0 0.69,-0.22 0.7,0.7 0 0 0 0.28,-0.58 0.59,0.59 0 0 0 0,-0.23 0.41,0.41 0 0 0 -0.13,-0.2 1.41,1.41 0 0 0 -0.18,-0.17 l -0.27,-0.15 -0.29,-0.15 -0.36,-0.17 -0.37,-0.17 a 3.75,3.75 0 0 1 -1.26,-0.89 2,2 0 0 1 -0.470003,-1.4 2.07,2.07 0 0 1 0.770003,-1.69 3.25,3.25 0 0 1 2.12,-0.64 5,5 0 0 1 2.03,0.4 z"
       id="path3275-1" />
    <path
       style="fill:#ffffff"
       class="cls-3"
       d="m 108.35082,106.78321 v 2.79 a 0.67,0.67 0 0 0 0.18,0.5 0.72,0.72 0 0 0 0.49,0.16 1.53,1.53 0 0 0 0.85,-0.24 v 1.46 a 3.2,3.2 0 0 1 -1.2,0.19 1.83,1.83 0 0 1 -2.07,-2.08 v -2.78 h -0.88 v -1.29 h 0.88 v -1.44 h 1.75 v 1.44 h 1.44 v 1.29 z"
       id="path3277-9" />
    <path
       style="fill:#ffffff"
       class="cls-3"
       d="m 114.73082,105.49321 h 1.75 v 6.09 h -1.75 v -1 a 1.85,1.85 0 0 1 -1.85,1 2,2 0 0 1 -1.46,-0.53 2.07,2.07 0 0 1 -0.52,-1.54 v -4.02 h 1.75 v 3.68 c 0,0.71 0.31,1.06 0.94,1.06 0.63,0 1.14,-0.5 1.14,-1.52 z"
       id="path3279-4" />
    <path
       style="fill:#ffffff"
       class="cls-3"
       d="m 122.07082,103.09321 h 1.72 v 8.49 h -1.75 v -1 a 2,2 0 0 1 -1.82,1 2.31,2.31 0 0 1 -1.91,-0.92 3.56,3.56 0 0 1 -0.71,-2.21 3.3,3.3 0 0 1 0.74,-2.27 2.45,2.45 0 0 1 1.89,-0.83 2,2 0 0 1 1.81,1 z m -1.34,7.1 a 1.19,1.19 0 0 0 1,-0.47 1.94,1.94 0 0 0 0.37,-1.25 1.64,1.64 0 0 0 -0.4,-1.18 1.29,1.29 0 0 0 -1,-0.42 1.19,1.19 0 0 0 -0.91,0.45 1.84,1.84 0 0 0 -0.37,1.23 1.75,1.75 0 0 0 0.38,1.19 1.2,1.2 0 0 0 0.93,0.45 z"
       id="path3281-7" />
    <path
       style="fill:#ffffff"
       class="cls-3"
       d="m 130.33082,109.13321 h -3.69 a 1.5,1.5 0 0 0 0.17,0.47 1.36,1.36 0 0 0 0.3,0.41 1.61,1.61 0 0 0 0.86,0.32 h 0.09 a 1.9,1.9 0 0 0 0.37,-0.05 2.07,2.07 0 0 0 0.37,-0.11 1.13,1.13 0 0 0 0.33,-0.21 1.45,1.45 0 0 0 0.28,-0.27 l 0.78,0.9 a 1.94,1.94 0 0 1 -0.4,0.42 2.37,2.37 0 0 1 -0.5,0.33 3.31,3.31 0 0 1 -0.63,0.21 3,3 0 0 1 -0.66,0.09 h -0.16 a 3.31,3.31 0 0 1 -0.76,-0.11 2.94,2.94 0 0 1 -0.7,-0.26 2.74,2.74 0 0 1 -0.55,-0.46 2.4,2.4 0 0 1 -0.44,-0.58 3.31,3.31 0 0 1 -0.27,-0.69 3.16,3.16 0 0 1 -0.11,-0.73 v -0.21 a 0.19,0.19 0 0 1 0,-0.08 3.24,3.24 0 0 1 0.1,-0.76 4.22,4.22 0 0 1 0.23,-0.73 3,3 0 0 1 0.41,-0.59 2.45,2.45 0 0 1 0.53,-0.47 2.9,2.9 0 0 1 0.68,-0.28 2.94,2.94 0 0 1 0.72,-0.11 h 0.11 a 2.67,2.67 0 0 1 0.69,0.1 2.59,2.59 0 0 1 0.64,0.25 3,3 0 0 1 0.5,0.43 2.12,2.12 0 0 1 0.37,0.55 3,3 0 0 1 0.23,0.7 3.53,3.53 0 0 1 0.09,0.73 c 0,0 0,0.06 0,0.09 z m -1.54,-1.21 v 0 a 1.18,1.18 0 0 0 -0.08,-0.38 1,1 0 0 0 -0.18,-0.33 1,1 0 0 0 -0.33,-0.2 0.88,0.88 0 0 0 -0.37,-0.08 h -0.1 a 0.87,0.87 0 0 0 -0.36,0.09 0.82,0.82 0 0 0 -0.31,0.22 1.22,1.22 0 0 0 -0.22,0.41 1.78,1.78 0 0 0 -0.13,0.44 h 2.08 z"
       id="path3283-8" />
    <path
       style="fill:#ffffff"
       class="cls-3"
       d="m 133.30082,105.49321 v 1 a 1.76,1.76 0 0 1 0.7,-0.8 2.11,2.11 0 0 1 1.14,-0.3 1.92,1.92 0 0 1 1.46,0.56 2.31,2.31 0 0 1 0.53,1.64 v 4 h -1.75 v -3.64 a 1.19,1.19 0 0 0 -0.26,-0.82 0.87,0.87 0 0 0 -0.7,-0.28 1,1 0 0 0 -0.8,0.38 1.73,1.73 0 0 0 -0.32,1.13 v 3.22 h -1.75 v -6.09 z"
       id="path3285-4" />
    <path
       style="fill:#ffffff"
       class="cls-3"
       d="m 140.54082,106.78321 v 2.79 a 0.63,0.63 0 0 0 0.19,0.5 0.68,0.68 0 0 0 0.48,0.16 1.57,1.57 0 0 0 0.86,-0.24 v 1.46 a 3.27,3.27 0 0 1 -1.2,0.19 1.84,1.84 0 0 1 -2.08,-2.08 v -2.78 h -0.88 v -1.29 h 0.88 v -1.44 h 1.75 v 1.44 h 1.42 v 1.29 z"
       id="path3287-5" />
    <path
       style="fill:#ffffff"
       class="cls-3"
       d="m 146.99082,105.67321 v 1.5 a 3,3 0 0 0 -1.49,-0.37 0.74,0.74 0 0 0 -0.48,0.13 0.39,0.39 0 0 0 -0.17,0.32 0.36,0.36 0 0 0 0.06,0.2 0.72,0.72 0 0 0 0.2,0.18 l 0.26,0.15 0.35,0.16 c 0.15,0.07 0.27,0.12 0.35,0.17 a 2.85,2.85 0 0 1 0.89,0.67 1.36,1.36 0 0 1 0.34,1 1.64,1.64 0 0 1 -0.65,1.39 2.75,2.75 0 0 1 -1.72,0.5 4,4 0 0 1 -1.84,-0.38 v -1.6 a 3,3 0 0 0 1.75,0.58 q 0.66,0 0.66,-0.42 a 0.36,0.36 0 0 0 -0.06,-0.2 0.48,0.48 0 0 0 -0.21,-0.18 1.34,1.34 0 0 0 -0.26,-0.14 l -0.35,-0.15 -0.35,-0.16 a 1.85,1.85 0 0 1 -1.21,-1.7 1.62,1.62 0 0 1 0.68,-1.38 2.84,2.84 0 0 1 1.69,-0.49 4.39,4.39 0 0 1 1.56,0.22 z"
       id="path3289-0" />
    <path
       style="fill:#ffffff"
       class="cls-3"
       d="m 156.11082,108.46321 v -5 h 1.84 v 5 a 3.14,3.14 0 0 1 -0.88,2.41 3.85,3.85 0 0 1 -4.79,0 3,3 0 0 1 -0.9,-2.34 v -5 h 1.85 v 5 q 0,1.5 1.44,1.5 1.44,0 1.44,-1.57 z"
       id="path3291-3" />
    <path
       style="fill:#ffffff"
       class="cls-3"
       d="m 161.21082,105.49321 v 1 a 1.7,1.7 0 0 1 0.7,-0.8 2,2 0 0 1 1.13,-0.3 1.94,1.94 0 0 1 1.47,0.56 2.31,2.31 0 0 1 0.52,1.64 v 4 h -1.75 v -3.64 a 1.18,1.18 0 0 0 -0.25,-0.82 0.89,0.89 0 0 0 -0.71,-0.28 1,1 0 0 0 -0.8,0.38 1.73,1.73 0 0 0 -0.31,1.13 v 3.22 h -1.76 v -6.09 z"
       id="path3293-6" />
    <path
       style="fill:#ffffff"
       class="cls-3"
       d="m 166.60082,104.45321 a 1,1 0 1 1 0.72,0.3 1,1 0 0 1 -0.72,-0.3 z m -0.16,7.13 v -6.09 h 1.75 v 6.09 z"
       id="path3295-1" />
    <path
       style="fill:#ffffff"
       class="cls-3"
       d="m 172.32082,111.67321 a 2.81,2.81 0 0 1 -2.2,-0.85 3.14,3.14 0 0 1 -0.79,-2.21 3.36,3.36 0 0 1 0.82,-2.31 3.14,3.14 0 0 1 4.37,0 3.25,3.25 0 0 1 0.78,2.24 3.29,3.29 0 0 1 -0.79,2.27 2.74,2.74 0 0 1 -2.19,0.86 z m 0,-4.89 a 0.93,0.93 0 0 0 -0.86,0.49 2.41,2.41 0 0 0 -0.29,1.27 2.55,2.55 0 0 0 0.29,1.28 1,1 0 0 0 0.88,0.5 0.92,0.92 0 0 0 0.86,-0.49 2.45,2.45 0 0 0 0.28,-1.26 c -0.01,-1.2 -0.39,-1.79 -1.17,-1.79 z"
       id="path3297-0" />
    <path
       style="fill:#ffffff"
       class="cls-3"
       d="m 178.18082,105.49321 v 1 a 1.7,1.7 0 0 1 0.7,-0.8 2.07,2.07 0 0 1 1.13,-0.3 1.93,1.93 0 0 1 1.47,0.56 2.31,2.31 0 0 1 0.53,1.64 v 4 h -1.76 v -3.64 a 1.18,1.18 0 0 0 -0.25,-0.82 0.89,0.89 0 0 0 -0.71,-0.28 1,1 0 0 0 -0.79,0.38 1.68,1.68 0 0 0 -0.32,1.13 v 3.22 h -1.75 v -6.09 z"
       id="path3299-6" />
  </g>
</svg>
