<?xml version="1.0" encoding="UTF-8" standalone="no"?>
<svg
   xmlns:dc="http://purl.org/dc/elements/1.1/"
   xmlns:cc="http://creativecommons.org/ns#"
   xmlns:rdf="http://www.w3.org/1999/02/22-rdf-syntax-ns#"
   xmlns:svg="http://www.w3.org/2000/svg"
   xmlns="http://www.w3.org/2000/svg"
   xmlns:sodipodi="http://sodipodi.sourceforge.net/DTD/sodipodi-0.dtd"
   xmlns:inkscape="http://www.inkscape.org/namespaces/inkscape"
   id="Layer_1"
   data-name="Layer 1"
   viewBox="0 0 261.87 106.45"
   version="1.1"
   sodipodi:docname="text.svg"
   inkscape:version="1.0 (4035a4fb49, 2020-05-01)">
  <metadata
     id="metadata2304">
    <rdf:RDF>
      <cc:Work
         rdf:about="">
        <dc:format>image/svg+xml</dc:format>
        <dc:type
           rdf:resource="http://purl.org/dc/dcmitype/StillImage" />
        <dc:title>Logo</dc:title>
      </cc:Work>
    </rdf:RDF>
  </metadata>
  <sodipodi:namedview
     showguides="false"
     inkscape:document-rotation="0"
     pagecolor="#ffffff"
     bordercolor="#666666"
     borderopacity="1"
     objecttolerance="10"
     gridtolerance="10"
     guidetolerance="10"
     inkscape:pageopacity="0"
     inkscape:pageshadow="2"
     inkscape:window-width="1698"
     inkscape:window-height="932"
     id="namedview2302"
     showgrid="false"
     inkscape:zoom="3.2980711"
     inkscape:cx="137.85502"
     inkscape:cy="65.670215"
     inkscape:window-x="24"
     inkscape:window-y="54"
     inkscape:window-maximized="0"
     inkscape:current-layer="Layer_1" />
  <defs
     id="defs2219">
    <style
       id="style2217">.cls-1{fill:#d12329;}.cls-2{fill:#fff;}.cls-3{fill:#404041;}</style>
  </defs>
  <title
     id="title2221">Logo</title>
  <g
     transform="translate(16.635869,-71.021595)"
     id="g6055">
    <path
       style="fill:#404040;fill-opacity:1"
       id="path3223"
       d="m 10.184131,99.94879 c 0,0 -0.07,3.95 -0.16,6 q -0.1700004,4.08 -0.4700004,7.92 l -1.49,18.42 h -10.87 l 4.1,-47.57 H 13.224131 l 6.63,17.22 q 1.69,4.31 2.9,7.91 c 0.8,2.4 1.31,4.09 1.55,5.08 l 0.35,1.41 a 127.88,127.88 0 0 1 4.95,-14.41 l 6.71,-17.22 h 11.93 l 4.94,47.57 h -10.88 l -1.76,-18.42 -0.94,-13.91 c 0,0 -2.92,8.17 -5.08,13.91 l -6.71,17.93 h -6.42 l -6.62,-17.93 c -0.94,-2.48 -1.87,-5.1 -2.75,-7.83 -0.67,-2.08 -1.84,-6.08 -1.84,-6.08 z"
       class="cls-1" />
    <path
       style="fill:#404040;fill-opacity:1"
       id="path3225"
       d="m 91.304131,132.27879 -2.89,-9.74 h -16.66 l -2.89,9.74 h -11.37 l 15.88,-47.57 h 13.7 l 15.879999,47.57 z m -16.94,-18.49 h 11.44 l -0.5,-1.69 q -2,-6.93 -3.35,-11.79 c -0.87,-3.25 -1.4,-5.34 -1.59,-6.29 l -0.28,-1.41 q -0.57,3.88 -5.22,19.49 z"
       class="cls-1" />
    <path
       style="fill:#404040;fill-opacity:1"
       id="path3227"
       d="m 140.22413,132.27879 -2.9,-9.74 h -16.66 l -2.89,9.74 h -11.37 l 15.89,-47.57 h 13.69 l 15.88,47.57 z m -17,-18.49 h 11.44 l -0.49,-1.69 q -2.06,-6.93 -3.36,-11.79 c -0.87,-3.25 -1.4,-5.34 -1.59,-6.29 l -0.28,-1.41 q -0.57,3.88 -5.22,19.49 z"
       class="cls-1" />
    <path
       style="fill:#404040;fill-opacity:1"
       id="path3229"
       d="m 184.60413,86.81879 v 10.17 a 23.32,23.32 0 0 0 -11.86,-3.32 6.76,6.76 0 0 0 -4.2,1.13 3.52,3.52 0 0 0 -1.44,2.9 4,4 0 0 0 1.76,3.14 26.34,26.34 0 0 0 5.3,2.93 c 1.45,0.66 2.67,1.23 3.63,1.73 a 28.4,28.4 0 0 1 3.32,2 12.8,12.8 0 0 1 3,2.76 13.38,13.38 0 0 1 1.87,3.56 13.17,13.17 0 0 1 0.78,4.59 13,13 0 0 1 -4.73,10.41 q -4.73,4 -12.56,4 -8.4,0 -13.7,-3 v -10.88 a 22.89,22.89 0 0 0 13.7,4.66 6.32,6.32 0 0 0 4.09,-1.3 4.43,4.43 0 0 0 1.41,-4.77 3.18,3.18 0 0 0 -0.77,-1.2 10,10 0 0 0 -1.1,-0.95 11.69,11.69 0 0 0 -1.55,-0.92 l -1.73,-0.88 c -0.47,-0.24 -1.17,-0.57 -2.08,-1 -0.91,-0.43 -1.66,-0.75 -2.23,-1 a 22.24,22.24 0 0 1 -7.39,-5.22 11.9,11.9 0 0 1 -2.79,-8.26 12.28,12.28 0 0 1 4.52,-9.92 q 4.51,-3.78 12.49,-3.78 a 29,29 0 0 1 12.26,2.42 z"
       class="cls-1" />
    <path
       style="fill:#404040;fill-opacity:1"
       id="path3231"
       d="m 220.53413,113.92879 v -29.22 h 10.87 v 29.15 q 0,9.31 -5.22,14.22 -5.22,4.91 -14.12,4.91 -8.74,0 -14,-4.87 -5.26,-4.87 -5.34,-13.76 v -29.65 h 10.88 v 29.57 q 0,8.84 8.47,8.83 8.47,-0.01 8.46,-9.18 z"
       class="cls-1" />
    <path
       id="path3233"
       d="m 232.75413,138.71879 c 0,-1 -0.24,-1.29 -1.28,-1.29 q -117.18,0 -234.3499994,0 c -1.06,0 -1.28,0.28 -1.28,1.3 0,7.38 0.06,14.77 0,22.16 0,1.31 0.39,1.53 1.59,1.53 q 58.4600004,0 116.8999994,0 58.44,0 117,0 c 1.12,0 1.45,-0.22 1.44,-1.4 q -0.09,-11.16 -0.02,-22.3 z"
       class="cls-2"
       style="fill:#d12329" />
    <path
       id="path2624"
       style="fill:#f48915;fill-opacity:1"
       d="M 32.170541,137.4291 7.1803006,162.41934 H 114.3346 h 117 c 1.12,0 1.44945,-0.22039 1.43945,-1.40039 -0.06,-7.44 -0.0662,-14.87412 -0.0195,-22.30078 0,-1 -0.24125,-1.28907 -1.28125,-1.28907 z" />
    <path
       id="path2619"
       style="fill:#f8e91a;fill-opacity:1"
       d="m 76.660771,137.4291 -24.99023,24.99024 h 62.664059 117 c 1.12,0 1.44945,-0.22039 1.43945,-1.40039 -0.06,-7.44 -0.0662,-14.87412 -0.0195,-22.30078 0,-1 -0.24125,-1.28907 -1.28125,-1.28907 z" />
    <path
       id="path2614"
       style="fill:#078136;fill-opacity:1"
       d="m 122.00061,137.4291 -24.990229,24.99024 h 17.324219 117 c 1.12,0 1.44945,-0.22039 1.43945,-1.40039 -0.06,-7.44 -0.0662,-14.87412 -0.0195,-22.30078 0,-1 -0.24125,-1.28907 -1.28125,-1.28907 z" />
    <path
       id="path2602"
       d="m 166.85804,137.4291 -24.99024,24.99024 h 89.4668 c 1.12,0 1.44945,-0.22039 1.43945,-1.40039 -0.06,-7.44 -0.0662,-14.87412 -0.0195,-22.30078 0,-1 -0.24125,-1.28907 -1.28125,-1.28907 z"
       style="fill:#2f56a3;fill-opacity:1" />
    <path
       id="path2596"
       d="m 211.96546,137.4291 -24.99024,24.99024 h 44.35938 c 1.12,0 1.44945,-0.22039 1.43945,-1.40039 -0.06,-7.44 -0.0662,-14.87412 -0.0195,-22.30078 0,-1 -0.24125,-1.28907 -1.28125,-1.28907 z"
       style="fill:#6d207f;fill-opacity:1" />
    <path
       id="path3235"
       d="m 4.6041306,154.61879 0.69,-8.09 h 2 l 1.13,2.93 c 0.19,0.49 0.35,0.93 0.49,1.34 0.14,0.41 0.22,0.7 0.26,0.87 l 0.06,0.24 a 21.86,21.86 0 0 1 0.8400004,-2.45 l 1.14,-2.93 h 2 l 0.84,8.09 h -1.85 l -0.3,-3.13 -0.15,-2.37 q -0.31,0.9 -0.87,2.37 l -1.1400004,3 h -1.09 l -1.13,-3 c -0.18,-0.5 -0.34,-0.94 -0.46,-1.34 -0.12,-0.4 -0.22,-0.66 -0.26,-0.81 l -0.06,-0.22 c 0,0.57 0,1.36 -0.1,2.37 l -0.26,3.13 z"
       class="cls-3"
       style="fill:#ffffff" />
    <path
       id="path3237"
       d="m 15.664131,147.48879 a 1,1 0 1 1 0.72,0.3 1,1 0 0 1 -0.72,-0.3 z m -0.16,7.13 v -6.09 h 1.76 v 6.09 z"
       class="cls-3"
       style="fill:#ffffff" />
    <path
       id="path3239"
       d="m 22.844131,146.12879 h 1.76 v 8.49 h -1.75 v -1 a 2,2 0 0 1 -1.83,1 2.3,2.3 0 0 1 -1.9,-0.92 3.56,3.56 0 0 1 -0.71,-2.21 3.3,3.3 0 0 1 0.74,-2.27 2.45,2.45 0 0 1 1.89,-0.83 2,2 0 0 1 1.81,1 z m -1.35,7.1 a 1.21,1.21 0 0 0 1,-0.47 2,2 0 0 0 0.37,-1.25 1.68,1.68 0 0 0 -0.4,-1.18 1.29,1.29 0 0 0 -1,-0.42 1.16,1.16 0 0 0 -0.86,0.45 1.85,1.85 0 0 0 -0.38,1.23 1.76,1.76 0 0 0 0.39,1.19 1.18,1.18 0 0 0 0.88,0.45 z"
       class="cls-3"
       style="fill:#ffffff" />
    <path
       id="path3241"
       d="m 27.364131,154.61879 -2,-6.09 h 1.81 l 0.53,2 c 0.13,0.5 0.24,1 0.32,1.36 0.08,0.36 0.14,0.68 0.16,0.83 v 0.23 a 16.36,16.36 0 0 1 0.58,-2.42 l 0.59,-2 h 1.51 l 0.58,2 c 0.14,0.51 0.26,1 0.36,1.37 0.1,0.37 0.16,0.68 0.18,0.84 v 0.21 a 17.53,17.53 0 0 1 0.56,-2.42 l 0.56,-2 h 1.73 l -1.94,6.09 h -1.8 l -0.53,-2 c -0.11,-0.44 -0.21,-0.84 -0.29,-1.22 -0.08,-0.38 -0.14,-0.64 -0.17,-0.8 v -0.24 a 21.64,21.64 0 0 1 -0.51,2.26 l -0.52,2 z"
       class="cls-3"
       style="fill:#ffffff" />
    <path
       id="path3243"
       d="m 40.604131,152.16879 h -3.68 a 1.5,1.5 0 0 0 0.17,0.47 1.2,1.2 0 0 0 0.29,0.41 1.3,1.3 0 0 0 0.41,0.22 1.2,1.2 0 0 0 0.46,0.1 h 0.08 a 2,2 0 0 0 0.38,-0.05 2.07,2.07 0 0 0 0.37,-0.11 1.28,1.28 0 0 0 0.33,-0.21 1.82,1.82 0 0 0 0.28,-0.27 l 0.78,0.9 a 2,2 0 0 1 -0.41,0.42 2.34,2.34 0 0 1 -0.46,0.31 3.2,3.2 0 0 1 -0.64,0.21 2.87,2.87 0 0 1 -0.66,0.09 h -0.15 a 3.31,3.31 0 0 1 -0.76,-0.11 2.14,2.14 0 0 1 -1.26,-0.72 2.34,2.34 0 0 1 -0.43,-0.58 2.84,2.84 0 0 1 -0.27,-0.69 2.75,2.75 0 0 1 -0.12,-0.73 v -0.21 c 0,0 0,0 0,-0.08 a 3.31,3.31 0 0 1 0.11,-0.76 3.5,3.5 0 0 1 0.23,-0.73 2.64,2.64 0 0 1 0.41,-0.59 2.45,2.45 0 0 1 0.53,-0.47 2.9,2.9 0 0 1 0.68,-0.28 2.94,2.94 0 0 1 0.72,-0.11 h 0.14 a 2.67,2.67 0 0 1 0.69,0.1 2.44,2.44 0 0 1 0.64,0.25 2.39,2.39 0 0 1 0.5,0.43 2.18,2.18 0 0 1 0.38,0.55 3,3 0 0 1 0.22,0.7 3.53,3.53 0 0 1 0.04,0.73 0.28,0.28 0 0 1 0,0.09 z m -1.58,-1.21 v 0 a 1.18,1.18 0 0 0 -0.08,-0.38 1,1 0 0 0 -0.19,-0.33 1,1 0 0 0 -0.32,-0.2 0.92,0.92 0 0 0 -0.37,-0.08 h -0.1 a 1,1 0 0 0 -0.37,0.09 0.78,0.78 0 0 0 -0.3,0.22 1.43,1.43 0 0 0 -0.23,0.41 2.25,2.25 0 0 0 -0.12,0.44 h 2.08 z"
       class="cls-3"
       style="fill:#ffffff" />
    <path
       id="path3245"
       d="m 45.604131,148.70879 v 1.5 a 3,3 0 0 0 -1.49,-0.37 0.76,0.76 0 0 0 -0.48,0.13 0.39,0.39 0 0 0 -0.17,0.32 0.36,0.36 0 0 0 0.06,0.2 0.9,0.9 0 0 0 0.2,0.18 l 0.27,0.15 0.35,0.16 0.35,0.17 a 3,3 0 0 1 0.89,0.67 1.4,1.4 0 0 1 0.33,1 1.63,1.63 0 0 1 -0.64,1.39 2.79,2.79 0 0 1 -1.72,0.5 4.09,4.09 0 0 1 -1.85,-0.38 v -1.6 a 3,3 0 0 0 1.75,0.58 q 0.66,0 0.66,-0.42 a 0.36,0.36 0 0 0 -0.06,-0.2 0.51,0.51 0 0 0 -0.2,-0.18 1.71,1.71 0 0 0 -0.25,-0.15 l -0.35,-0.15 -0.35,-0.16 a 1.84,1.84 0 0 1 -1.19,-1.69 1.59,1.59 0 0 1 0.68,-1.38 2.83,2.83 0 0 1 1.68,-0.49 4.32,4.32 0 0 1 1.53,0.22 z"
       class="cls-3"
       style="fill:#ffffff" />
    <path
       id="path3247"
       d="m 49.084131,149.81879 v 2.79 a 0.63,0.63 0 0 0 0.19,0.5 0.68,0.68 0 0 0 0.48,0.16 1.51,1.51 0 0 0 0.85,-0.24 v 1.46 a 3.2,3.2 0 0 1 -1.2,0.19 1.83,1.83 0 0 1 -2.07,-2.08 v -2.78 h -0.88 v -1.29 h 0.88 v -1.44 h 1.75 v 1.44 h 1.42 v 1.29 z"
       class="cls-3"
       style="fill:#ffffff" />
    <path
       id="path3249"
       d="m 59.994131,154.61879 -0.49,-1.66 h -2.84 l -0.49,1.66 h -1.93 l 2.7,-8.09 h 2.33 l 2.7,8.09 z m -2.88,-3.15 h 1.94 l -0.08,-0.28 q -0.35,-1.18 -0.57,-2 c -0.15,-0.55 -0.24,-0.91 -0.27,-1.07 l -0.05,-0.24 a 32.58,32.58 0 0 1 -0.89,3.32 z"
       class="cls-3"
       style="fill:#ffffff" />
    <path
       id="path3251"
       d="m 66.774131,148.70879 v 1.5 a 3,3 0 0 0 -1.49,-0.37 0.74,0.74 0 0 0 -0.48,0.13 0.39,0.39 0 0 0 -0.17,0.32 0.36,0.36 0 0 0 0.06,0.2 0.72,0.72 0 0 0 0.2,0.18 l 0.26,0.15 0.35,0.16 c 0.15,0.07 0.27,0.12 0.35,0.17 a 2.85,2.85 0 0 1 0.89,0.67 1.36,1.36 0 0 1 0.34,1 1.64,1.64 0 0 1 -0.65,1.39 2.75,2.75 0 0 1 -1.72,0.5 4,4 0 0 1 -1.84,-0.38 v -1.6 a 3,3 0 0 0 1.73,0.63 q 0.66,0 0.66,-0.42 a 0.36,0.36 0 0 0 -0.06,-0.2 0.48,0.48 0 0 0 -0.21,-0.18 1.34,1.34 0 0 0 -0.26,-0.14 l -0.35,-0.15 -0.35,-0.16 a 1.85,1.85 0 0 1 -1.19,-1.75 1.62,1.62 0 0 1 0.68,-1.38 2.84,2.84 0 0 1 1.69,-0.49 4.39,4.39 0 0 1 1.56,0.22 z"
       class="cls-3"
       style="fill:#ffffff" />
    <path
       id="path3253"
       d="m 68.354131,147.48879 a 1,1 0 1 1 0.72,0.3 1,1 0 0 1 -0.72,-0.3 z m -0.15,7.13 v -6.09 h 1.75 v 6.09 z"
       class="cls-3"
       style="fill:#ffffff" />
    <path
       id="path3255"
       d="m 71.604131,150.40879 v -1.58 a 4.29,4.29 0 0 1 2.07,-0.4 2.9,2.9 0 0 1 1.94,0.55 2.22,2.22 0 0 1 0.63,1.74 v 3.9 h -1.71 v -0.75 a 1.53,1.53 0 0 1 -1.52,0.78 1.83,1.83 0 0 1 -1.38,-0.5 1.74,1.74 0 0 1 -0.5,-1.26 1.6,1.6 0 0 1 0.64,-1.36 3.08,3.08 0 0 1 1.9,-0.49 h 0.77 v -0.42 c 0,-0.51 -0.34,-0.77 -1,-0.77 a 3.25,3.25 0 0 0 -1.84,0.56 z m 2.84,1.71 h -0.56 a 1.13,1.13 0 0 0 -0.69,0.19 0.62,0.62 0 0 0 -0.24,0.5 c 0,0.4 0.24,0.61 0.71,0.61 a 0.75,0.75 0 0 0 0.58,-0.23 0.92,0.92 0 0 0 0.2,-0.62 z"
       class="cls-3"
       style="fill:#ffffff" />
    <path
       id="path3257"
       d="m 79.354131,148.52879 v 1 a 1.76,1.76 0 0 1 0.7,-0.8 2.11,2.11 0 0 1 1.14,-0.3 1.92,1.92 0 0 1 1.46,0.56 2.31,2.31 0 0 1 0.53,1.64 v 4 h -1.75 v -3.64 a 1.24,1.24 0 0 0 -0.25,-0.82 0.91,0.91 0 0 0 -0.71,-0.28 1,1 0 0 0 -0.8,0.38 1.73,1.73 0 0 0 -0.32,1.13 v 3.22 h -1.75 v -6.09 z"
       class="cls-3"
       style="fill:#ffffff" />
    <path
       id="path3259"
       d="m 92.864131,154.61879 -0.49,-1.66 h -2.83 l -0.49,1.66 h -1.93 l 2.7,-8.09 h 2.32 l 2.7,8.09 z m -2.88,-3.15 h 2 l -0.09,-0.28 q -0.35,-1.18 -0.57,-2 c -0.15,-0.55 -0.24,-0.91 -0.27,-1.07 v -0.24 c -0.07,0.44 -0.36,1.55 -0.89,3.32 z"
       class="cls-3"
       style="fill:#ffffff" />
    <path
       id="path3261"
       d="m 97.604131,148.52879 v 1 a 1.75,1.75 0 0 1 1.71,-1 1.66,1.66 0 0 1 1.709999,1.16 1.64,1.64 0 0 1 0.68,-0.85 2.1,2.1 0 0 1 1.13,-0.31 1.83,1.83 0 0 1 1.42,0.57 2.4,2.4 0 0 1 0.52,1.68 v 3.9 h -1.75 v -3.67 a 1.48,1.48 0 0 0 -0.2,-0.82 0.68,0.68 0 0 0 -0.59,-0.3 1,1 0 0 0 -0.73,0.33 1.7,1.7 0 0 0 -0.32,1.18 v 3.22 h -1.749999 v -3.61 a 1.48,1.48 0 0 0 -0.2,-0.82 0.67,0.67 0 0 0 -0.59,-0.3 1,1 0 0 0 -0.73,0.33 1.7,1.7 0 0 0 -0.31,1.14 v 3.22 h -1.76 v -6.05 z"
       class="cls-3"
       style="fill:#ffffff" />
    <path
       id="path3263"
       d="m 111.18413,152.16879 h -3.69 a 1.8,1.8 0 0 0 0.17,0.47 1.11,1.11 0 0 0 0.7,0.63 1.24,1.24 0 0 0 0.46,0.1 h 0.09 a 2.09,2.09 0 0 0 0.38,-0.05 1.94,1.94 0 0 0 0.36,-0.11 1,1 0 0 0 0.33,-0.21 1.45,1.45 0 0 0 0.28,-0.27 l 0.78,0.9 a 1.94,1.94 0 0 1 -0.4,0.42 2.14,2.14 0 0 1 -0.5,0.33 3.08,3.08 0 0 1 -0.63,0.21 3,3 0 0 1 -0.66,0.09 h -0.16 a 3.23,3.23 0 0 1 -0.75,-0.11 2.88,2.88 0 0 1 -0.71,-0.26 2.74,2.74 0 0 1 -0.55,-0.46 2.4,2.4 0 0 1 -0.44,-0.58 3.31,3.31 0 0 1 -0.27,-0.69 3.16,3.16 0 0 1 -0.11,-0.73 v -0.21 a 0.19,0.19 0 0 1 0,-0.08 3.24,3.24 0 0 1 0.1,-0.76 5.31,5.31 0 0 1 0.23,-0.73 3,3 0 0 1 0.41,-0.59 2.71,2.71 0 0 1 0.53,-0.47 2.9,2.9 0 0 1 0.68,-0.28 3.08,3.08 0 0 1 0.72,-0.11 h 0.15 a 2.67,2.67 0 0 1 0.69,0.1 2.59,2.59 0 0 1 0.64,0.25 2.68,2.68 0 0 1 0.5,0.43 2.18,2.18 0 0 1 0.38,0.55 3.64,3.64 0 0 1 0.22,0.7 3.53,3.53 0 0 1 0.09,0.73 c 0,0 0,0.06 0,0.09 z m -1.58,-1.21 v 0 a 1,1 0 0 0 -0.08,-0.38 1,1 0 0 0 -0.18,-0.33 1,1 0 0 0 -0.33,-0.2 0.88,0.88 0 0 0 -0.37,-0.08 h -0.09 a 0.87,0.87 0 0 0 -0.37,0.09 0.91,0.91 0 0 0 -0.31,0.22 1.42,1.42 0 0 0 -0.22,0.41 1.39,1.39 0 0 0 -0.12,0.44 h 2.07 z"
       class="cls-3"
       style="fill:#ffffff" />
    <path
       id="path3265"
       d="m 114.15413,148.52879 v 1.13 a 1.7,1.7 0 0 1 0.55,-0.84 1.37,1.37 0 0 1 0.91,-0.32 1.5,1.5 0 0 1 0.46,0 v 1.65 a 1.59,1.59 0 0 0 -0.66,-0.13 1.17,1.17 0 0 0 -0.92,0.41 1.68,1.68 0 0 0 -0.34,1.1 v 3 h -1.76 v -6.09 z"
       class="cls-3"
       style="fill:#ffffff" />
    <path
       id="path3267"
       d="m 117.06413,147.48879 a 1,1 0 1 1 0.72,0.3 1,1 0 0 1 -0.72,-0.3 z m -0.15,7.13 v -6.09 h 1.75 v 6.09 z"
       class="cls-3"
       style="fill:#ffffff" />
    <path
       id="path3269"
       d="m 121.60413,151.58879 a 1.85,1.85 0 0 0 0.48,1.25 1.51,1.51 0 0 0 1.14,0.45 2.74,2.74 0 0 0 1.45,-0.42 v 1.49 a 3.47,3.47 0 0 1 -1.7,0.38 3.12,3.12 0 0 1 -2.26,-0.87 3,3 0 0 1 -0.88,-2.25 3.21,3.21 0 0 1 0.88,-2.26 3.17,3.17 0 0 1 2.37,-0.89 3.3,3.3 0 0 1 1.59,0.35 v 1.5 a 2.55,2.55 0 0 0 -1.41,-0.4 1.65,1.65 0 0 0 -1.19,0.44 1.72,1.72 0 0 0 -0.47,1.23 z"
       class="cls-3"
       style="fill:#ffffff" />
    <path
       id="path3271"
       d="m 125.93413,150.40879 v -1.58 a 4.29,4.29 0 0 1 2.07,-0.4 2.9,2.9 0 0 1 1.94,0.55 2.22,2.22 0 0 1 0.63,1.74 v 3.9 h -1.71 v -0.75 a 1.52,1.52 0 0 1 -1.51,0.78 1.84,1.84 0 0 1 -1.39,-0.5 1.74,1.74 0 0 1 -0.5,-1.26 1.6,1.6 0 0 1 0.64,-1.36 3.08,3.08 0 0 1 1.9,-0.49 h 0.77 v -0.42 c 0,-0.51 -0.34,-0.77 -1,-0.77 a 3.25,3.25 0 0 0 -1.84,0.56 z m 2.84,1.71 h -0.56 a 1.13,1.13 0 0 0 -0.69,0.19 0.62,0.62 0 0 0 -0.24,0.5 c 0,0.4 0.24,0.61 0.71,0.61 a 0.75,0.75 0 0 0 0.58,-0.23 0.92,0.92 0 0 0 0.2,-0.62 z"
       class="cls-3"
       style="fill:#ffffff" />
    <path
       id="path3273"
       d="m 133.72413,148.52879 v 1 a 1.76,1.76 0 0 1 0.7,-0.8 2.11,2.11 0 0 1 1.14,-0.3 1.92,1.92 0 0 1 1.46,0.56 2.31,2.31 0 0 1 0.53,1.64 v 4 h -1.75 v -3.64 a 1.24,1.24 0 0 0 -0.25,-0.82 0.91,0.91 0 0 0 -0.71,-0.28 1,1 0 0 0 -0.8,0.38 1.73,1.73 0 0 0 -0.32,1.13 v 3.22 h -1.75 v -6.09 z"
       class="cls-3"
       style="fill:#ffffff" />
    <path
       id="path3275"
       d="m 146.66413,146.88879 v 1.73 a 3.94,3.94 0 0 0 -2,-0.57 1.11,1.11 0 0 0 -0.71,0.2 0.57,0.57 0 0 0 -0.25,0.49 0.66,0.66 0 0 0 0.3,0.53 4.37,4.37 0 0 0 0.9,0.5 l 0.62,0.29 a 5.92,5.92 0 0 1 0.56,0.35 2.35,2.35 0 0 1 0.51,0.47 2.48,2.48 0 0 1 0.32,0.61 2.45,2.45 0 0 1 0.13,0.78 2.22,2.22 0 0 1 -0.81,1.77 3.18,3.18 0 0 1 -2.13,0.67 4.71,4.71 0 0 1 -2.33,-0.5 v -1.85 a 3.88,3.88 0 0 0 2.33,0.79 1,1 0 0 0 0.69,-0.22 0.7,0.7 0 0 0 0.28,-0.58 0.59,0.59 0 0 0 0,-0.23 0.41,0.41 0 0 0 -0.13,-0.2 1.41,1.41 0 0 0 -0.18,-0.17 l -0.27,-0.15 -0.29,-0.15 -0.36,-0.17 -0.37,-0.17 a 3.75,3.75 0 0 1 -1.26,-0.89 2,2 0 0 1 -0.47,-1.4 2.07,2.07 0 0 1 0.77,-1.69 3.25,3.25 0 0 1 2.12,-0.64 5,5 0 0 1 2.03,0.4 z"
       class="cls-3"
       style="fill:#ffffff" />
    <path
       id="path3277"
       d="m 150.16413,149.81879 v 2.79 a 0.67,0.67 0 0 0 0.18,0.5 0.72,0.72 0 0 0 0.49,0.16 1.53,1.53 0 0 0 0.85,-0.24 v 1.46 a 3.2,3.2 0 0 1 -1.2,0.19 1.83,1.83 0 0 1 -2.07,-2.08 v -2.78 h -0.88 v -1.29 h 0.88 v -1.44 h 1.75 v 1.44 h 1.44 v 1.29 z"
       class="cls-3"
       style="fill:#ffffff" />
    <path
       id="path3279"
       d="m 156.54413,148.52879 h 1.75 v 6.09 h -1.75 v -1 a 1.85,1.85 0 0 1 -1.85,1 2,2 0 0 1 -1.46,-0.53 2.07,2.07 0 0 1 -0.52,-1.54 v -4.02 h 1.75 v 3.68 c 0,0.71 0.31,1.06 0.94,1.06 0.63,0 1.14,-0.5 1.14,-1.52 z"
       class="cls-3"
       style="fill:#ffffff" />
    <path
       id="path3281"
       d="m 163.88413,146.12879 h 1.72 v 8.49 h -1.75 v -1 a 2,2 0 0 1 -1.82,1 2.31,2.31 0 0 1 -1.91,-0.92 3.56,3.56 0 0 1 -0.71,-2.21 3.3,3.3 0 0 1 0.74,-2.27 2.45,2.45 0 0 1 1.89,-0.83 2,2 0 0 1 1.81,1 z m -1.34,7.1 a 1.19,1.19 0 0 0 1,-0.47 1.94,1.94 0 0 0 0.37,-1.25 1.64,1.64 0 0 0 -0.4,-1.18 1.29,1.29 0 0 0 -1,-0.42 1.19,1.19 0 0 0 -0.91,0.45 1.84,1.84 0 0 0 -0.37,1.23 1.75,1.75 0 0 0 0.38,1.19 1.2,1.2 0 0 0 0.93,0.45 z"
       class="cls-3"
       style="fill:#ffffff" />
    <path
       id="path3283"
       d="m 172.14413,152.16879 h -3.69 a 1.5,1.5 0 0 0 0.17,0.47 1.36,1.36 0 0 0 0.3,0.41 1.61,1.61 0 0 0 0.86,0.32 h 0.09 a 1.9,1.9 0 0 0 0.37,-0.05 2.07,2.07 0 0 0 0.37,-0.11 1.13,1.13 0 0 0 0.33,-0.21 1.45,1.45 0 0 0 0.28,-0.27 l 0.78,0.9 a 1.94,1.94 0 0 1 -0.4,0.42 2.37,2.37 0 0 1 -0.5,0.33 3.31,3.31 0 0 1 -0.63,0.21 3,3 0 0 1 -0.66,0.09 h -0.16 a 3.31,3.31 0 0 1 -0.76,-0.11 2.94,2.94 0 0 1 -0.7,-0.26 2.74,2.74 0 0 1 -0.55,-0.46 2.4,2.4 0 0 1 -0.44,-0.58 3.31,3.31 0 0 1 -0.27,-0.69 3.16,3.16 0 0 1 -0.11,-0.73 v -0.21 a 0.19,0.19 0 0 1 0,-0.08 3.24,3.24 0 0 1 0.1,-0.76 4.22,4.22 0 0 1 0.23,-0.73 3,3 0 0 1 0.41,-0.59 2.45,2.45 0 0 1 0.53,-0.47 2.9,2.9 0 0 1 0.68,-0.28 2.94,2.94 0 0 1 0.72,-0.11 h 0.11 a 2.67,2.67 0 0 1 0.69,0.1 2.59,2.59 0 0 1 0.64,0.25 3,3 0 0 1 0.5,0.43 2.12,2.12 0 0 1 0.37,0.55 3,3 0 0 1 0.23,0.7 3.53,3.53 0 0 1 0.09,0.73 c 0,0 0,0.06 0,0.09 z m -1.54,-1.21 v 0 a 1.18,1.18 0 0 0 -0.08,-0.38 1,1 0 0 0 -0.18,-0.33 1,1 0 0 0 -0.33,-0.2 0.88,0.88 0 0 0 -0.37,-0.08 h -0.1 a 0.87,0.87 0 0 0 -0.36,0.09 0.82,0.82 0 0 0 -0.31,0.22 1.22,1.22 0 0 0 -0.22,0.41 1.78,1.78 0 0 0 -0.13,0.44 h 2.08 z"
       class="cls-3"
       style="fill:#ffffff" />
    <path
       id="path3285"
       d="m 175.11413,148.52879 v 1 a 1.76,1.76 0 0 1 0.7,-0.8 2.11,2.11 0 0 1 1.14,-0.3 1.92,1.92 0 0 1 1.46,0.56 2.31,2.31 0 0 1 0.53,1.64 v 4 h -1.75 v -3.64 a 1.19,1.19 0 0 0 -0.26,-0.82 0.87,0.87 0 0 0 -0.7,-0.28 1,1 0 0 0 -0.8,0.38 1.73,1.73 0 0 0 -0.32,1.13 v 3.22 h -1.75 v -6.09 z"
       class="cls-3"
       style="fill:#ffffff" />
    <path
       id="path3287"
       d="m 182.35413,149.81879 v 2.79 a 0.63,0.63 0 0 0 0.19,0.5 0.68,0.68 0 0 0 0.48,0.16 1.57,1.57 0 0 0 0.86,-0.24 v 1.46 a 3.27,3.27 0 0 1 -1.2,0.19 1.84,1.84 0 0 1 -2.08,-2.08 v -2.78 h -0.88 v -1.29 h 0.88 v -1.44 h 1.75 v 1.44 h 1.42 v 1.29 z"
       class="cls-3"
       style="fill:#ffffff" />
    <path
       id="path3289"
       d="m 188.80413,148.70879 v 1.5 a 3,3 0 0 0 -1.49,-0.37 0.74,0.74 0 0 0 -0.48,0.13 0.39,0.39 0 0 0 -0.17,0.32 0.36,0.36 0 0 0 0.06,0.2 0.72,0.72 0 0 0 0.2,0.18 l 0.26,0.15 0.35,0.16 c 0.15,0.07 0.27,0.12 0.35,0.17 a 2.85,2.85 0 0 1 0.89,0.67 1.36,1.36 0 0 1 0.34,1 1.64,1.64 0 0 1 -0.65,1.39 2.75,2.75 0 0 1 -1.72,0.5 4,4 0 0 1 -1.84,-0.38 v -1.6 a 3,3 0 0 0 1.75,0.58 q 0.66,0 0.66,-0.42 a 0.36,0.36 0 0 0 -0.06,-0.2 0.48,0.48 0 0 0 -0.21,-0.18 1.34,1.34 0 0 0 -0.26,-0.14 l -0.35,-0.15 -0.35,-0.16 a 1.85,1.85 0 0 1 -1.21,-1.7 1.62,1.62 0 0 1 0.68,-1.38 2.84,2.84 0 0 1 1.69,-0.49 4.39,4.39 0 0 1 1.56,0.22 z"
       class="cls-3"
       style="fill:#ffffff" />
    <path
       id="path3291"
       d="m 197.92413,151.49879 v -5 h 1.84 v 5 a 3.14,3.14 0 0 1 -0.88,2.41 3.85,3.85 0 0 1 -4.79,0 3,3 0 0 1 -0.9,-2.34 v -5 h 1.85 v 5 q 0,1.5 1.44,1.5 1.44,0 1.44,-1.57 z"
       class="cls-3"
       style="fill:#ffffff" />
    <path
       id="path3293"
       d="m 203.02413,148.52879 v 1 a 1.7,1.7 0 0 1 0.7,-0.8 2,2 0 0 1 1.13,-0.3 1.94,1.94 0 0 1 1.47,0.56 2.31,2.31 0 0 1 0.52,1.64 v 4 h -1.75 v -3.64 a 1.18,1.18 0 0 0 -0.25,-0.82 0.89,0.89 0 0 0 -0.71,-0.28 1,1 0 0 0 -0.8,0.38 1.73,1.73 0 0 0 -0.31,1.13 v 3.22 h -1.76 v -6.09 z"
       class="cls-3"
       style="fill:#ffffff" />
    <path
       id="path3295"
       d="m 208.41413,147.48879 a 1,1 0 1 1 0.72,0.3 1,1 0 0 1 -0.72,-0.3 z m -0.16,7.13 v -6.09 h 1.75 v 6.09 z"
       class="cls-3"
       style="fill:#ffffff" />
    <path
       id="path3297"
       d="m 214.13413,154.70879 a 2.81,2.81 0 0 1 -2.2,-0.85 3.14,3.14 0 0 1 -0.79,-2.21 3.36,3.36 0 0 1 0.82,-2.31 3.14,3.14 0 0 1 4.37,0 3.25,3.25 0 0 1 0.78,2.24 3.29,3.29 0 0 1 -0.79,2.27 2.74,2.74 0 0 1 -2.19,0.86 z m 0,-4.89 a 0.93,0.93 0 0 0 -0.86,0.49 2.41,2.41 0 0 0 -0.29,1.27 2.55,2.55 0 0 0 0.29,1.28 1,1 0 0 0 0.88,0.5 0.92,0.92 0 0 0 0.86,-0.49 2.45,2.45 0 0 0 0.28,-1.26 c -0.01,-1.2 -0.39,-1.79 -1.17,-1.79 z"
       class="cls-3"
       style="fill:#ffffff" />
    <path
       id="path3299"
       d="m 219.99413,148.52879 v 1 a 1.7,1.7 0 0 1 0.7,-0.8 2.07,2.07 0 0 1 1.13,-0.3 1.93,1.93 0 0 1 1.47,0.56 2.31,2.31 0 0 1 0.53,1.64 v 4 h -1.76 v -3.64 a 1.18,1.18 0 0 0 -0.25,-0.82 0.89,0.89 0 0 0 -0.71,-0.28 1,1 0 0 0 -0.79,0.38 1.68,1.68 0 0 0 -0.32,1.13 v 3.22 h -1.75 v -6.09 z"
       class="cls-3"
       style="fill:#ffffff" />
  </g>
</svg>
